<?xml version="1.0" encoding="utf-8"?>
<svg viewBox="0 0 500 500" xmlns="http://www.w3.org/2000/svg" xmlns:bx="https://boxy-svg.com">
  <path style="fill: rgb(37, 36, 34);" d="M 250.215 172.449 C 250.215 172.449 249.973 276.473 228.777 312.542 C 209.468 345.399 155.732 351.232 135.874 384.652 C 113.23 422.761 86.561 506.632 111.282 535.583 C 145.13 575.222 365.225 574.572 397.965 534.369 C 422.4 504.364 388.829 415.874 366.286 377.842 C 348.591 347.99 309.851 343.424 291.05 314.429 C 268.013 278.9 250.215 172.449 250.215 172.449 C 250.215 172.449 250.215 172.449 250.215 172.449" bx:d="M 250.215 172.449 R 228.777 312.542 R 135.874 384.652 R 111.282 535.583 R 397.965 534.369 R 366.286 377.842 R 291.05 314.429 R 250.215 172.449 Z 1@8db2b1e8"/>
  <path style="stroke-linecap: round; fill: rgb(95, 85, 79);" d="M 242.28 372.478 C 242.28 372.478 250.50426086975858 384.49052526069886 254.842 384.428 C 259.6415320244368 384.35881834060314 265.6114664139174 368.876094342136 269.793 369.361 C 273.67499706600756 369.8111703268351 274.6310428732211 384.2655857867864 279.365 384.951 C 286.8594272207233 386.0360936752091 301.0237994898573 367.78601979421734 313.452 354.287 C 332.3261180257296 333.78667956987886 367.29510499437504 301.17571949719536 377.449 270.108 C 387.23552238781633 240.1643249640388 386.3337959005067 195.60832044802575 375.656 171.894 C 367.53283101595895 153.85325131591344 343.8920309235566 147.11693024767422 333.785 133.439 C 325.27570890649105 121.92330454853955 315.2900549161103 106.74091009058306 316.444 97.064 C 317.3113885039902 89.79013516543971 332.441747287072 82.79037433499538 330.8 79.392 C 328.48011980252903 74.5899081156821 299.11382615532295 76.52585542917348 285.341 79.915 C 272.596167510315 83.05118130014773 262.3045109410138 97.79172237372859 250.652 97.582 C 238.5869609519737 97.364852928344 226.23261126463171 81.09359329593251 214.169 77.316 C 203.72872461636732 74.0467373031384 187.03004068951714 69.97667898401144 183.067 74.199 C 179.7333363321047 77.75076725851565 188.1494973087428 87.70387586170708 186.661 96.023 C 184.35223458389154 108.92655447066707 170.10170606858608 127.8699159297277 160.345 142.272 C 150.90038418191122 156.2134009264349 134.78207761257318 164.0576744286886 129.243 181.245 C 121.56764990049294 205.06101238707734 122.10959429822445 246.84208917169568 134.029 276.865 C 147.71974361787971 311.3496030999307 198.5793704742982 356.42917925024017 215.963 372.995 C 222.9502408524826 379.65352774453635 227.57956183516706 386.0365094213166 232.113 385.469 C 236.1890515013572 384.95874761655824 242.28 372.478 242.28 372.478 C 242.28 372.47799999999995 242.28 372.478 242.28 372.478 C 242.28 372.478 242.27999999999994 372.478 242.28 372.478" bx:d="M 242.28 372.478 R 254.842 384.428 R 269.793 369.361 R 279.365 384.951 R 313.452 354.287 R 377.449 270.108 R 375.656 171.894 R 333.785 133.439 R 316.444 97.064 R 330.8 79.392 R 285.341 79.915 R 250.652 97.582 R 214.169 77.316 R 183.067 74.199 R 186.661 96.023 R 160.345 142.272 R 129.243 181.245 R 134.029 276.865 R 215.963 372.995 R 232.113 385.469 R 242.28 372.478 R 242.28 372.478 Z 1@8e78aeae"/>
  <path style="stroke-linecap: round; fill: rgb(37, 36, 34);" d="M 5.307 274.76 C 5.307 274.76 59.10109580766782 167.2372941254138 84.798 136.487 C 100.72814892044363 117.42412919272766 113.1986495607457 104.0444799823306 131.666 96.985 C 151.06806463431943 89.56820854675928 193.84073377356015 85.23670805721764 199.292 94.96 C 205.54194443320932 106.10787497545319 163.54382697448025 146.73379188471557 150.645 169.409 C 140.47574200509737 187.28582258771667 129.2170147939216 200.2944868863811 126.322 219.047 C 122.9319603615958 241.00604591173033 145.07839641525192 281.10031253864554 137.595 294.001 C 133.04674192285316 301.8417787976147 120.95060678898209 301.7066352839585 111.493 304.132 C 100.96384620562203 306.8321585784269 83.33130222355437 313.13842215810314 77.091 308.694 C 71.92557707648491 305.01512047224406 77.32950904098314 288.42980244305755 72.339 285.396 C 66.43298874907629 281.8056505557582 47.122921788241584 297.549393221342 40.308 294.508 C 34.98905193477684 292.1342365008867 36.546508938009154 278.73730937214896 31.409 276.278 C 25.440594785607715 273.42094319335524 7.539980288144996 284.7954708807552 4.713 282.353 C 3.2219674500384046 281.0647690205301 5.307 274.76 5.307 274.76 C 5.3069999999999995 274.75999999999993 5.307 274.76 5.307 274.76 C 5.307 274.76 5.307 274.76 5.307 274.76" bx:d="M 5.307 274.76 R 84.798 136.487 R 131.666 96.985 R 199.292 94.96 R 150.645 169.409 R 126.322 219.047 R 137.595 294.001 R 111.493 304.132 R 77.091 308.694 R 72.339 285.396 R 40.308 294.508 R 31.409 276.278 R 4.713 282.353 R 5.307 274.76 R 5.307 274.76 Z 1@590dfa49"/>
  <path style="stroke-linecap: round; fill: rgb(37, 36, 34);" d="M 497.413 275.707 C 497.413 275.707 448.7300411118506 176.07297057222854 423.85 144.487 C 406.85388218613275 122.9099103682936 392.20076510826743 104.73584963158498 372.359 96.771 C 353.3574275051505 89.14341914419819 316.92260873732766 88.14675682422374 307.986 95.735 C 302.88582241288475 100.06565706558477 302.30684020211265 108.20131169587903 304.92 116.479 C 310.7479988210288 134.940311748429 366.6741149484236 164.1254010037648 376.648 192.202 C 385.44513521717386 216.96603493032143 373.6875448256301 258.2620008524135 370.516 273.112 C 369.2624737357118 278.98133654720084 364.55114977236263 281.1305167625888 366.227 285.04 C 369.922865642385 293.6618473097076 412.4210887243974 314.8298317831447 422.627 309.935 C 430.1252717195529 306.3387725059144 424.80643089792886 280.3436506621457 431.205 277.782 C 438.11350169286084 275.01619913833184 457.6602353854052 300.71742315959045 464.308 298.008 C 470.150190172863 295.62690405651017 465.7928094524284 272.4353754411469 471.671 268.966 C 477.2107361879512 265.69638420150403 497.413 275.707 497.413 275.707 C 497.41299999999995 275.70699999999994 497.413 275.707 497.413 275.707 C 497.413 275.707 497.41299999999995 275.707 497.413 275.707" bx:d="M 497.413 275.707 R 423.85 144.487 R 372.359 96.771 R 307.986 95.735 R 304.92 116.479 R 376.648 192.202 R 370.516 273.112 R 366.227 285.04 R 422.627 309.935 R 431.205 277.782 R 464.308 298.008 R 471.671 268.966 R 497.413 275.707 R 497.413 275.707 Z 1@fc1a9497"/>
  <path style="stroke-linecap: round; fill: rgb(64, 61, 57);" d="M 251.857 314.489 C 251.857 314.489 176.86637884618244 365.8843480345242 159.566 363.946 C 152.04881179553328 363.1037683291894 150.617743951387 353.07417869803356 144.64 350.984 C 138.2375688034534 348.745325106683 126.04420785742076 355.2309648981189 121.983 351.944 C 118.5123011302375 349.13496737784425 122.85041297835568 338.62766016492884 119.22 335.614 C 114.53037808443584 331.72107463867815 93.73076193029597 340.5733228119557 91.588 336.098 C 87.65359461520954 327.88069227155734 131.79411395695172 279.5233815858336 151.271 264.55 C 164.54454829955557 254.34560165583153 173.21100710298003 250.05933760396653 190.51 246.304 C 219.8348823529061 239.93803210306362 277.4061406111875 233.4984963584023 314.859 247.264 C 354.0543638629642 261.66994744417696 422.6015856123365 324.00560976316444 419.313 334.659 C 417.7841294479748 339.6117841243452 395.037698453136 333.64987971011305 390.018 337.536 C 386.9148630504128 339.93836810531 388.9823294820259 346.32656550658425 386.149 348.099 C 382.4778711160114 350.39553328532173 372.62223225554686 343.85346096219837 367.361 346.182 C 361.52062891053885 348.7668568199437 361.4964029094461 362.98267195110316 353.542 364.907 C 335.97554594036194 369.1566741303455 251.857 314.489 251.857 314.489 C 251.857 314.4889999999999 251.857 314.489 251.857 314.489 C 251.857 314.489 251.857 314.489 251.857 314.489" bx:d="M 251.857 314.489 R 159.566 363.946 R 144.64 350.984 R 121.983 351.944 R 119.22 335.614 R 91.588 336.098 R 151.271 264.55 R 190.51 246.304 R 314.859 247.264 R 419.313 334.659 R 390.018 337.536 R 386.149 348.099 R 367.361 346.182 R 353.542 364.907 R 251.857 314.489 R 251.857 314.489 Z 1@0256d6ad"/>
  <path style="stroke: rgb(0, 0, 0); stroke-linecap: round;" d="M 247.828 296.347 C 247.828 296.347 227.59093969724276 287.791743946312 223.492 282.596 C 220.9396310415023 279.3606619505553 219.33650627603154 275.2144732641858 220.503 272.178 C 222.0111273990657 268.25222789153975 229.50272529900516 264.45720401273553 235.873 262.588 C 244.34249724164266 260.10282958380776 260.2222436366436 259.45550083250737 267.894 262.172 C 273.14430921314676 264.031086750293 278.542691857966 267.77807996332996 279.427 271.761 C 280.3696773834318 276.0068148467906 276.43995265596345 283.2330060987784 272.164 287.18 C 266.8822435089616 292.0554189616184 247.828 296.347 247.828 296.347 C 247.82799999999997 296.3469999999999 247.828 296.347 247.828 296.347 C 247.828 296.347 247.828 296.347 247.828 296.347" bx:d="M 247.828 296.347 R 223.492 282.596 R 220.503 272.178 R 235.873 262.588 R 267.894 262.172 R 279.427 271.761 R 272.164 287.18 R 247.828 296.347 R 247.828 296.347 Z 1@e51c4469"/>
  <ellipse style="stroke: rgb(0, 0, 0); stroke-linecap: round;" cx="281.662" cy="233.545" rx="13.976" ry="22.308"/>
  <ellipse style="stroke: rgb(0, 0, 0); stroke-linecap: round;" cx="223.622" cy="233.261" rx="13.976" ry="22.308"/>
  <ellipse style="fill: rgb(255, 255, 255);" cx="279.281" cy="224.562" rx="5.846" ry="4.704"/>
  <ellipse style="fill: rgb(255, 255, 255);" cx="219.37" cy="223.798" rx="5.846" ry="4.704"/>
  <ellipse style="fill: rgb(255, 255, 255);" cx="251.178" cy="270.231" rx="12.308" ry="3.005"/>
</svg>