<?xml version="1.0" encoding="utf-8"?>
<!-- Generator: Adobe Illustrator 19.0.0, SVG Export Plug-In . SVG Version: 6.00 Build 0)  -->
<svg version="1.1" id="Layer_1" xmlns="http://www.w3.org/2000/svg" xmlns:xlink="http://www.w3.org/1999/xlink" x="0px" y="0px"
	 viewBox="0 0 50 50" style="enable-background:new 0 0 50 50;" xml:space="preserve">
<style type="text/css">
	.st0{fill:none;stroke:#000000;stroke-width:3;stroke-miterlimit:10;}
	.st1{fill:#FFFFFF;stroke:#000000;stroke-width:3;stroke-miterlimit:10;}
</style>
<path id="XMLID_2_" class="st0" d="M19.8,6.5c1-0.2,1.9-0.8,2.3-1c1.5-0.9,2.2-1.9,2.6-2.3c2-2,7-0.7,9.3,0.3
	c6,2.6,9.1,8.8,9.6,13.3c0.2,1.2,0.4,2.9-0.3,4.9c-0.7,2.1-1.8,2.5-3.3,5.1c-1.5,2.6-1,3.2-2.1,5c-1.6,2.7-5.4,5.8-8.9,5
	c-4.2-0.9-6.8-7.6-5.4-12.1c0.9-2.8,2.6-2.6,5.4-6.3c5-6.6,3.4-12.8,6.2-13.4c2.8-0.7,6.2,5,6.5,5.6c0.5,0.9,3.1,5.3,1.8,10.3
	c-1.3,5.1-5.3,6.1-4.7,9.8c0.3,1.6,1.3,3.5,2.4,4.8c0.8,0.8,1.5,1.6,2.2,2.1c0.5,0.5,0.9,0.7,3.1,2.2c0.7,0.5,1.3,0.9,1.7,1.2
	c0,2.4,0,4.8,0,7.2c-13.5,0-26.9,0-40.4,0c0.8-1.3,1.9-3.1,3.2-5.3c0.9-1.7,1.8-3.2,2.8-5.3c2.7-5.8,3.2-8.6,3.3-10.4
	c0.1-1.7,0.1-2.6-0.1-3.6c-1.3-5-7-4.8-9.8-9.8c-2.3-4-1.6-9.6,0.5-10.6c1-0.5,2.6,0.2,5.9,1.5C16.4,5.9,17.8,7,19.8,6.5z"/>
<path id="XMLID_1_" class="st1" d="M43.6,4"/>
</svg>
