<?xml version="1.0" encoding="utf-8"?>
<svg viewBox="4.176 102.543 493.237 398.287" width="493.237" height="398.287" xmlns="http://www.w3.org/2000/svg" xmlns:bx="https://boxy-svg.com">
  <path style="fill: rgb(37, 36, 34);" d="M 253.157 393.068 C 253.157 393.068 275.239 346.223 291.05 344.58 C 311.043 342.502 348.591 378.141 366.286 407.993 C 378.986 429.418 395.185 466.856 402.542 500.83 L 104.375 500.83 C 110.213 469.385 123.632 435.406 135.874 414.803 C 155.732 381.383 209.164 338.101 228.777 342.693 C 242.307 345.861 253.157 393.068 253.157 393.068 Z"/>
  <path style="stroke-linecap: round; fill: rgb(95, 85, 79);" d="M 242.28 402.629 C 242.28 402.629 250.50426086975858 414.6415252606989 254.842 414.579 C 259.6415320244368 414.50981834060315 265.61146641391736 399.0270943421359 269.793 399.512 C 273.67499706600745 399.96217032683506 274.6310428732212 414.41658578678647 279.365 415.102 C 286.85942722072326 416.18709367520887 301.02379948985725 397.9370197942173 313.452 384.438 C 332.3261180257297 363.93767956987887 367.2951049943751 331.32671949719554 377.449 300.259 C 387.23552238781645 270.31532496403884 386.33379590050674 225.75932044802573 375.656 202.045 C 367.53283101595906 184.00425131591348 343.8920309235567 177.2679302476743 333.785 163.59 C 325.27570890649105 152.0743045485396 315.2900549161103 136.89191009058305 316.444 127.215 C 317.3113885039902 119.94113516543972 332.441747287072 112.9413743349954 330.8 109.543 C 328.48011980252903 104.74090811568215 299.11382615532295 106.67685542917347 285.341 110.066 C 272.596167510315 113.20218130014773 262.3045109410138 127.94272237372861 250.652 127.733 C 238.58696095197368 127.515852928344 226.23261126463171 111.24459329593252 214.169 107.467 C 203.72872461636732 104.1977373031384 187.0300406895171 100.12767898401142 183.067 104.35 C 179.73333633210464 107.9017672585156 188.14949730874287 117.85487586170711 186.661 126.174 C 184.35223458389152 139.07755447066708 170.10170606858603 158.02091592972766 160.345 172.423 C 150.90038418191116 186.36440092643488 134.78207761257318 194.2086744286886 129.243 211.396 C 121.56764990049294 235.21201238707735 122.10959429822444 276.9930891716957 134.029 307.016 C 147.71974361787977 341.5006030999307 198.5793704742982 386.5801792502403 215.963 403.146 C 222.9502408524826 409.80452774453636 227.57956183516706 416.1875094213167 232.113 415.62 C 236.1890515013572 415.1097476165582 242.28 402.629 242.28 402.629 C 242.28 402.629 242.28 402.629 242.28 402.629 C 242.28 402.629 242.27999999999994 402.6290000000001 242.28 402.629" bx:d="M 242.28 402.629 R 254.842 414.579 R 269.793 399.512 R 279.365 415.102 R 313.452 384.438 R 377.449 300.259 R 375.656 202.045 R 333.785 163.59 R 316.444 127.215 R 330.8 109.543 R 285.341 110.066 R 250.652 127.733 R 214.169 107.467 R 183.067 104.35 R 186.661 126.174 R 160.345 172.423 R 129.243 211.396 R 134.029 307.016 R 215.963 403.146 R 232.113 415.62 R 242.28 402.629 R 242.28 402.629 Z 1@ddf1f88e"/>
  <path style="stroke-linecap: round; fill: rgb(37, 36, 34);" d="M 5.307 304.911 C 5.307 304.911 59.10109580766781 197.38829412541378 84.798 166.638 C 100.72814892044363 147.57512919272767 113.1986495607457 134.1954799823306 131.666 127.136 C 151.06806463431943 119.71920854675926 193.84073377356015 115.38770805721765 199.292 125.111 C 205.54194443320932 136.25887497545318 163.54382697448025 176.88479188471558 150.645 199.56 C 140.47574200509737 217.43682258771668 129.2170147939216 230.4454868863811 126.322 249.198 C 122.9319603615958 271.15704591173034 145.07839641525192 311.2513125386456 137.595 324.152 C 133.04674192285316 331.99277879761473 120.95060678898209 331.85763528395853 111.493 334.283 C 100.96384620562203 336.9831585784269 83.33130222355437 343.2894221581031 77.091 338.845 C 71.92557707648491 335.16612047224413 77.32950904098314 318.5808024430576 72.339 315.547 C 66.43298874907629 311.9566505557582 47.12292178824159 327.700393221342 40.308 324.659 C 34.989051934776825 322.28523650088664 36.546508938009154 308.8883093721489 31.409 306.429 C 25.44059478560772 303.5719431933552 7.539980288144991 314.9464708807551 4.713 312.504 C 3.221967450038404 311.21576902053005 5.307 304.911 5.307 304.911 C 5.3069999999999995 304.91099999999994 5.307 304.911 5.307 304.911 C 5.307 304.911 5.307 304.911 5.307 304.911" bx:d="M 5.307 304.911 R 84.798 166.638 R 131.666 127.136 R 199.292 125.111 R 150.645 199.56 R 126.322 249.198 R 137.595 324.152 R 111.493 334.283 R 77.091 338.845 R 72.339 315.547 R 40.308 324.659 R 31.409 306.429 R 4.713 312.504 R 5.307 304.911 R 5.307 304.911 Z 1@1c043a61"/>
  <path style="stroke-linecap: round; fill: rgb(37, 36, 34);" d="M 497.413 305.858 C 497.413 305.858 448.7300411118506 206.22397057222858 423.85 174.638 C 406.85388218613275 153.0609103682936 392.20076510826743 134.88684963158497 372.359 126.922 C 353.3574275051505 119.2944191441982 316.92260873732766 118.29775682422374 307.986 125.886 C 302.88582241288475 130.21665706558477 302.30684020211265 138.35231169587905 304.92 146.63 C 310.7479988210288 165.091311748429 366.67411494842355 194.2764010037648 376.648 222.353 C 385.44513521717386 247.1170349303214 373.6875448256301 288.4130008524136 370.516 303.263 C 369.2624737357118 309.1323365472008 364.5511497723625 311.2815167625887 366.227 315.191 C 369.92286564238503 323.81284730970754 412.4210887243974 344.9808317831447 422.627 340.086 C 430.12527171955276 336.48977250591435 424.80643089792886 310.4946506621457 431.205 307.933 C 438.11350169286084 305.1671991383318 457.6602353854052 330.86842315959046 464.308 328.159 C 470.150190172863 325.7779040565101 465.7928094524284 302.5863754411469 471.671 299.117 C 477.2107361879512 295.84738420150404 497.413 305.858 497.413 305.858 C 497.41299999999995 305.8579999999999 497.413 305.858 497.413 305.858 C 497.413 305.858 497.41299999999995 305.858 497.413 305.858" bx:d="M 497.413 305.858 R 423.85 174.638 R 372.359 126.922 R 307.986 125.886 R 304.92 146.63 R 376.648 222.353 R 370.516 303.263 R 366.227 315.191 R 422.627 340.086 R 431.205 307.933 R 464.308 328.159 R 471.671 299.117 R 497.413 305.858 R 497.413 305.858 Z 1@6121b268"/>
  <path style="stroke-linecap: round; fill: rgb(64, 61, 57);" d="M 251.857 344.64 C 251.857 344.64 176.86637884618244 396.0353480345241 159.566 394.097 C 152.0488117955333 393.25476832918946 150.617743951387 383.2251786980336 144.64 381.135 C 138.2375688034534 378.89632510668304 126.04420785742076 385.38196489811895 121.983 382.095 C 118.5123011302375 379.28596737784426 122.85041297835568 368.77866016492885 119.22 365.765 C 114.53037808443584 361.8720746386782 93.73076193029597 370.7243228119557 91.588 366.249 C 87.65359461520954 358.0316922715574 131.79411395695175 309.6743815858337 151.271 294.701 C 164.54454829955563 284.49660165583157 173.21100710298 280.2103376039665 190.51 276.455 C 219.83488235290608 270.0890321030636 277.4061406111875 263.6494963584023 314.859 277.415 C 354.0543638629642 291.82094744417697 422.6015856123365 354.15660976316445 419.313 364.81 C 417.7841294479748 369.7627841243452 395.037698453136 363.8008797101131 390.018 367.687 C 386.9148630504128 370.08936810531003 388.9823294820259 376.47756550658426 386.149 378.25 C 382.4778711160114 380.5465332853218 372.62223225554686 374.00446096219844 367.361 376.333 C 361.52062891053885 378.9178568199436 361.4964029094461 393.1336719511031 353.542 395.058 C 335.97554594036194 399.30767413034556 251.857 344.64 251.857 344.64 C 251.857 344.63999999999993 251.857 344.64 251.857 344.64 C 251.857 344.64 251.857 344.64 251.857 344.64" bx:d="M 251.857 344.64 R 159.566 394.097 R 144.64 381.135 R 121.983 382.095 R 119.22 365.765 R 91.588 366.249 R 151.271 294.701 R 190.51 276.455 R 314.859 277.415 R 419.313 364.81 R 390.018 367.687 R 386.149 378.25 R 367.361 376.333 R 353.542 395.058 R 251.857 344.64 R 251.857 344.64 Z 1@bd0919c4"/>
  <path style="stroke-linecap: round; fill: rgb(0, 0, 1);" d="M 247.828 326.498 C 247.828 326.498 227.59093969724276 317.94274394631196 223.492 312.747 C 220.9396310415023 309.5116619505553 219.33650627603154 305.3654732641858 220.503 302.329 C 222.01112739906574 298.4032278915398 229.50272529900522 294.6082040127355 235.873 292.739 C 244.34249724164266 290.25382958380766 260.2222436366436 289.6065008325074 267.894 292.323 C 273.14430921314676 294.1820867502929 278.54269185796596 297.9290799633299 279.427 301.912 C 280.3696773834318 306.1578148467906 276.4399526559633 313.3840060987784 272.164 317.331 C 266.88224350896155 322.20641896161834 247.828 326.498 247.828 326.498 C 247.82799999999997 326.49799999999993 247.828 326.498 247.828 326.498 C 247.828 326.498 247.828 326.498 247.828 326.498" bx:d="M 247.828 326.498 R 223.492 312.747 R 220.503 302.329 R 235.873 292.739 R 267.894 292.323 R 279.427 301.912 R 272.164 317.331 R 247.828 326.498 R 247.828 326.498 Z 1@32eb4022"/>
  <ellipse style="stroke-linecap: round; fill: rgb(0, 0, 1);" cx="281.662" cy="263.696" rx="13.976" ry="22.308"/>
  <ellipse style="stroke-linecap: round; fill: rgb(0, 0, 1);" cx="223.622" cy="263.412" rx="13.976" ry="22.308"/>
  <ellipse style="fill: rgb(255, 255, 255);" cx="279.281" cy="254.713" rx="5.846" ry="4.704"/>
  <ellipse style="fill: rgb(255, 255, 255);" cx="219.37" cy="253.949" rx="5.846" ry="4.704"/>
  <ellipse style="fill: rgb(255, 255, 255);" cx="251.178" cy="300.382" rx="12.308" ry="3.005"/>
</svg>