<?xml version="1.0" encoding="utf-8"?>
<svg viewBox="8.997 41.82 473.517 457.636" width="473.517" height="457.636" xmlns="http://www.w3.org/2000/svg" xmlns:bx="https://boxy-svg.com">
  <path style="fill: rgb(218, 200, 175);" d="M 248.961 169.441 C 248.961 169.441 269.954 292.008 296.853 332.85 C 318.911 366.342 359.205 374.777 385.089 405.835 C 404.736 429.409 438.06 467.582 454.44 499.456 L 46.447 499.456 C 65.386 466 97.749 427.674 118.502 404.744 C 148.612 371.475 201.726 366.21 223.819 330.678 C 248.692 290.676 248.961 169.441 248.961 169.441 Z"/>
  <path style="stroke-linecap: round; fill: rgb(185, 171, 152);" d="M 225.412 429.564 C 225.412 429.564 247.88482177142868 444.274664383048 258.041 444.341 C 266.8873825893895 444.39878061724136 275.2742248323 439.10149838541605 282.941 433.454 C 291.9012462260935 426.8537052231315 298.4883196752434 418.550804074021 307.227 405.382 C 323.02662786582874 381.5726608234531 352.12488372037757 335.36595641145567 360.935 296.576 C 369.9466674584238 256.89863629535506 369.6299249865064 201.08084334729062 359.43 169.63 C 352.36711670362797 147.8520323749186 332.67725580099767 136.94577596359167 324.291 119.924 C 316.7502420689456 104.61835047726363 308.5606350855554 85.58714224586171 309.738 72.908 C 310.59084751271945 63.72361307362203 324.30472780934656 54.1596719330907 321.786 50.066 C 318.72442023120436 45.090034306553804 294.9105810190069 46.73558932496796 283.636 50.742 C 272.53363204011225 54.68721494303352 264.2649776720634 73.78438089734841 254.524 73.577 C 244.35860347144654 73.3605834220173 234.41169424603459 52.204944839175845 223.907 47.382 C 215.40233459933216 43.477314043190546 201.75660385813177 39.58222692989682 197.805 43.354 C 193.70954300330098 47.26307969636866 202.18438821559155 60.60167795648378 200.822 71.562 C 198.78003365276177 87.98948264527108 187.05554098933536 112.51148692967361 178.737 131.342 C 170.8881927144491 149.10918638118395 157.45590269106938 160.43657751071078 152.635 181.716 C 145.51768214087653 213.1317790397661 145.6351978956129 265.3422616770347 156.652 305.31 C 168.45799284429575 348.14083495306795 225.412 429.564 225.412 429.564 C 225.412 429.56399999999996 225.41200000000006 429.5640000000001 225.412 429.564" bx:d="M 225.412 429.564 R 258.041 444.341 R 282.941 433.454 R 307.227 405.382 R 360.935 296.576 R 359.43 169.63 R 324.291 119.924 R 309.738 72.908 R 321.786 50.066 R 283.636 50.742 R 254.524 73.577 R 223.907 47.382 R 197.805 43.354 R 200.822 71.562 R 178.737 131.342 R 152.635 181.716 R 156.652 305.31 R 225.412 429.564 Z 1@88371e48"/>
  <path style="stroke-linecap: round; fill: rgb(228, 215, 197);" d="M 10.614 400.726 C 10.614 400.726 69.2833564097106 204.6916632235807 99.247 147.238 C 116.52622430630421 114.10602354100746 128.98154411966678 85.22652735248737 151.503 74.821 C 172.14736530716664 65.28273972855585 217.56304667226965 66.42237190424547 226.299 80.825 C 238.13088175112887 100.33176544865736 179.68088271201074 161.19173532286933 172.666 207.591 C 164.82445042928103 259.45817283065406 198.2824139845137 337.8256000987095 189.863 378.727 C 184.6679590537531 403.9644390470473 170.30616437457775 423.0297579859232 158.114 436 C 149.26136690873363 445.4175890455485 139.81990282910903 450.1123038209949 129.011 454.572 C 117.48454823074736 459.3277530792476 98.01580395564646 468.15099404105916 90.652 462.934 C 82.94207775875857 457.47179342417945 92.57354144649447 424.2141029024339 85.355 420.224 C 78.44582858725592 416.4049037030892 57.22332916229803 440.3352061147728 49.641 436.928 C 42.5112178486268 433.7241510476295 46.648662078188124 406.9609820969525 39.717 403.509 C 33.09873442064749 400.21309000971195 13.704172520177659 417.38256947910816 9.952 414.646 C 7.467330388598646 412.83385757113683 10.614 400.726 10.614 400.726 C 10.614 400.72599999999994 10.614 400.726 10.614 400.726 C 10.614 400.726 10.614 400.726 10.614 400.726" bx:d="M 10.614 400.726 R 99.247 147.238 R 151.503 74.821 R 226.299 80.825 R 172.666 207.591 R 189.863 378.727 R 158.114 436 R 129.011 454.572 R 90.652 462.934 R 85.355 420.224 R 49.641 436.928 R 39.717 403.509 R 9.952 414.646 R 10.614 400.726 R 10.614 400.726 Z 1@e84d5186"/>
  <path style="stroke-linecap: round; fill: rgb(228, 215, 197);" d="M 482.514 400.498 C 482.514 400.498 432.312547962793 219.78003502144003 404.932 160.895 C 387.4502439831521 123.29846187785522 374.26651216454786 85.2234049486275 350.628 73.766 C 331.0045747467112 64.25467678130569 289.63969828294734 71.45920376310355 280.31 81.589 C 274.42244693144505 87.98145891020768 276.56819185302186 97.6449211967559 279.504 109.753 C 285.96436852217875 136.39733343338636 337.8954556665315 187.94690020692954 345.437 229.201 C 352.5763273413636 268.2548740571919 326.45733168792134 315.89022824101323 328.043 350.229 C 329.2360159571086 376.0646065665959 332.07690933266025 398.9593043042538 344.161 417.54 C 356.72851747711115 436.8640206749113 392.50978856756063 467.47938928316375 403.641 462.999 C 413.5565771881801 459.007911874512 404.70278607059254 406.77737185929595 412.688 404.288 C 420.0739858366309 401.9854361041029 440.4615389330565 443.4761947229765 447.601 441.221 C 454.93267774244754 438.90508836461237 447.3085178088835 392.59016674707664 455.365 388.19 C 461.3732640311339 384.9084978542368 482.514 400.498 482.514 400.498 C 482.51400000000007 400.498 482.514 400.498 482.514 400.498 C 482.514 400.498 482.514 400.49800000000005 482.514 400.498" bx:d="M 482.514 400.498 R 404.932 160.895 R 350.628 73.766 R 280.31 81.589 R 279.504 109.753 R 345.437 229.201 R 328.043 350.229 R 344.161 417.54 R 403.641 462.999 R 412.688 404.288 R 447.601 441.221 R 455.365 388.19 R 482.514 400.498 R 482.514 400.498 Z 1@651729b2"/>
  <path style="stroke-linecap: round; fill: rgb(0, 0, 1);" d="M 259.116 410.729 C 259.116 410.729 234.9188265187843 400.2088442147463 230.011 393.879 C 226.92961488768216 389.90479927143764 225.0133653830913 384.8418151995283 226.436 381.113 C 228.2610163394756 376.32951688694965 237.18208082743712 371.6494276467225 244.818 369.362 C 254.93530590660058 366.3312443413674 273.9523291463068 365.5474447629327 283.115 368.852 C 289.417186746659 371.1249097826594 295.83504464892405 375.73810693312276 296.908 380.602 C 298.05743554653475 385.81259108378237 293.3752000410944 394.6538078923623 288.221 399.495 C 281.9077994369597 405.4248080198753 259.116 410.729 259.116 410.729 C 259.11599999999993 410.7289999999999 259.116 410.729 259.116 410.729 C 259.116 410.729 259.11599999999993 410.7289999999999 259.116 410.729" bx:d="M 259.116 410.729 R 230.011 393.879 R 226.436 381.113 R 244.818 369.362 R 283.115 368.852 R 296.908 380.602 R 288.221 399.495 R 259.116 410.729 R 259.116 410.729 Z 1@80038274"/>
  <ellipse style="stroke-linecap: round; fill: rgb(0, 0, 1);" cx="287.849" cy="209.019" rx="13.976" ry="25.675"/>
  <ellipse style="stroke-linecap: round; fill: rgb(0, 0, 1);" cx="214.581" cy="207.221" rx="13.976" ry="25.675"/>
  <ellipse style="fill: rgb(255, 255, 255);" cx="284.906" cy="198.44" rx="5.846" ry="5.414"/>
  <ellipse style="fill: rgb(255, 255, 255);" cx="209.83" cy="195.251" rx="5.846" ry="5.414"/>
  <ellipse style="fill: rgb(255, 255, 255);" cx="261.462" cy="377.161" rx="16.962" ry="3.905"/>
</svg>