<?xml version="1.0" encoding="utf-8"?>
<svg viewBox="8.62 4.084 485.034 496.883" width="485.034" height="496.883" xmlns="http://www.w3.org/2000/svg" xmlns:bx="https://boxy-svg.com">
  <path style="stroke-linecap: round; fill: rgb(254, 200, 154);" d="M 367.97 142.11 C 367.97 142.11 395.89945749260875 146.28912597229785 406.474 139.543 C 419.71424470076204 131.09626496697535 425.06551212236303 100.73351158380974 435.565 86.499 C 443.8993544590449 75.19983317648894 462.4568041967226 68.31581611812965 462.085 59.117 C 461.6735592956205 48.93753614116087 441.519017333635 34.3725074105549 427.009 28.316 C 410.4357408200376 21.398291720781536 382.23155820427183 17.21510913334237 366.26 24.042 C 351.46495354497955 30.366002093204568 341.07998812145524 48.618961261758244 332.888 64.256 C 324.0805177828081 81.06790677704977 310.09894600607527 109.44654832127405 316.633 122.433 C 322.86666275179766 134.82242319469103 367.97 142.11 367.97 142.11 C 367.97 142.11 367.97 142.11 367.97 142.11 C 367.97 142.11 367.97 142.11 367.97 142.11" bx:d="M 367.97 142.11 R 406.474 139.543 R 435.565 86.499 R 462.085 59.117 R 427.009 28.316 R 366.26 24.042 R 332.888 64.256 R 316.633 122.433 R 367.97 142.11 R 367.97 142.11 Z 1@6021084f"/>
  <path style="stroke-linecap: round; fill: rgb(245, 133, 73);" d="M 313.21 80.509 C 313.21 80.509 335.1477538131545 22.197061466226884 351.709 12.062 C 363.9381297444179 4.578083618358067 380.5289839153119 10.78394566851534 394.495 10.353 C 407.88577017914713 9.939804542412443 420.99770997310554 4.335635645847779 433.851 9.496 C 451.16027327404464 16.445361339607263 475.04935236151425 45.489522077492246 484.335 59.974 C 489.7897061379064 68.48267636855083 495.80942363937925 80.05957183282342 492.891 83.076 C 488.6750065655994 87.43357207300558 457.9835415698016 74.24363135528027 444.116 66.822 C 432.03433551276584 60.35613440074398 425.79646852732213 47.14407029846557 413.315 42.862 C 398.8811172329357 37.910106674860934 375.17089445837473 34.585277592475705 361.129 42.869 C 344.37516373730125 52.75257584318249 333.6907623423983 108.28058284901978 325.189 107.887 C 319.7968434046956 107.63737406720286 313.21 80.509 313.21 80.509 C 313.21000000000004 80.509 313.21 80.509 313.21 80.509 C 313.21 80.509 313.21000000000004 80.509 313.21 80.509" bx:d="M 313.21 80.509 R 351.709 12.062 R 394.495 10.353 R 433.851 9.496 R 484.335 59.974 R 492.891 83.076 R 444.116 66.822 R 413.315 42.862 R 361.129 42.869 R 325.189 107.887 R 313.21 80.509 R 313.21 80.509 Z 1@db3f66cb"/>
  <path style="stroke-linecap: round; fill: rgb(254, 200, 154);" d="M 136.959 142.968 C 136.959 142.968 112.62597745663828 147.28173004668915 101.878 141.259 C 86.5499328026178 132.6697736790676 73.54418382061682 100.31109375837029 61.664 82.219 C 51.76361514163202 67.14190238887535 31.233128970510542 49.965682285325755 35.139 40.296 C 39.735011070337286 28.9177526143431 81.36125095396228 25.39980684385387 101.878 24.042 C 119.06197735019151 22.9047573501843 136.7214604790765 21.33006912182061 149.79 29.175 C 164.11564392483476 37.77455974390302 177.25763468466198 59.698913159326786 182.305 77.086 C 187.2146873318711 93.99881582896063 189.2817414653794 121.02160542062296 180.596 131.846 C 172.72136561418364 141.65957205946768 136.959 142.968 136.959 142.968 C 136.95899999999997 142.96800000000002 136.959 142.968 136.959 142.968 C 136.959 142.968 136.95900000000003 142.96800000000002 136.959 142.968" bx:d="M 136.959 142.968 R 101.878 141.259 R 61.664 82.219 R 35.139 40.296 R 101.878 24.042 R 149.79 29.175 R 182.305 77.086 R 180.596 131.846 R 136.959 142.968 R 136.959 142.968 Z 1@93d460f7"/>
  <path style="stroke-linecap: round; fill: rgb(245, 133, 73);" d="M 203.691 75.378 C 203.691 75.378 165.36386180230616 16.410081393083612 142.949 6.93 C 125.19947886199077 -0.5769347543009976 103.61789496081319 9.093461931266003 85.623 9.496 C 69.62541603452611 9.853859079916562 52.266258054947656 4.653995589974543 40.271 9.496 C 29.995753025628296 13.643704946079678 21.360793291904823 22.846636424144624 16.318 32.598 C 10.802603114341538 43.26324784657207 5.921602377333294 69.40901786547559 10.328 71.953 C 15.232028174633216 74.78428331390143 35.20045532124141 46.641344851901216 48.833 41.154 C 60.76864566368591 36.3496875748374 73.2270939959659 37.73178681393703 86.474 37.731 C 101.28594564785891 37.730120228884644 119.87330059380125 34.83520465858239 133.535 42.005 C 148.94774564499173 50.0937617739398 159.67171102284476 80.90996267643713 172.04 88.208 C 179.63044412741863 92.68682036445279 188.96290181790974 94.98758232991032 194.284 92.489 C 199.2243354264545 90.16920916398124 203.691 75.378 203.691 75.378 C 203.69100000000006 75.37800000000001 203.69099999999997 75.37799999999999 203.691 75.378" bx:d="M 203.691 75.378 R 142.949 6.93 R 85.623 9.496 R 40.271 9.496 R 16.318 32.598 R 10.328 71.953 R 48.833 41.154 R 86.474 37.731 R 133.535 42.005 R 172.04 88.208 R 194.284 92.489 R 203.691 75.378 Z 1@271b4801"/>
  <path style="fill: rgb(184, 74, 40);" d="M 255.702 375.313 C 255.702 375.313 301.003 360.209 319.38 368.742 C 342.089 379.286 356.337 419.435 374.456 449.498 C 383.108 463.853 397.582 482.144 410.692 500.435 L 99.989 500.435 C 112.306 482.979 125.855 465.528 134.038 451.601 C 151.784 421.398 165.633 380.679 188.682 369.577 C 207.723 360.406 255.702 375.313 255.702 375.313 Z"/>
  <path style="stroke-linecap: round; fill: rgb(242, 166, 90);" d="M 189.152 378.26 C 189.152 378.26 212.4288317760183 410.2559940578262 220.81 409.916 C 226.7453838605243 409.67522267760694 230.25518144603134 392.7915798727932 235.349 392.806 C 241.0310549768167 392.82208536988384 247.45651060398774 414.1584124864826 253.319 414.198 C 258.8505196603867 414.2353525808807 265.30788801483834 394.83884287775015 269.573 395.371 C 273.31391472085824 395.83775314021295 273.31177360969656 411.70114453159476 278.135 412.483 C 287.2919283401731 413.96735796232855 314.02677417838373 383.8525416683754 326.899 363.713 C 341.54879575074284 340.7923197661421 349.0883636884914 311.1300958679593 357.705 279.863 C 368.08818795084784 242.18563712458325 386.1995894483864 185.60587744631374 381.658 152.381 C 378.51840308480524 129.41267053657063 368.9311830082893 112.25174773386443 354.281 96.765 C 337.0823692482259 78.58428132434216 305.41644003588 61.38599285560379 279.844 54.841 C 256.2484610871332 48.80197386904988 229.93256546309877 48.35971394221446 207.116 55.7 C 182.6614595185032 63.56723675989681 151.7979765439378 83.1240155780148 138.667 103.611 C 126.91162102906344 121.95177344105045 126.77819848515671 143.93145488414493 126.688 169.493 C 126.56260924258856 205.02775978133636 136.84345588367506 259.99270616685965 148.939 296.974 C 159.06462131782047 327.93239042842526 189.152 378.26 189.152 378.26 C 189.152 378.26000000000005 189.152 378.26 189.152 378.26 C 189.152 378.26 189.152 378.26 189.152 378.26" bx:d="M 189.152 378.26 R 220.81 409.916 R 235.349 392.806 R 253.319 414.198 R 269.573 395.371 R 278.135 412.483 R 326.899 363.713 R 357.705 279.863 R 381.658 152.381 R 354.281 96.765 R 279.844 54.841 R 207.116 55.7 R 138.667 103.611 R 126.688 169.493 R 148.939 296.974 R 189.152 378.26 R 189.152 378.26 Z 1@32f7fa4c"/>
  <path style="stroke-linecap: round; fill: rgb(254, 200, 154);" d="M 251.61 350.025 C 251.61 350.025 264.9158297700426 365.21862157286574 272.996 371.412 C 281.3826205852947 377.84026989175914 295.4481412340011 381.2542163660765 301.231 387.673 C 305.38966177189377 392.28897822125685 304.46513831276883 402.3610810657939 308.077 403.07 C 312.8682211256738 404.0103979631795 325.31651564804827 381.3173910320121 329.471 382.54 C 332.7494270458437 383.50479706446833 331.0376891860527 399.9293683730264 333.745 400.503 C 336.73915770273567 401.13740944629893 342.68039826208184 382.8600150606742 347.434 382.54 C 351.83558235981343 382.24368307578186 357.40483829493223 397.24220541905686 361.129 396.229 C 366.75576947994904 394.6981660082563 373.78221959348315 367.4935032954282 372.251 353.449 C 370.6391046700213 338.66453056784417 360.90751982358177 321.29927438828884 350 309.812 C 338.8307252419372 298.04905792524295 321.2409690196422 290.27903316899665 305.512 284.144 C 289.8601669073683 278.03905344825966 272.3659757245146 273.1281855523194 255.884 273.021 C 239.56852909252692 272.91489726148137 223.71244657795708 276.59924428657024 207.116 283.287 C 187.07858517014097 291.36133897860617 156.3822027548043 303.2151031649552 145.515 321.791 C 134.5721415441479 340.4962192126019 137.92467726461499 394.00298633519316 142.091 395.371 C 144.17925531662416 396.05667943248477 148.9808633953462 379.7639876504863 152.356 379.974 C 156.41634041893775 380.2266480350544 159.33147240504587 403.04503684843195 164.335 403.927 C 168.91035557013274 404.73349000961804 175.67220876578924 388.0237434494544 180.596 388.53 C 185.6901664267234 389.0537742626412 187.6871890314181 407.64521004882755 194.284 408.208 C 206.4613237580922 409.2468770385976 251.61 350.025 251.61 350.025 C 251.61 350.02500000000003 251.61 350.025 251.61 350.025 C 251.61 350.025 251.61000000000004 350.02500000000003 251.61 350.025" bx:d="M 251.61 350.025 R 272.996 371.412 R 301.231 387.673 R 308.077 403.07 R 329.471 382.54 R 333.745 400.503 R 347.434 382.54 R 361.129 396.229 R 372.251 353.449 R 350 309.812 R 305.512 284.144 R 255.884 273.021 R 207.116 283.287 R 145.515 321.791 R 142.091 395.371 R 152.356 379.974 R 164.335 403.927 R 180.596 388.53 R 194.284 408.208 R 251.61 350.025 R 251.61 350.025 Z 1@0aac550b"/>
  <path style="stroke: rgb(0, 0, 0); stroke-linecap: round; fill: rgb(0, 0, 1);" d="M 201.126 152.381 C 201.126 152.381 180.59020911781033 150.53610501918675 173.748 154.947 C 166.89399362179853 159.36550019657764 158.91011843278105 171.281696879786 160.061 178.906 C 161.3813233709289 187.6528127767392 178.6332254239471 204.02182167387457 186.58 203.717 C 193.54030720430168 203.4500171540175 202.8387846765353 191.4230627661852 205.406 183.181 C 208.11824206910111 174.4733278517789 201.126 152.381 201.126 152.381 C 201.12600000000003 152.38099999999997 201.126 152.381 201.126 152.381 C 201.126 152.381 201.12600000000006 152.381 201.126 152.381" bx:d="M 201.126 152.381 R 173.748 154.947 R 160.061 178.906 R 186.58 203.717 R 205.406 183.181 R 201.126 152.381 R 201.126 152.381 Z 1@4dc5f65c"/>
  <path style="stroke: rgb(0, 0, 0); stroke-linecap: round; fill: rgb(0, 0, 1);" d="M 300.38 151.524 C 300.38 151.524 293.3686522005221 162.10113842211783 293.532 168.635 C 293.75658506318985 177.61833323150304 301.99806528183564 196.08216541785947 308.077 200.293 C 311.6463889759026 202.76549020324745 315.71670484110507 202.52322952604308 320.058 201.151 C 326.89617143008417 198.98953886983924 341.4786895642802 189.91084426503974 343.16 182.324 C 344.83174807250236 174.78030550611206 337.36878191535175 160.95239331404403 330.322 155.804 C 323.18226972128696 150.58769842112966 300.38 151.524 300.38 151.524 C 300.37999999999994 151.52399999999997 300.38 151.524 300.38 151.524 C 300.38 151.524 300.38 151.524 300.38 151.524" bx:d="M 300.38 151.524 R 293.532 168.635 R 308.077 200.293 R 320.058 201.151 R 343.16 182.324 R 330.322 155.804 R 300.38 151.524 R 300.38 151.524 Z 1@6a29fc5e"/>
  <path style="stroke: rgb(0, 0, 0); stroke-linecap: round; fill: rgb(0, 0, 1);" d="M 253.319 318.368 C 253.319 318.368 287.7723435392089 301.814683981211 289.257 293.558 C 290.2837967974572 287.84763070351914 283.667745437167 280.0305154178985 277.278 276.446 C 268.3094140338709 271.4148082274227 246.95725226428203 271.29747858181537 236.207 273.879 C 228.37137597691742 275.76061456523564 218.78087181841286 279.8253225819856 217.386 285.002 C 215.90898261471693 290.4835377610176 223.59034733762363 300.8768484103916 229.366 306.388 C 235.40303969613936 312.1485681752022 253.319 318.368 253.319 318.368 C 253.31899999999996 318.36799999999994 253.319 318.368 253.319 318.368 C 253.319 318.368 253.31899999999996 318.368 253.319 318.368" bx:d="M 253.319 318.368 R 289.257 293.558 R 277.278 276.446 R 236.207 273.879 R 217.386 285.002 R 229.366 306.388 R 253.319 318.368 R 253.319 318.368 Z 1@3b4170c1"/>
  <ellipse style="fill: rgb(255, 255, 255);" cx="178.434" cy="164.082" rx="5.396" ry="4.997"/>
  <ellipse style="fill: rgb(255, 255, 255);" cx="307.828" cy="164.328" rx="5.396" ry="4.997"/>
  <ellipse style="fill: rgb(255, 255, 255);" cx="252.907" cy="282.62" rx="17.987" ry="3.798"/>
  <path d="M 255.349 423.897 C 305.233 423.897 347.306 456.467 360.383 500.967 L 150.315 500.967 C 163.392 456.467 205.465 423.897 255.349 423.897 Z" style="fill: rgb(245, 133, 73);"/>
</svg>