<?xml version="1.0" encoding="utf-8"?>
<svg viewBox="50.269 2.039 403.797 498.457" width="403.797" height="498.457" xmlns="http://www.w3.org/2000/svg" xmlns:bx="https://boxy-svg.com">
  <path style="fill: rgb(242, 166, 90);" d="M 245.75 141.073 C 245.75 141.073 271.408 255.288 293.642 304.482 C 314.182 349.93 342.494 391.342 371.316 427.318 C 392.22 453.411 439.091 480.081 454.066 499.769 L 50.269 499.769 C 71.674 482.976 105.142 462.461 123.243 441.839 C 157.557 402.747 200.226 353.048 220.608 302.31 C 240.569 252.62 245.75 141.073 245.75 141.073 Z"/>
  <path style="fill: rgb(249, 220, 196);" d="M 98.736 500.496 C 98.736 500.496 179.798 499.323 221.763 499.082 C 265.73 498.829 320.663 499.713 356.812 499.082 C 381.076 498.659 415.989 503.4 417.619 496.96 C 419.936 487.805 340.905 434.075 311.561 434.74 C 290.24 435.223 276.759 469.257 257.116 470.092 C 235.177 471.024 209.961 429.762 185.704 431.912 C 157.335 434.426 98.736 500.496 98.736 500.496 C 98.736 500.496 98.736 500.496 98.736 500.496" bx:d="M 98.736 500.496 R 221.763 499.082 R 356.812 499.082 R 417.619 496.96 R 311.561 434.74 R 257.116 470.092 R 185.704 431.912 R 98.736 500.496 Z 1@d031d8d1"/>
  <path style="stroke-linecap: round; fill: rgb(253, 241, 232);" d="M 249.699 430.657 C 249.699 430.657 298.53153593598216 422.79109852614073 323.407 407.231 C 358.8366568888896 385.06904352273693 420.9069624592105 330.62827761831903 431.559 293.572 C 439.1386153809436 267.20405577141554 419.43477262250957 247.0948474869735 415.718 215.729 C 410.1784455579077 168.98069510661804 420.75547159926106 74.53999770313995 409.519 39.377 C 404.08498739706414 22.372002391281615 397.71997232387525 6.419316168982817 386.783 4.935 C 369.70963792814615 2.6178809078332725 336.4401166388604 63.80485494552851 311.011 71.065 C 291.3661879803589 76.6736960021436 271.5455351996297 61.11098549242664 251.769 61.423 C 231.82137597513022 61.737713776935735 210.87167616464626 78.99207057165367 191.837 73.129 C 168.097413012865 65.81672041911594 141.14858567505493 2.250004446693232 125.017 5.625 C 110.16931559471867 8.731382091266793 101.25509335070677 52.43448480383194 96.083 80.708 C 89.88020366899278 114.61590622514613 101.53453246495484 161.40363587509628 96.773 196.437 C 92.6702343707673 226.6234333102709 67.32217369989354 250.14216894129663 73.347 279.105 C 81.75672323776332 319.5326208563038 144.10180007280405 384.73523319501516 179.435 408.611 C 202.8692952712544 424.4462985375936 249.699 430.657 249.699 430.657 C 249.69899999999998 430.6569999999999 249.699 430.657 249.699 430.657 C 249.699 430.657 249.69899999999998 430.657 249.699 430.657" bx:d="M 249.699 430.657 R 323.407 407.231 R 431.559 293.572 R 415.718 215.729 R 409.519 39.377 R 386.783 4.935 R 311.011 71.065 R 251.769 61.423 R 191.837 73.129 R 125.017 5.625 R 96.083 80.708 R 96.773 196.437 R 73.347 279.105 R 179.435 408.611 R 249.699 430.657 R 249.699 430.657 Z 1@00669a4b"/>
  <path style="stroke-linecap: round; fill: rgb(0, 0, 1);" d="M 168.411 205.396 C 168.411 205.396 191.30558322308465 200.63695656933595 198.725 204.705 C 205.67152595340866 208.51375884458 212.75966691476847 221.06783478004675 212.503 227.435 C 212.3082600992686 232.2659347700394 207.99655960227233 237.95851732831386 203.544 239.839 C 198.00594413118196 242.17792839768546 186.70349372909106 239.7877247297934 180.125 236.394 C 173.65446161157126 233.05596745817653 165.7030234192662 225.61579871002007 164.277 219.863 C 163.12111242508834 215.1999710061974 168.411 205.396 168.411 205.396 C 168.41099999999997 205.39599999999996 168.411 205.396 168.411 205.396 C 168.411 205.396 168.41099999999997 205.39599999999996 168.411 205.396" bx:d="M 168.411 205.396 R 198.725 204.705 R 212.503 227.435 R 203.544 239.839 R 180.125 236.394 R 164.277 219.863 R 168.411 205.396 R 168.411 205.396 Z 1@ab95f4ca"/>
  <path style="stroke-linecap: round; fill: rgb(0, 0, 1);" d="M 297.918 235.014 C 297.918 235.014 294.0516210385451 220.9283268710867 296.544 215.729 C 299.1897281328514 210.20977295328555 307.4677166783681 205.0407739582392 314.455 203.326 C 322.3434755149789 201.39006127236658 338.50148679277976 202.25958520586698 342.009 206.77 C 344.7263166077518 210.26427765595227 342.5708495866902 218.17863500516185 339.939 223.307 C 336.69342458358176 229.63125782911024 327.71300341492423 237.51961453496543 321.343 240.528 C 316.39440350874554 242.86509227246745 310.2514322608134 243.86469998836645 306.187 242.593 C 302.70646612683754 241.50399307308322 297.918 235.014 297.918 235.014 C 297.91799999999995 235.014 297.918 235.014 297.918 235.014 C 297.918 235.014 297.91799999999995 235.01399999999998 297.918 235.014" bx:d="M 297.918 235.014 R 296.544 215.729 R 314.455 203.326 R 342.009 206.77 R 339.939 223.307 R 321.343 240.528 R 306.187 242.593 R 297.918 235.014 R 297.918 235.014 Z 1@0d7d3cb1"/>
  <path style="stroke: rgb(0, 0, 0); fill: none; stroke-linecap: round; stroke-width: 6px;" d="M 189.077 326.633 C 189.077 326.633 217.30442239790406 363.7158718856986 229.723 366.591 C 237.7747248606916 368.4551217422264 244.51620907693933 359.29334293980526 252.453 359.012 C 260.9927468936748 358.7092835092229 270.24505319834094 368.3866532801986 279.323 365.901 C 292.16688966841417 362.38418533008286 318.583 326.633 318.583 326.633" bx:d="M 189.077 326.633 R 229.723 366.591 R 252.453 359.012 R 279.323 365.901 R 318.583 326.633 1@d76f9caf"/>
  <path style="stroke-linecap: round; fill: rgb(0, 0, 1);" d="M 253.143 330.769 C 253.143 330.769 282.3575329122523 319.9816843504945 286.211 312.167 C 288.9723338915665 306.56712013660973 287.5087853129475 297.3555852079983 283.451 292.881 C 278.2577886289135 287.1543621936758 262.11964812799295 286.0384124323029 252.453 285.303 C 244.15563460964918 284.6717588931934 234.95075938892833 284.2900198586215 229.033 287.367 C 223.983971652358 289.99227739603907 218.02372891706847 295.3984051180048 218.011 300.46 C 217.99351832732356 307.4115061235672 231.74312338396402 320.31086273257404 238.676 325.26 C 243.4769727182622 328.68724590610594 253.143 330.769 253.143 330.769 C 253.14300000000003 330.76900000000006 253.143 330.769 253.143 330.769 C 253.143 330.769 253.14299999999997 330.769 253.143 330.769" bx:d="M 253.143 330.769 R 286.211 312.167 R 283.451 292.881 R 252.453 285.303 R 229.033 287.367 R 218.011 300.46 R 238.676 325.26 R 253.143 330.769 R 253.143 330.769 Z 1@d20b5e81"/>
  <path style="stroke-linecap: round; fill: rgb(242, 166, 90);" d="M 78.171 277.035 C 78.171 277.035 108.5268381436728 265.5668642405637 120.193 256.369 C 131.25063628091894 247.65091100158085 143.06710036733114 235.77617681474686 147.056 223.991 C 150.666597660523 213.32351378709066 141.54431339137028 199.78711683509908 145.683 189.549 C 150.29870830907504 178.13084602658446 165.1710791350465 164.2705971320851 176.681 159.931 C 186.79272614074742 156.1185656422253 200.82467893196053 156.38085038599303 209.742 161.305 C 219.2530406835762 166.55700191329802 226.88340870212176 179.23374311310113 231.098 192.303 C 236.7138556955271 209.7175143709538 230.5183773606108 245.78190825564099 232.477 259.123 C 233.3366066707635 264.9781817119273 232.4630279879894 268.89777155030487 235.922 271.527 C 241.96305005316864 276.1189136120997 268.08166068799613 278.79611015800856 275.189 271.527 C 284.0712076026753 262.44262360036754 271.08203888276216 229.14271247591864 273.809 210.215 C 276.2685119795841 193.14363976447163 278.078832237235 170.08999846375644 288.965 162.685 C 299.98156368325493 155.19130351027613 327.14424289123343 158.79008113841437 339.939 166.129 C 351.83084774552555 172.9500209054257 360.33162345576517 190.17625758133485 364.739 202.636 C 368.5605996159528 213.4397392231273 362.02574131066467 225.19917883103523 367.499 235.703 C 375.0759407533356 250.24403217082596 404.9374020369548 271.46686373591285 416.408 276.345 C 421.488218494365 278.50548005053344 426.37838612695003 280.3001202981052 428.805 277.725 C 434.68545866966645 271.4846629399497 418.66419374109967 233.0173514396226 416.396 205.533 C 413.4268964166924 169.55552379697127 421.9006867988126 115.78138809046253 417.092 80.018 C 413.3829312176654 52.432741931289264 407.5963662713272 18.17005588410127 396.968 8.105 C 391.42522368218323 2.8559944644641737 384.96483763127856 1.4989316513982407 377.141 3.704 C 360.39527391497506 8.423611053381352 329.5049843488846 62.16994861013366 310.208 68.329 C 299.15153841814123 71.85790969083921 291.6134835562343 64.6239762729425 280.007 63.766 C 264.4186535683263 62.61367584359348 240.91595826035604 62.08550267287883 224.911 63.897 C 212.27421888814987 65.32727522066293 202.6903054371715 75.07312438334718 191.415 71.494 C 174.57788956642042 66.14938979553791 154.50421719731662 25.973580980766624 140.168 14.577 C 131.97386979959896 8.06307327089776 124.39785708098654 0.11179001171391588 118.277 2.46 C 108.66894571151424 6.146040819071156 102.70900044242462 37.33135099921224 98.147 60.733 C 91.69442159376979 93.83272827017244 96.72987248087863 147.26982963234383 91.681 183.903 C 87.52771643393991 214.03803411640703 72.08892324762034 250.50930583982603 73.347 265.328 C 73.83701443435646 271.099805275842 78.171 277.035 78.171 277.035 C 78.171 277.035 78.171 277.035 78.171 277.035 C 78.171 277.035 78.171 277.0350000000001 78.171 277.035" bx:d="M 78.171 277.035 R 120.193 256.369 R 147.056 223.991 R 145.683 189.549 R 176.681 159.931 R 209.742 161.305 R 231.098 192.303 R 232.477 259.123 R 235.922 271.527 R 275.189 271.527 R 273.809 210.215 R 288.965 162.685 R 339.939 166.129 R 364.739 202.636 R 367.499 235.703 R 416.408 276.345 R 428.805 277.725 R 416.396 205.533 R 417.092 80.018 R 396.968 8.105 R 377.141 3.704 R 310.208 68.329 R 280.007 63.766 R 224.911 63.897 R 191.415 71.494 R 140.168 14.577 R 118.277 2.46 R 98.147 60.733 R 91.681 183.903 R 73.347 265.328 R 78.171 277.035 R 78.171 277.035 Z 1@2189f18f"/>
  <path style="stroke-linecap: round; fill: rgb(252, 213, 206);" d="M 117.439 166.129 C 117.439 166.129 168.48390414804538 122.5685312436474 169.791 99.999 C 171.05255405022038 78.21583581244549 137.288976268407 31.7313704161089 128.461 33.179 C 121.30478528925947 34.35249070828597 118.84851589736745 64.48710611362256 116.748 83.462 C 114.09001856866215 107.47272787633102 117.439 166.129 117.439 166.129 C 117.43899999999998 166.12899999999996 117.439 166.129 117.439 166.129 C 117.439 166.129 117.439 166.129 117.439 166.129" bx:d="M 117.439 166.129 R 169.791 99.999 R 128.461 33.179 R 116.748 83.462 R 117.439 166.129 R 117.439 166.129 Z 1@baea81d9"/>
  <path style="stroke-linecap: round; fill: rgb(252, 213, 206);" d="M 386.783 166.819 C 386.783 166.819 318.8370130939196 115.63255321318462 319.273 97.239 C 319.57110749764774 84.66234679146662 342.0579447543497 77.12005949414612 352.341 66.241 C 362.47382529066056 55.52087776516964 373.57481098934414 30.45699961134765 380.585 32.489 C 391.9005986073706 35.76898299804189 398.8526803272642 123.7489820435272 395.737 146.154 C 394.35621704818465 156.08328143452334 386.783 166.819 386.783 166.819 C 386.78299999999996 166.81899999999996 386.783 166.819 386.783 166.819 C 386.783 166.819 386.78299999999996 166.81899999999996 386.783 166.819" bx:d="M 386.783 166.819 R 319.273 97.239 R 352.341 66.241 R 380.585 32.489 R 395.737 146.154 R 386.783 166.819 R 386.783 166.819 Z 1@cc2a3826"/>
  <ellipse style="fill: rgb(255, 255, 255);" cx="180.236" cy="212.713" rx="5.846" ry="5.414"/>
  <ellipse style="fill: rgb(255, 255, 255);" cx="310.059" cy="214.37" rx="5.846" ry="5.414"/>
  <ellipse style="fill: rgb(255, 255, 255);" cx="253.566" cy="298.397" rx="22.158" ry="7.08"/>
</svg>