<?xml version="1.0" encoding="utf-8"?>
<svg viewBox="4.606 64.993 492.295 434.672" width="492.295" height="434.672" xmlns="http://www.w3.org/2000/svg" xmlns:bx="https://boxy-svg.com">
  <path style="fill: rgb(242, 166, 90);" d="M 244.904 156.188 C 244.904 156.188 265.897 278.755 292.796 319.597 C 314.854 353.089 355.148 361.524 381.032 392.582 C 403.54 419.59 444 465.759 456.368 499.665 L 30.763 499.665 C 40.637 471.746 62.917 438.747 80.573 416.397 C 112.43 376.071 192.492 361.537 219.762 317.425 C 246.418 274.306 244.904 156.188 244.904 156.188 Z"/>
  <path style="stroke-linecap: round; fill: rgb(249, 220, 196);" d="M 249.637 400.496 C 249.637 400.496 187.30207099690034 400.498900183386 161.847 388.808 C 136.7634134264859 377.2877136528127 109.77994837115727 355.6559184468132 97.69 331.54 C 85.29916309475749 306.8238967445494 88.97674585265764 262.71403902875716 89.81 241.552 C 90.2676459479701 229.9292298725605 94.45795053608003 223.71870528209257 94.314 214.678 C 94.16649678364162 205.41417130182083 87.94997597895757 197.1068437931975 88.689 186.626 C 89.67383618832493 172.65904634514877 95.00574261597427 153.37988149551398 105.57 138.704 C 118.81673702355323 120.30161394550355 140.29935717165844 99.44783478186568 168.599 89.62 C 210.0126195910082 75.23797357202493 297.3245854577164 70.04491902017669 339.675 88.449 C 373.32651755293716 103.07282979793156 403.8338336567853 142.4192082889514 412.833 167.92 C 419.0491021684902 185.53446789710497 408.614659217998 201.97155927194794 409.457 219.347 C 410.3323621495113 237.40359119135337 419.9108746164749 254.14708611413585 418.458 274.272 C 416.61570403180593 299.7910966183563 408.6994137326231 338.81509785707516 391.45 359.592 C 374.96745290471966 379.4452120205986 344.0230323632395 391.54800251278573 319.413 398.161 C 296.66500800103415 404.27364592049196 249.637 400.496 249.637 400.496 C 249.63699999999997 400.496 249.637 400.496 249.637 400.496 C 249.637 400.496 249.63700000000003 400.496 249.637 400.496" bx:d="M 249.637 400.496 R 161.847 388.808 R 97.69 331.54 R 89.81 241.552 R 94.314 214.678 R 88.689 186.626 R 105.57 138.704 R 168.599 89.62 R 339.675 88.449 R 412.833 167.92 R 409.457 219.347 R 418.458 274.272 R 391.45 359.592 R 319.413 398.161 R 249.637 400.496 R 249.637 400.496 Z 1@e87dcca2"/>
  <path style="stroke-linecap: round; fill: rgb(242, 166, 90);" d="M 438.721 238.826 C 438.721 238.826 491.6370996262722 186.37575552087924 496.12 162.292 C 499.48187479493953 144.23079767490765 491.50341769648685 125.48609446172199 481.488 110.517 C 470.2850748662766 93.77305085516022 449.1150421655722 75.46859717861743 428.593 68.878 C 407.02385375226913 61.951128236528035 366.5639419603571 65.03510408876234 354.307 72.253 C 348.41528472246085 75.72252671795852 344.958554731783 80.37119192709315 345.3 86.885 C 346.0668720530575 101.51474548213358 386.8704159123365 134.65720426568424 398.202 155.539 C 406.28884446656383 170.4414031397172 406.344060956745 183.65057365112543 412.833 197.186 C 419.6718578485814 211.45132998736008 438.721 238.826 438.721 238.826 C 438.721 238.82599999999996 438.721 238.826 438.721 238.826 C 438.721 238.826 438.721 238.82600000000002 438.721 238.826" bx:d="M 438.721 238.826 R 496.12 162.292 R 481.488 110.517 R 428.593 68.878 R 354.307 72.253 R 345.3 86.885 R 398.202 155.539 R 412.833 197.186 R 438.721 238.826 R 438.721 238.826 Z 1@76a4a176"/>
  <path style="stroke-linecap: round; fill: rgb(254, 200, 154);" d="M 190.791 245.521 C 190.791 245.521 135.261 257.545 122.334 246.603 C 109.775 235.973 119.775 198.295 112.665 182.707 C 107.652 171.716 93.422 168.451 91.829 158.253 C 89.756 144.98 100.08 119.505 112.812 108.034 C 126.742 95.485 153.075 91.157 175.204 89.306 C 199.431 87.28 229.145 91.698 252.676 99.02 C 274.48 105.805 310.434 115.905 312.183 129.895 C 314.376 147.432 255.357 178.633 233.502 199.938 C 216.672 216.344 190.791 245.521 190.791 245.521 C 190.791 245.521 190.791 245.521 190.791 245.521" bx:d="M 190.791 245.521 R 122.334 246.603 R 112.665 182.707 R 91.829 158.253 R 112.812 108.034 R 175.204 89.306 R 252.676 99.02 R 312.183 129.895 R 233.502 199.938 R 190.791 245.521 Z 1@a4372860"/>
  <ellipse style="stroke: rgb(0, 0, 0); stroke-linecap: round;" cx="327.439" cy="200.896" rx="24.907" ry="18.19"/>
  <path style="stroke-linecap: round; fill: rgb(242, 166, 90);" d="M 65.443 244.342 C 65.443 244.342 81.22330919629216 207.1774828182766 87.954 189.192 C 94.26192080325424 172.33622627117552 94.48757068230378 154.37431078128617 104.841 139.673 C 116.85785685505259 122.6097119029439 157.9950176429141 109.37232080907627 159.985 95.778 C 161.31608217449724 86.68487510925645 152.5108536140255 74.33146807334442 141.977 69.891 C 122.96796177808582 61.87788054512117 63.789808553356615 70.17004902381974 40.683 86.771 C 20.734626458917564 101.10279188053362 3.4348676095122537 130.56953622187993 4.668 154.304 C 6.137098426180012 182.5801718462939 65.443 244.342 65.443 244.342 C 65.44299999999998 244.34199999999996 65.443 244.342 65.443 244.342 C 65.443 244.342 65.443 244.34200000000004 65.443 244.342" bx:d="M 65.443 244.342 R 87.954 189.192 R 104.841 139.673 R 159.985 95.778 R 141.977 69.891 R 40.683 86.771 R 4.668 154.304 R 65.443 244.342 R 65.443 244.342 Z 1@df6384e8"/>
  <path style="stroke: rgb(0, 0, 0); fill: none; stroke-linecap: round; stroke-width: 7px;" d="M 160.172 340.267 C 160.172 340.267 174.26018850318874 354.88747236939656 182.683 357.146 C 191.13593548059035 359.41260520063275 202.3608940826911 358.8985201945779 210.819 353.77 C 222.25672688400232 346.8348050665065 229.1914873193678 317.0831112868514 240.082 311.003 C 247.44060368841838 306.89473341481096 256.28972336800746 306.20895149166967 263.714 309.876 C 274.8666931583864 315.38461300535226 282.51088873272835 347.0661669975226 294.105 353.77 C 302.36673629552496 358.54701991631293 312.7897699569558 358.6134511521944 321.12 356.025 C 330.1696934125651 353.2129901011473 345.88 335.763 345.88 335.763" bx:d="M 160.172 340.267 R 182.683 357.146 R 210.819 353.77 R 240.082 311.003 R 263.714 309.876 R 294.105 353.77 R 321.12 356.025 R 345.88 335.763 1@8c128c52"/>
  <path style="stroke: rgb(0, 0, 0); stroke-linecap: round;" d="M 251.465 288.173 C 251.465 288.173 229.4639297795636 277.2702930756487 224.457 270.166 C 220.67080310327782 264.79379515977746 217.3093908506402 256.07093317116335 219.953 252.159 C 223.4751223313269 246.94706949047284 242.398032201077 247.0517282915211 252.592 247.655 C 261.77815256322754 248.1986299251163 274.1281422656812 249.49021539491113 278.48 254.413 C 281.9519655805092 258.34045805414155 283.1653967414628 266.34472092610366 280.728 271.294 C 277.2950986628319 278.2647103738069 251.465 288.173 251.465 288.173 C 251.46500000000003 288.173 251.465 288.173 251.465 288.173 C 251.465 288.173 251.46500000000003 288.17300000000006 251.465 288.173" bx:d="M 251.465 288.173 R 224.457 270.166 R 219.953 252.159 R 252.592 247.655 R 278.48 254.413 R 280.728 271.294 R 251.465 288.173 R 251.465 288.173 Z 1@e696522f"/>
  <ellipse style="fill: rgb(255, 255, 255);" cx="317.954" cy="195.853" rx="5.846" ry="5.414"/>
  <ellipse style="stroke: rgb(0, 0, 0); stroke-linecap: round;" cx="174.39" cy="201.017" rx="24.907" ry="18.19"/>
  <ellipse style="fill: rgb(255, 255, 255);" cx="167.457" cy="196.36" rx="5.846" ry="5.414"/>
  <ellipse style="fill: rgb(255, 255, 255);" cx="252.375" cy="257.202" rx="16.962" ry="3.905"/>
</svg>