<?xml version="1.0" encoding="utf-8"?>
<svg viewBox="21.29 12.939 474.574 487.174" width="474.574" height="487.174" xmlns="http://www.w3.org/2000/svg" xmlns:bx="https://boxy-svg.com">
  <path style="fill: rgb(236, 210, 192);" d="M 254.809 399.883 C 254.809 399.883 300.11 384.779 318.487 393.312 C 341.196 403.856 355.444 444.005 373.563 474.068 C 378.229 481.81 384.59 490.698 391.516 500.113 L 117.061 500.113 C 123.249 491.515 128.914 483.372 133.145 476.171 C 150.891 445.968 164.74 405.249 187.789 394.147 C 206.83 384.976 254.809 399.883 254.809 399.883 Z"/>
  <path style="stroke-linecap: round; fill: rgb(208, 140, 96);" d="M 256.396 411.672 C 256.396 411.672 290.1977882676871 414.6176325426534 305.62 404.889 C 329.185300855389 390.0235477057088 356.42797933974435 348.39568517825035 369.411 307.986 C 386.5938568365881 254.50431392712215 380.2117512006767 152.7876890187874 377.446 104.931 C 375.92031267385926 78.53153793372326 381.3191517634029 58.77521677017464 367.899 43.834 C 349.27560746961694 23.099797459063286 290.1559732697153 12.275242688271213 252.882 12.97 C 217.25219158769588 13.634111382245818 169.10347900357834 20.72479585440099 148.912 45.068 C 126.96233106894374 71.5309090133674 135.22730264290928 129.4066687019567 134.345 172.827 C 133.43099810288535 217.80733129414173 132.19930962187283 270.6064504495271 144.395 310.453 C 154.9775768901123 345.02908067681216 173.83803684768574 384.7881524667063 196.124 400.563 C 213.24005475389592 412.67839085247823 256.396 411.672 256.396 411.672 C 256.396 411.672 256.396 411.672 256.396 411.672 C 256.396 411.672 256.396 411.67199999999997 256.396 411.672" bx:d="M 256.396 411.672 R 305.62 404.889 R 369.411 307.986 R 377.446 104.931 R 367.899 43.834 R 252.882 12.97 R 148.912 45.068 R 134.345 172.827 R 144.395 310.453 R 196.124 400.563 R 256.396 411.672 R 256.396 411.672 Z 1@41d84de5"/>
  <path style="stroke-linecap: round; fill: rgb(89, 61, 59);" d="M 143.893 52.468 C 143.893 52.468 133.10774354185943 46.78325287230982 126.812 49.385 C 112.15931275732554 55.44029540603104 90.55192968892456 101.26813732809121 73.07 126.53 C 56.26473000366055 150.8140710588621 29.84627002454839 175.28332340667208 23.852 198.126 C 19.267744076575585 215.5954625118629 20.872645056563858 233.0976762268736 28.368 248.74 C 37.40574661297018 267.6011960029135 67.83967306490926 283.3755128055959 81.608 299.963 C 92.44499461145064 313.018944283624 96.97502736197663 337.5984947204662 106.725 338.226 C 117.82961925133414 338.9406899243851 138.456287032761 312.56184291181194 145.4 293.178 C 154.1295667041938 268.808825974427 144.193286488904 228.97635572771665 143.386 199.36 C 142.6597081169392 172.71503682207552 140.75974198693794 148.32405888969058 140.877 123.447 C 140.99040356552214 99.38768751361137 143.893 52.468 143.893 52.468 C 143.893 52.46800000000002 143.89299999999997 52.467999999999996 143.893 52.468" bx:d="M 143.893 52.468 R 126.812 49.385 R 73.07 126.53 R 23.852 198.126 R 28.368 248.74 R 81.608 299.963 R 106.725 338.226 R 145.4 293.178 R 143.386 199.36 R 140.877 123.447 R 143.893 52.468 Z 1@c89e36ee"/>
  <path style="stroke-linecap: round; fill: rgb(89, 61, 59);" d="M 373.425 52.475 C 373.425 52.475 378.1050466285375 46.59339746530062 381.462 46.917 C 388.5148247970046 47.596875985321496 401.87380330663257 64.82897990482373 411.598 77.775 C 424.37436668717356 94.78443585276347 434.5736396736108 122.52493956138711 448.264 142.579 C 461.46505769072496 161.91631490420434 485.5934226597576 177.2093956918792 491.963 196.275 C 497.5099675530167 212.8783447474829 497.4020917426392 232.00328289575828 489.955 248.74 C 480.33530006514655 270.35947267488325 441.5434835399891 291.5659032901509 427.168 309.836 C 417.5219328680092 322.0953844499858 414.97636339709356 343.56950783077406 407.082 343.784 C 396.86693687652337 344.06154626154427 377.1941450204189 311.59435230472957 370.414 288.853 C 361.64480700193684 259.4401619564863 370.9430955497308 216.40519620268623 371.419 178.378 C 371.9270709617762 137.78053524120952 373.425 52.475 373.425 52.475 C 373.425 52.47500000000001 373.42500000000007 52.475000000000016 373.425 52.475" bx:d="M 373.425 52.475 R 381.462 46.917 R 411.598 77.775 R 448.264 142.579 R 491.963 196.275 R 489.955 248.74 R 427.168 309.836 R 407.082 343.784 R 370.414 288.853 R 371.419 178.378 R 373.425 52.475 Z 1@af727f94"/>
  <path style="stroke-linecap: round; stroke-linejoin: round; fill: rgb(0, 0, 1);" d="M 205.598 190.701 C 205.598 190.701 167.77133435852852 192.52360620415055 164.519 185.796 C 161.23080137871003 178.9942068857526 177.51692864719078 151.2030578758363 186.671 149.774 C 196.06279882486137 148.3078300782614 220.55937608021736 171.2830738139748 220.436 178.78 C 220.35532356663006 183.68228952695694 205.598 190.701 205.598 190.701 C 205.59799999999998 190.70099999999996 205.59800000000004 190.70100000000002 205.598 190.701" bx:d="M 205.598 190.701 R 164.519 185.796 R 186.671 149.774 R 220.436 178.78 R 205.598 190.701 Z 1@5c288277"/>
  <path style="fill: rgb(236, 210, 192);" d="M 228.127 194.654 C 228.127 194.654 220.714 206.311 213.986 213.744 C 202.227 226.737 168.843 242.098 160.249 262.531 C 151.472 283.399 155.652 316.661 163.078 338.186 C 169.703 357.388 181.69 377.508 198.431 386.974 C 217.048 397.501 249.821 397.482 272.672 393.337 C 294.143 389.442 318.425 380.669 332.065 365.055 C 346.556 348.468 358.019 316.464 354.691 294.349 C 351.308 271.871 325.911 250.595 310.853 231.42 C 297.084 213.887 277.142 196.826 268.43 183.34 C 263.094 175.081 263.89 164.365 258.531 161.421 C 253.644 158.736 242.57 160.649 238.733 164.25 C 235.161 167.603 237.068 176.013 235.197 181.219 C 233.447 186.092 228.127 194.654 228.127 194.654 C 228.127 194.654 228.127 194.654 228.127 194.654" bx:d="M 228.127 194.654 R 213.986 213.744 R 160.249 262.531 R 163.078 338.186 R 198.431 386.974 R 272.672 393.337 R 332.065 365.055 R 354.691 294.349 R 310.853 231.42 R 268.43 183.34 R 258.531 161.421 R 238.733 164.25 R 235.197 181.219 R 228.127 194.654 Z 1@c03a5702"/>
  <path style="stroke-linecap: round; fill: rgb(0, 0, 1);" d="M 267.837 307.237 C 267.837 307.237 291.85977454067853 290.75794591187883 292.452 282.548 C 292.9724716147804 275.3327684716049 284.73094329103657 264.90352000751386 276.374 260.948 C 264.6723018413318 255.40933597219137 233.6842682777784 256.92477249961166 223.637 263.416 C 217.12726577623215 267.62173678787894 212.58510896168787 276.62295530433875 213.593 283.172 C 214.83602045714284 291.2488617062839 229.29161325919634 303.0516854052442 237.198 307.237 C 242.87074381376078 310.2399162820375 248.9217955735971 310.4412791114566 254.275 310.321 C 259.06747083347324 310.2133197980842 267.837 307.237 267.837 307.237 C 267.837 307.237 267.837 307.2370000000001 267.837 307.237" bx:d="M 267.837 307.237 R 292.452 282.548 R 276.374 260.948 R 223.637 263.416 R 213.593 283.172 R 237.198 307.237 R 254.275 310.321 R 267.837 307.237 Z 1@3624c719"/>
  <path style="stroke: rgb(0, 0, 0); fill: rgba(216, 216, 216, 0); stroke-linecap: round; stroke-width: 7px;" d="M 192.509 337.983 C 192.509 337.983 204.97710474439438 351.93330127827164 213.205 352.547 C 224.10071362343396 353.3596848137091 240.24917371000075 332.20066121737045 252.885 332.674 C 264.9035212076524 333.1242144985911 275.8797036100745 352.0103873745031 287.337 353.288 C 297.6389228174696 354.4367759599261 318.178 343.167 318.178 343.167" bx:d="M 192.509 337.983 R 213.205 352.547 R 252.885 332.674 R 287.337 353.288 R 318.178 343.167 1@e0fa5b63"/>
  <path style="stroke-linecap: round; stroke-linejoin: round; fill: rgb(0, 0, 1);" d="M 334.399 189.778 C 334.399 189.778 296.5733950164497 191.60137733012806 293.321 184.874 C 290.03271624476116 178.0723890400342 306.3179837555807 150.28129224928193 315.472 148.852 C 324.8638117346818 147.38557877453195 349.36137761029784 170.36025988187026 349.238 177.857 C 349.1573210108235 182.75926235853728 334.399 189.778 334.399 189.778 C 334.399 189.778 334.399 189.77800000000002 334.399 189.778" bx:d="M 334.399 189.778 R 293.321 184.874 R 315.472 148.852 R 349.238 177.857 R 334.399 189.778 Z 1@94f48b0d"/>
  <ellipse style="fill: rgb(255, 255, 255);" cx="313.854" cy="161.357" rx="5.18" ry="5.894"/>
  <ellipse style="fill: rgb(255, 255, 255);" cx="183.969" cy="162.536" rx="5.18" ry="5.894"/>
  <ellipse style="fill: rgb(255, 255, 255);" cx="254.703" cy="270.033" rx="17.266" ry="4.48"/>
</svg>