<?xml version="1.0" encoding="utf-8"?>
<svg viewBox="21.335 37.579 440.383 462.741" width="440.383" height="462.741" xmlns="http://www.w3.org/2000/svg" xmlns:bx="https://boxy-svg.com">
  <path style="stroke-linecap: round; fill: rgb(89, 61, 59);" d="M 263.911 309.351 C 273.066 309.746 281.977 332.742 292.269 336.693 C 300.892 340.003 313.837 331.94 319.906 335.751 C 325.273 339.121 323.068 351.44 328.63 355.54 C 335.494 360.599 355.726 353.49 361.348 359.311 C 366.479 364.624 358.981 381.229 363.536 386.655 C 367.664 391.573 380.1 387.305 385.347 392.319 C 391.842 398.526 390.734 415.81 395.53 425.313 C 399.767 433.708 409.822 438.992 411.523 446.998 C 413.226 455.017 403.734 466.811 405.708 473.394 C 407.237 478.495 415.274 479.45 417.343 484.708 C 418.782 488.364 419.052 494.458 418.611 500.32 L 72.845 500.32 C 75.194 494.287 78.187 487.817 79.211 481.883 C 80.982 471.621 79.494 459.393 80.664 450.768 C 81.514 444.502 81.526 437.982 84.301 434.735 C 86.485 432.181 91.443 433.925 93.755 430.967 C 97.877 425.693 93.154 403.816 98.115 398.915 C 101.537 395.534 109.362 399.996 113.388 397.027 C 118.5 393.257 119.885 381.394 123.571 374.397 C 126.96 367.965 129.599 358.843 134.477 356.485 C 138.656 354.465 145.184 360.399 149.749 358.376 C 155.742 355.72 158.039 340.79 165.013 336.693 C 172.058 332.554 185.932 337.857 191.921 333.86 C 196.839 330.578 196.082 321.589 200.647 317.838 C 205.671 313.71 215.263 309.823 221.737 311.23 C 228.678 312.739 240.641 328.205 240.641 328.205 C 240.641 328.205 255.928 309.007 263.911 309.351 Z"/>
  <path style="stroke-linecap: round; fill: rgb(111, 84, 82);" d="M 230.358 363.923 C 230.358 363.923 222.9832129103959 379.09889895104146 218.751 378.985 C 213.20585561705516 378.83576692927255 206.23305393208847 352.4535206956764 200.245 352.094 C 195.38467758262533 351.80218791605364 191.01935096719728 368.4094723678821 186.021 368.224 C 179.8867720785215 367.9963789735471 173.39068977026704 345.2422502711123 166.457 342.409 C 161.77532816188526 340.4959712311795 155.74096897181542 346.843116759581 151.848 344.564 C 146.3046352104481 341.3186683038557 141.99197099588525 325.417014061874 141.159 316.595 C 140.44735936167984 309.0579984125814 146.28005575956203 301.2666159840255 145.002 295.081 C 143.88257137563824 289.66311776753713 138.28562051852523 286.46583581667824 135.754 281.096 C 132.82174514576374 274.87637623542463 128.94055658924552 266.80359130050545 129.175 259.587 C 129.41790198856236 252.1100384087424 138.0904534083702 243.9471606792001 137.721 237.005 C 137.3908089484537 230.8005929415274 130.29750655494655 226.82858457439454 129.019 219.794 C 127.25315737711716 210.07800032234522 129.53790564882289 190.8697138419418 133.005 183.22 C 134.95847517604076 178.90989921229706 139.63093854964242 178.6443330470516 140.902 174.615 C 142.79985534883733 168.5986966391808 136.79978391370224 157.4184177645873 137.491 148.801 C 138.2085927917008 139.8547428258316 141.51308581208946 123.13920179443768 145.555 121.921 C 148.35359048991884 121.07752638868173 153.25041766599108 131.44717059000766 155.898 130.525 C 159.9734032974893 129.10550984285192 156.75114072444498 103.25890146788716 162.437 99.325 C 167.05906019505215 96.12711406846618 178.45958012776902 105.4103538186953 183.254 102.55 C 188.36821730707547 99.4988548367116 186.5626104150326 83.04549891911874 191.276 79.963 C 195.02230150099848 77.51296481420694 202.19052148105823 78.69688605596208 206.38 81.04 C 211.0153115788541 83.63246184131697 210.95863622826965 92.83437554690816 217.182 96.104 C 228.07629511515276 101.82763355481607 262.53587639137817 103.02237899701719 273.976 97.171 C 281.1344191692267 93.50962141602291 281.19193707544264 80.55840712408491 286.652 78.896 C 291.91137067481094 77.29469697495881 302.43959813332873 81.9534570248527 305.867 86.421 C 309.00671735876585 90.51355254439281 305.403532576988 102.70680434965705 307.79 103.631 C 309.9871495937279 104.48187945391402 315.152126378423 93.71507811500301 318.82 93.946 C 322.957522333372 94.20649001547349 328.83516822089626 102.61068814112086 331.199 107.933 C 333.4750963546303 113.05777018343205 330.0323769062118 122.17188001449777 333.125 125.143 C 336.0170060858424 127.92138482713902 344.64944729145475 123.16673473803552 348.23 126.223 C 353.15987085071214 130.43100760481596 354.4940736865278 145.6915077379787 354.748 154.181 C 354.9580592258775 161.20388844456423 350.336932391083 166.70037076813568 351.439 173.546 C 352.83815785866085 182.23704205562618 365.32146048087674 192.99689100232482 366.299 201.508 C 367.05463539051397 208.0870641149056 363.44679348381027 214.44688874120283 361.439 219.794 C 359.7624069028473 224.25906570446378 356.6076849602875 226.507836180208 355.598 231.624 C 353.99101083600544 239.76675753625867 359.6182185406909 255.689419031243 357.9 264.965 C 356.5651460376856 272.17103678501445 351.1676286234375 275.90028037897804 349.395 283.255 C 347.00756016942245 293.1606002671934 349.8031255608702 308.78818400619406 348.014 319.818 C 346.4802255511198 329.2735968106126 345.4419072896371 341.6386283601536 340.483 345.632 C 336.6960068434061 348.68163779085705 328.8063753074174 344.1261394605112 324.838 346.713 C 320.55975870985657 349.5018525440621 321.2209406247551 359.9020188506301 316.35 362.843 C 310.46855740185885 366.39410298908723 293.602758127796 366.38008604596394 289.776 362.843 C 287.21900289671476 360.4795585512431 290.0202068806479 351.2579212888136 288.844 351.015 C 287.43465902333537 350.72392966869864 284.51310111802 361.94377461658803 280.888 366.077 C 277.29626848707585 370.1721784174581 270.53224353956097 376.7511588969804 267.247 375.749 C 263.9107932072124 374.731294834676 263.7749963098239 359.76978153059684 261.142 359.621 C 257.72634369675336 359.42799305544276 253.06385027075805 384.1329610039963 247.876 385.432 C 244.13217466803943 386.36945479276 238.37935848395045 380.5280309148077 235.448 376.832 C 232.63918079619967 373.29047388908884 230.358 363.923 230.358 363.923 C 230.358 363.923 230.358 363.923 230.358 363.923 C 230.358 363.923 230.35800000000006 363.92300000000006 230.358 363.923" bx:d="M 230.358 363.923 R 218.751 378.985 R 200.245 352.094 R 186.021 368.224 R 166.457 342.409 R 151.848 344.564 R 141.159 316.595 R 145.002 295.081 R 135.754 281.096 R 129.175 259.587 R 137.721 237.005 R 129.019 219.794 R 133.005 183.22 R 140.902 174.615 R 137.491 148.801 R 145.555 121.921 R 155.898 130.525 R 162.437 99.325 R 183.254 102.55 R 191.276 79.963 R 206.38 81.04 R 217.182 96.104 R 273.976 97.171 R 286.652 78.896 R 305.867 86.421 R 307.79 103.631 R 318.82 93.946 R 331.199 107.933 R 333.125 125.143 R 348.23 126.223 R 354.748 154.181 R 351.439 173.546 R 366.299 201.508 R 361.439 219.794 R 355.598 231.624 R 357.9 264.965 R 349.395 283.255 R 348.014 319.818 R 340.483 345.632 R 324.838 346.713 R 316.35 362.843 R 289.776 362.843 R 288.844 351.015 R 280.888 366.077 R 267.247 375.749 R 261.142 359.621 R 247.876 385.432 R 235.448 376.832 R 230.358 363.923 R 230.358 363.923 Z 1@50a3043c"/>
  <path style="stroke-linecap: round; fill: rgb(89, 61, 59);" d="M 148.761 103.644 C 148.761 103.644 137.71333460720768 98.5023513241918 130.967 101.03 C 116.20689533161485 106.56016729706441 93.20014783804584 145.00827286452784 74.983 166.431 C 57.48205399652908 187.0114988891833 29.737091158421926 207.3712378741711 23.71 227.127 C 19.267607533434425 241.68839396803526 21.180763112294294 257.0370650274138 28.415 270.035 C 37.656339662255924 286.63914689954663 69.43021849423573 299.2210877449115 83.877 313.46 C 94.98923639925906 324.412346651309 99.96747660646798 345.22521569471166 110.042 345.898 C 121.66930721562655 346.6744803854107 143.27859727223094 324.72304835537994 150.33 307.708 C 158.77182121708154 287.3378691534872 149.07297904411382 253.27957057488084 148.232 228.173 C 147.47533436611832 205.58352018881587 145.49579097346077 184.90581721126833 145.618 163.817 C 145.73620243711574 143.41957387812707 148.761 103.644 148.761 103.644 C 148.76100000000002 103.644 148.76099999999997 103.64399999999998 148.761 103.644" bx:d="M 148.761 103.644 R 130.967 101.03 R 74.983 166.431 R 23.71 227.127 R 28.415 270.035 R 83.877 313.46 R 110.042 345.898 R 150.33 307.708 R 148.232 228.173 R 145.618 163.817 R 148.761 103.644 Z 1@adb6126e"/>
  <ellipse style="stroke-linecap: round;" cx="291.298" cy="171.543" rx="18.113" ry="23.109"/>
  <ellipse style="stroke-linecap: round;" cx="201.992" cy="172.169" rx="18.113" ry="23.109"/>
  <path style="stroke-linecap: round;" d="M 246.958 287.703 C 246.958 287.703 218.62545847520036 272.66250636976105 217.607 264.6 C 216.74541735176902 257.779382607552 226.40401718852186 246.8543430098376 233.841 243.362 C 241.88259786395844 239.5857349742456 258.08439297950986 240.69390963853934 265.071 244.615 C 270.3750722097064 247.5918020953484 274.89798562928183 254.45409885263706 275.064 259.603 C 275.2333562166993 264.8555478047679 270.0689721933164 271.27668943310886 265.691 275.838 C 260.9295456247881 280.79885201011115 246.958 287.703 246.958 287.703 C 246.95800000000003 287.703 246.958 287.703 246.958 287.703 C 246.958 287.703 246.958 287.70300000000003 246.958 287.703" bx:d="M 246.958 287.703 R 217.607 264.6 R 233.841 243.362 R 265.071 244.615 R 275.064 259.603 R 265.691 275.838 R 246.958 287.703 R 246.958 287.703 Z 1@7376e157"/>
  <path style="stroke: rgb(0, 0, 0); fill: none; stroke-linecap: round; stroke-width: 7px;" d="M 185.131 303.944 C 185.131 303.944 192.48152044910807 316.16434971248003 196.996 317.054 C 201.2796131774632 317.89815438191573 206.76961538807063 310.0559854620292 211.358 310.186 C 215.69980713027488 310.30902762208143 219.7318184975484 316.7817426615694 223.849 317.054 C 227.63667564795784 317.3044680665977 231.55173692710878 314.92396494636307 235.094 312.684 C 239.10409698902322 310.14819830992485 242.40945711493995 301.8938735657275 246.332 302.065 C 251.07068330816765 302.27173170477295 256.24987519571556 317.70936667640024 261.321 318.932 C 265.02933865095684 319.82606957723124 269.18302997945017 315.7772294928327 272.566 314.556 C 275.3031870025276 313.56789384636 277.5046952799498 311.8756950353335 280.06 312.058 C 282.90242721575805 312.2607893538762 285.5256265501087 316.12903843451403 288.8 316.434 C 292.66841039876175 316.7942877036485 298.93146266056425 314.81194826403623 301.917 312.684 C 304.1482259803413 311.0936888058225 306.287 306.442 306.287 306.442" bx:d="M 185.131 303.944 R 196.996 317.054 R 211.358 310.186 R 223.849 317.054 R 235.094 312.684 R 246.332 302.065 R 261.321 318.932 R 272.566 314.556 R 280.06 312.058 R 288.8 316.434 R 301.917 312.684 R 306.287 306.442 1@12eb1958"/>
  <ellipse style="fill: rgb(255, 255, 255);" cx="285.279" cy="163.467" rx="5.846" ry="5.414"/>
  <ellipse style="fill: rgb(255, 255, 255);" cx="196.804" cy="163.415" rx="5.846" ry="5.414"/>
  <ellipse style="fill: rgb(255, 255, 255);" cx="247.36" cy="254.636" rx="16.962" ry="3.905"/>
  <path style="stroke-linecap: round; fill: rgb(89, 61, 59);" d="M 334.558 102.625 C 334.558 102.625 339.3938002817586 97.59016546279139 342.93 97.913 C 350.2231411235911 98.5788215109532 364.0842505153632 112.90039089691356 374.323 124.073 C 387.424710607991 138.36969623468056 398.4057464110263 162.13350865656597 412.52 179.011 C 426.36441432714264 195.56582392237902 451.61012534527214 207.9106570282689 458.042 224.533 C 463.3910552769004 238.35693721277326 463.0766468538497 255.11850863434282 455.95 269.01 C 446.1946622178712 288.02542104563645 405.61727317366854 305.097882577243 390.543 320.805 C 380.6985284990682 331.06275956483415 377.8148188900707 349.3459951389224 369.618 349.585 C 358.9537800470575 349.895949948088 338.3626262743903 322.77274771765167 331.421 303.017 C 322.764539346125 278.380863445565 331.9712090149444 241.59771783733393 332.467 209.36 C 332.99630994195786 174.94278574705913 334.558 102.625 334.558 102.625 C 334.558 102.62499999999999 334.558 102.625 334.558 102.625" bx:d="M 334.558 102.625 R 342.93 97.913 R 374.323 124.073 R 412.52 179.011 R 458.042 224.533 R 455.95 269.01 R 390.543 320.805 R 369.618 349.585 R 331.421 303.017 R 332.467 209.36 R 334.558 102.625 Z 1@6275f889"/>
  <path style="stroke-linecap: round; fill: rgb(89, 61, 59);" d="M 240.704 45.529 C 240.704 45.529 251.84231680396576 37.37546961847927 257.75 37.583 C 264.3895986563828 37.81624176273174 271.39929704593595 47.33667626971138 278.524 49.106 C 285.1018271343172 50.739514508256825 294.2242706185663 46.5211153951735 298.769 48.709 C 302.04278485752116 50.285037402478956 301.77425788280465 55.23624553587654 305.16 57.049 C 310.2791066241486 59.78981222492399 325.3961496423576 55.166288485648955 329.127 58.638 C 331.7235971638671 61.05424171643943 328.36525568620976 67.77410007372691 330.729 70.162 C 333.51434146244503 72.97580546703583 342.79421939628463 69.79480079421194 346.707 72.549 C 350.57403292808397 75.27099749946929 350.899842585624 82.57808460690346 354.167 86.454 C 357.3373909665981 90.21511879259377 364.87497969480205 91.96885697139632 365.883 95.593 C 366.7855861088882 98.8380746650384 360.65006555130975 104.03464239803735 361.622 106.718 C 362.50204156115916 109.14765584393254 368.7899617074952 108.92737441088202 370.146 111.486 C 371.671577136073 114.36451804783447 370.65499599197926 121.32638885132013 369.083 123.802 C 368.0301778884703 125.46000559936442 365.26415244118795 124.98211155748284 364.286 126.583 C 362.9498228669386 128.7698478157411 364.5206068662029 133.72141898864004 363.753 136.916 C 363.0315129243015 139.91864238563804 362.6287471921509 143.505510687929 360.025 145.262 C 355.9987915577988 147.9780824669211 344.1419321915318 147.98012937865604 338.183 146.054 C 333.1608296302905 144.43066387487005 330.40357490656373 137.57186089919583 325.933 136.517 C 321.6683832386219 135.5107362496649 316.8819559499444 139.84302653211597 312.082 139.297 C 306.47345515923644 138.6589911679284 300.1413625616195 132.39710554437937 294.507 131.351 C 289.72786083010334 130.46367975244522 285.1570315189311 133.22251474259357 280.653 132.148 C 275.72277593550746 130.97180964268998 271.6392538938379 125.71799469419486 266.272 123.802 C 260.3907151297563 121.70250725579194 253.3222445818054 121.22687573674003 246.562 120.623 C 239.49144412286802 119.99140493153811 230.1436718887206 118.16509561640422 224.726 120.224 C 220.65747027814544 121.77018327783126 219.22941886062705 126.65290019439156 215.669 128.571 C 211.98702048679348 130.55458801730754 206.82107687081873 131.8993707087253 202.886 131.749 C 199.44006781034358 131.61732092927573 196.0067459578374 127.76141536730003 193.298 128.571 C 190.45165045340872 129.42171132106182 189.70402270296756 135.65517136243085 186.373 137.314 C 182.25443617705093 139.36501922874245 173.4005097214467 137.8125280803719 169.327 137.709 C 167.04656876839073 137.65104293496947 165.90347750272227 136.66083358360294 163.998 137.314 C 160.95420001635645 138.35736468140163 158.01654406199944 144.56845522711419 153.878 146.452 C 149.30734585610813 148.53220782005081 142.47000457383038 149.47641609199073 137.366 148.439 C 132.36459009617616 147.42243682067374 126.42582463820102 144.00556451237492 123.514 140.493 C 121.05797637109866 137.53027301182422 121.29687091194522 132.7913684473006 119.786 129.761 C 118.5459923547318 127.27390463472199 115.65731839805039 125.95044700489423 115.524 123.405 C 115.33842861452727 119.86188716446271 121.13627768730923 114.80418148228604 122.45 110.295 C 123.68748412929423 106.04749619608923 122.67714898187609 100.78440540393812 123.514 97.182 C 124.13579663231327 94.50534250674912 124.56298363736632 91.81404508113518 126.178 90.425 C 127.77541278988406 89.051095419422 131.44051168296946 90.48921059435362 133.104 88.837 C 135.4289735536704 86.52778874937754 133.60931603887187 77.61589742794433 136.298 75.329 C 138.7148108233381 73.27334803955134 144.41109615261996 76.16869208069546 147.485 74.533 C 150.67891285790324 72.83344847611079 152.3003082946656 67.8994869829919 154.945 64.996 C 157.46487262343953 62.229546221589096 159.76006340078084 58.580645417161875 162.935 57.447 C 166.14200851391755 56.301902959165936 170.6010886873751 59.36025116272848 174.122 58.244 C 178.11726887228306 56.97736101704475 180.70483677813345 50.90479963763852 185.304 49.106 C 190.6821559269388 47.00252498381765 200.49973243194998 50.01919993742804 205.015 47.912 C 208.11326946754411 46.466089402289064 208.4793697960053 42.74256314506815 211.407 41.16 C 215.21109157352493 39.10365589051845 221.96540320427286 37.639631731834186 226.856 38.375 C 231.72923357013664 39.107757469184506 240.704 45.529 240.704 45.529 C 240.70399999999998 45.529 240.704 45.529 240.704 45.529 C 240.704 45.529 240.70399999999998 45.528999999999996 240.704 45.529" bx:d="M 240.704 45.529 R 257.75 37.583 R 278.524 49.106 R 298.769 48.709 R 305.16 57.049 R 329.127 58.638 R 330.729 70.162 R 346.707 72.549 R 354.167 86.454 R 365.883 95.593 R 361.622 106.718 R 370.146 111.486 R 369.083 123.802 R 364.286 126.583 R 363.753 136.916 R 360.025 145.262 R 338.183 146.054 R 325.933 136.517 R 312.082 139.297 R 294.507 131.351 R 280.653 132.148 R 266.272 123.802 R 246.562 120.623 R 224.726 120.224 R 215.669 128.571 R 202.886 131.749 R 193.298 128.571 R 186.373 137.314 R 169.327 137.709 R 163.998 137.314 R 153.878 146.452 R 137.366 148.439 R 123.514 140.493 R 119.786 129.761 R 115.524 123.405 R 122.45 110.295 R 123.514 97.182 R 126.178 90.425 R 133.104 88.837 R 136.298 75.329 R 147.485 74.533 R 154.945 64.996 R 162.935 57.447 R 174.122 58.244 R 185.304 49.106 R 205.015 47.912 R 211.407 41.16 R 226.856 38.375 R 240.704 45.529 R 240.704 45.529 Z 1@c422a4c1"/>
</svg>