<?xml version="1.0" encoding="utf-8"?>
<svg viewBox="89.413 1.132 319.25 498.548" width="319.25" height="498.548" xmlns="http://www.w3.org/2000/svg" xmlns:bx="https://boxy-svg.com">
  <path style="fill: rgb(60, 59, 54);" d="M 250.29 394.214 C 250.29 394.214 299.368 377.85 319.278 387.095 C 343.88 398.519 359.316 442.014 378.946 474.584 C 383.468 482.087 389.459 490.583 396.043 499.593 L 103.356 499.593 C 109.158 491.461 114.428 483.763 118.482 476.863 C 137.707 444.141 152.712 400.027 177.682 388 C 198.311 378.064 250.29 394.214 250.29 394.214 Z"/>
  <path style="fill: rgb(242, 166, 90);" d="M 251.165 430.808 C 251.165 430.808 283.241 420.113 296.253 426.155 C 312.332 433.622 322.421 462.049 335.25 483.335 C 338.206 488.239 342.121 493.792 346.424 499.68 L 155.134 499.68 C 158.926 494.365 162.37 489.334 165.02 484.825 C 177.585 463.439 187.392 434.607 203.711 426.747 C 217.194 420.253 251.165 430.808 251.165 430.808 Z"/>
  <path style="stroke-linecap: round; fill: rgb(203, 193, 179);" d="M 254.747 435.423 C 254.747 435.423 282.577320982242 439.93451011861185 298.499 432.143 C 328.41352998354154 417.5038804196893 387.60563943465786 356.4087933265572 402.409 317.29 C 413.8108036764706 287.16003055143614 401.527226619067 260.79092078026355 401.317 225.415 C 401.0295950467097 177.05188164431465 408.5244905967535 93.163021024017 401.317 53.687 C 397.3273924885667 31.83559029162519 391.1701408591811 8.29121198747485 382.723 4.464 C 377.6885749751811 2.1830137910286096 371.91041016856235 5.706978241761549 365.223 11.027 C 347.95035520023043 24.767871853363893 312.11888191176706 106.45472358715278 296.312 114.939 C 291.1841116704481 117.6913721784588 289.2350039821942 114.93899999999998 283.19 114.939 C 269.6709001182295 114.93899999999996 231.80551977130403 114.43130894550016 217.56 114.939 C 210.66971474807193 115.18456044577623 207.5501855689201 118.95825186598988 202.245 116.032 C 189.53811129256508 109.0230921478612 174.9435589502972 58.280391948115344 160.679 38.372 C 150.3227024869511 23.918189634080964 138.9220737737396 4.248024765382905 128.963 4.464 C 119.68052685604277 4.665302285798838 108.83351847194412 19.38639703680446 102.713 35.088 C 90.61436652974182 66.1258834763781 99.22749511239009 156.37180204949266 97.241 192.6 C 96.19290116492243 211.71443518388566 94.57739637784927 219.8840500596902 93.961 236.351 C 93.16436537092191 257.6329916358339 84.13765838071069 284.36383744184747 93.961 309.634 C 108.41723513412553 346.8221001370141 168.695856738187 409.1274375193088 201.152 426.672 C 220.13733116714155 436.93475137472774 254.747 435.423 254.747 435.423 C 254.74700000000004 435.42300000000006 254.747 435.423 254.747 435.423 C 254.747 435.423 254.74699999999999 435.423 254.747 435.423" bx:d="M 254.747 435.423 R 298.499 432.143 R 402.409 317.29 R 401.317 225.415 R 401.317 53.687 R 382.723 4.464 R 365.223 11.027 R 296.312 114.939 R 283.19 114.939 R 217.56 114.939 R 202.245 116.032 R 160.679 38.372 R 128.963 4.464 R 102.713 35.088 R 97.241 192.6 R 93.961 236.351 R 93.961 309.634 R 201.152 426.672 R 254.747 435.423 R 254.747 435.423 Z 1@d5809741"/>
  <path style="stroke-linecap: round; fill: rgb(60, 59, 54);" d="M 101.248 214.138 C 88.172 218.247 98.474 297.482 143.528 317.639 C 183.776 335.647 270.248 247.642 264.688 220.353 C 254.098 168.38 214.171 111.417 193.119 115.681"/>
  <path style="stroke-linecap: round; fill: rgb(60, 59, 54);" d="M 110.258 228.163 C 110.258 228.163 196.9174678246902 157.39487363287307 200.059 119.311 C 203.134722207127 82.0249213194609 151.71506731572202 4.0447321436716015 132.242 2.277 C 120.5359782321865 1.2143471257516647 107.58860832945629 20.411356613635142 100.52 39.465 C 86.54219084046937 77.14259913058386 87.82520483290212 221.10413907817195 99.708 230.598 C 102.53619989599407 232.85761451780658 110.258 228.163 110.258 228.163 C 110.25799999999998 228.163 110.25799999999998 228.16299999999995 110.258 228.163" bx:d="M 110.258 228.163 R 200.059 119.311 R 132.242 2.277 R 100.52 39.465 R 99.708 230.598 R 110.258 228.163 Z 1@09611a74"/>
  <path style="stroke-linecap: round; fill: rgb(60, 59, 54);" d="M 387.206 224.885 C 387.206 224.885 299.2828496237665 155.34051632859433 297.406 118.218 C 295.5140664341836 80.79713590930163 358.6375172951254 -1.1140111575082683 377.258 1.179 C 391.4947638291852 2.9321800235546878 401.4251625408267 48.26588110322155 405.944 78.878 C 411.9991113705384 119.8973530709704 407.480195672141 219.595756545137 396.944 227.32 C 394.20667230595546 229.32677608716446 387.206 224.885 387.206 224.885 C 387.206 224.88499999999996 387.20600000000013 224.88500000000005 387.206 224.885" bx:d="M 387.206 224.885 R 297.406 118.218 R 377.258 1.179 R 405.944 78.878 R 396.944 227.32 R 387.206 224.885 Z 1@d06168fd"/>
  <path style="stroke-linecap: round; fill: rgb(255, 181, 167);" d="M 383.815 181.657 C 383.815 181.657 323.431259442436 151.3200223340387 319.284 129.155 C 314.55286940809003 103.8694791179636 361.8201587996363 32.595239321117724 372.879 35.088 C 385.76422657931533 37.9924441070688 383.815 181.657 383.815 181.657 C 383.81499999999994 181.65699999999998 383.815 181.657 383.815 181.657 C 383.815 181.657 383.81500000000005 181.65700000000004 383.815 181.657" bx:d="M 383.815 181.657 R 319.284 129.155 R 372.879 35.088 R 383.815 181.657 R 383.815 181.657 Z 1@a9652349"/>
  <path style="stroke-linecap: round; fill: rgb(255, 181, 167);" d="M 121.305 177.284 C 121.305 177.284 178.23364847073879 142.07103653953317 181.465 119.311 C 185.0167962373713 94.2939099646027 141.5438133228431 29.404458678901914 131.149 31.807 C 118.65559817004878 34.69458568386977 121.305 177.284 121.305 177.284 C 121.30500000000002 177.284 121.305 177.284 121.305 177.284 C 121.305 177.284 121.305 177.284 121.305 177.284" bx:d="M 121.305 177.284 R 181.465 119.311 R 131.149 31.807 R 121.305 177.284 R 121.305 177.284 Z 1@3a80deb1"/>
  <ellipse style="stroke-linecap: round; fill: rgb(0, 0, 1);" cx="195.138" cy="234.708" rx="21.329" ry="18.05"/>
  <ellipse style="stroke-linecap: round; fill: rgb(0, 0, 1);" cx="311.628" cy="230.879" rx="21.329" ry="18.05"/>
  <path style="stroke-linecap: round; fill: rgb(0, 0, 1);" d="M 250.375 338.076 C 250.375 338.076 218.46860560708527 322.4368318571478 216.466 314.011 C 215.04149782688242 308.0175004570222 220.7345416673576 299.06184464951906 226.31 295.417 C 232.92448366595755 291.09291326832295 247.1200809289126 291.92146750178017 255.84 293.225 C 263.20596373001393 294.3261309880867 272.55433661347644 296.2418472092041 275.533 300.883 C 278.33002131219195 305.2411303371595 277.4001713852678 313.87434749557445 274.439 319.482 C 270.6558181124749 326.64631662544895 250.375 338.076 250.375 338.076 C 250.37499999999991 338.07599999999996 250.375 338.076 250.375 338.076 C 250.375 338.076 250.375 338.07599999999996 250.375 338.076" bx:d="M 250.375 338.076 R 216.466 314.011 R 226.31 295.417 R 255.84 293.225 R 275.533 300.883 R 274.439 319.482 R 250.375 338.076 R 250.375 338.076 Z 1@48514f51"/>
  <path style="stroke-linecap: round; fill: rgb(242, 166, 90);" d="M 299.796 285.588 C 292.614 287.415 298.272 322.647 323.017 331.61 C 345.122 339.618 392.614 300.486 389.56 288.351 C 383.744 265.241 361.815 239.912 350.253 241.808"/>
  <path style="stroke: rgb(0, 0, 0); fill: none; stroke-linecap: round; stroke-width: 7px;" d="M 196.78 335.884 C 196.78 335.884 207.51626426441624 366.14074183639104 215.374 373.078 C 220.78496568733053 377.8551097362634 228.1346758981484 380.37060710489106 233.968 379.641 C 239.8017261714164 378.911342605976 244.86402815438194 368.83062932004395 250.375 368.699 C 255.8032783006975 368.56934581163785 261.41532105184064 377.056541882898 266.782 378.543 C 271.2265114692273 379.77403696230095 275.57880696556686 381.00365720013747 279.905 378.543 C 288.09938138192484 373.8821900482435 303.97 338.076 303.97 338.076" bx:d="M 196.78 335.884 R 215.374 373.078 R 233.968 379.641 R 250.375 368.699 R 266.782 378.543 R 279.905 378.543 R 303.97 338.076 1@f67ea61e"/>
  <ellipse style="fill: rgb(255, 255, 255);" cx="187.757" cy="226.953" rx="5.578" ry="5.166"/>
  <ellipse style="fill: rgb(255, 255, 255);" cx="304.525" cy="222.766" rx="5.578" ry="5.166"/>
  <ellipse style="fill: rgb(255, 255, 255);" cx="247.304" cy="302.316" rx="18.593" ry="3.926"/>
</svg>