<?xml version="1.0" encoding="utf-8"?>
<svg viewBox="56.058 25.19 389.552 474.432" width="389.552" height="474.432" xmlns="http://www.w3.org/2000/svg" xmlns:bx="https://boxy-svg.com">
  <path style="fill: rgb(64, 61, 57);" d="M 249.493 398.161 C 249.493 398.161 294.794 383.057 313.171 391.59 C 335.88 402.134 350.128 442.283 368.247 472.346 C 373.116 480.425 379.83 489.751 387.107 499.622 L 110.858 499.622 C 117.39 490.57 123.397 481.992 127.829 474.449 C 145.575 444.246 159.424 403.527 182.473 392.425 C 201.514 383.254 249.493 398.161 249.493 398.161 Z"/>
  <path style="fill: rgb(64, 61, 57);" d="M 311.524 134.905 C 311.524 134.905 361.0836234113403 64.59148089047945 385.911 46.917 C 403.1297476545572 34.65906266652154 427.4819627115755 20.07462564361136 437.613 26.961 C 451.7523351247572 36.57193637773546 443.92190708512953 103.5991169759531 438.525 134.905 C 434.13405567003736 160.37558665094897 430.60888568447865 194.5105745183265 414.031 202.032 C 394.11853016341183 211.06633410523492 331.69955269413754 181.06985950318352 317.879 164.842 C 310.3489280802312 156.0003167571359 311.524 134.905 311.524 134.905 C 311.524 134.905 311.524 134.905 311.524 134.905 C 311.524 134.905 311.524 134.90499999999997 311.524 134.905" bx:d="M 311.524 134.905 R 385.911 46.917 R 437.613 26.961 R 438.525 134.905 R 414.031 202.032 R 317.879 164.842 R 311.524 134.905 R 311.524 134.905 Z 1@42ef65e2"/>
  <path style="fill: rgb(64, 61, 57);" d="M 87.466 186.614 C 87.466 186.614 70.03413263834221 148.94011242001923 65.693 125.835 C 60.31971226401945 97.23637665723294 48.549190698116846 34.5598198769448 62.978 26.961 C 81.35178601475626 17.284588907267757 189.30339739346988 89.94102378208056 192.694 121.297 C 195.34852190718246 145.84577066137248 148.4840279278629 187.75799428204758 127.384 194.779 C 113.80033271736545 199.29894689240206 87.466 186.614 87.466 186.614 C 87.466 186.614 87.466 186.614 87.466 186.614 C 87.466 186.614 87.46600000000001 186.61400000000006 87.466 186.614" bx:d="M 87.466 186.614 R 65.693 125.835 R 62.978 26.961 R 192.694 121.297 R 127.384 194.779 R 87.466 186.614 R 87.466 186.614 Z 1@aa6829b4"/>
  <path style="fill: rgb(153, 123, 102);" d="M 186.764 117.74 C 186.764 117.74 147.6330281357823 109.39084923358556 131.662 112.557 C 118.03295175692818 115.25886873214648 96.85722806138273 124.54753225856814 96.01 131.354 C 95.32731847543093 136.8385324257409 115.46546329824285 141.66536981082737 115.46 148.861 C 115.45119722762877 160.45500270813596 62.58879366316394 186.1305590506234 64.896 194.235 C 66.5958662692722 200.20605927684204 99.34975696309114 195.46444091854116 101.2 200.716 C 102.7728998495594 205.18037377382544 87.1455069391063 213.09246007192388 83.694 220.811 C 80.27627297213222 228.45399854911867 76.77792451363237 244.23472790382493 80.453 246.741 C 85.11552013710283 249.92067458377977 113.95316212744967 223.35708970209035 117.403 226.646 C 121.70875645136972 230.75090210159698 85.0178102609016 282.0526629665609 88.883 285.634 C 91.59435921248547 288.1462417821837 113.19696454015356 266.8961813996899 116.757 269.431 C 120.2128968912851 271.89166979376677 114.73774678690138 287.813436071124 110.922 299.248 C 105.19587103134621 316.40736392368177 84.65026835557775 339.82902656816304 81.105 360.83 C 77.7480118500574 380.7156650264622 81.41405392378942 419.391507514151 88.232 421.761 C 92.87245453899692 423.3737323446343 103.51817540488747 400.3451540884077 108.327 401.666 C 113.79838271487462 403.1688315852991 113.1801656180813 436.84558725602557 117.403 437.318 C 121.47511914208332 437.7735520779928 127.13519577736524 407.1735008311705 132.96 406.85 C 138.97644715848176 406.5158556095503 147.8928216552951 437.6623817556285 153.055 437.318 C 156.95886936937913 437.05756316550935 158.06558247012143 418.99387988858734 162.131 418.521 C 167.0754881025108 417.9458686719501 175.76325115865626 442.52147676129425 181.58 442.502 C 186.34840416779008 442.4860335087067 190.10555243097934 425.9298725595704 194.542 426.299 C 200.59263823665043 426.8024335626676 206.48471751173074 459.2250015469038 213.34 460.008 C 219.17855213759086 460.67486927925705 226.27787207237947 438.86158234053494 232.138 439.261 C 238.18869921117667 439.6734067165266 242.86409488028815 463.58756947268256 248.992 463.894 C 255.35746103008418 464.21230969017336 263.27091999270516 439.1082871623063 269.739 439.261 C 275.74299554720943 439.4027556982106 281.27850913941836 461.7227194423204 286.594 461.306 C 292.59613743069986 460.83544940957376 298.0130230779897 430.760120105926 303.442 430.192 C 307.20694488157545 429.7980140030704 310.0691266327924 443.1621072001584 314.467 443.154 C 321.0542470728093 443.1418568285046 334.38859693715943 412.73390036771946 339.094 413.983 C 342.90537582031675 414.9947705267881 340.28594162004157 437.89893592879775 343.632 438.616 C 347.47791939588666 439.4401848486708 356.52515627983166 411.30218069932994 362.436 411.388 C 367.93025296525025 411.4677708363651 373.0883345257194 435.6494441496151 377.993 435.375 C 383.2889595946914 435.0786607012278 387.14910097941305 406.49215536081465 392.898 405.559 C 397.56848144389977 404.80089226817984 404.72851231210126 422.52489965120867 408.455 421.116 C 415.6990169013084 418.3772031112447 420.33876793173323 358.99044485149216 413.645 338.14 C 408.71175254608664 322.7734075179166 388.96336797832544 315.4436740959502 385.119 303.134 C 381.8247143835219 292.5856907469697 383.4761462955063 271.7734159306587 387.714 270.077 C 391.4118901530505 268.596731873045 404.2196988429077 288.40273330158396 406.512 286.931 C 410.07805182352143 284.6414765629888 383.5499157116929 232.3304177004788 388.36 228.589 C 391.9198133131593 225.82007793087314 413.78163909105467 248.61008761173403 416.885 246.089 C 420.52865577933323 243.12899124941544 396.748664805098 210.08570691495123 401.328 202.659 C 405.14176311573306 196.47388803546608 431.2350784740681 204.02994784898726 433.088 198.773 C 435.730834356326 191.27498014849587 387.1849125500625 162.98622749163528 387.714 152.101 C 388.0221574413956 145.76109559813193 405.0656302008479 142.90513690699507 404.569 137.836 C 403.796775532244 129.95385440493976 373.1144667865056 115.57460715134306 357.898 111.911 C 345.12401469101377 108.83545923316075 322.656195107919 117.21413172677023 320.296 113.209 C 318.7996493386441 110.66976860846731 329.3215862045102 103.98273918794119 328.075 100.24 C 326.19754503283775 94.60314612357361 300.58339810840323 94.27606696020516 296.315 87.278 C 292.8866676980468 81.65722649162677 302.01545117590496 68.04653868455758 298.258 65.234 C 292.5247038658905 60.942495889284906 265.7595487195244 84.35113445136884 250.29 84.038 C 235.55650198526004 83.73976467967894 214.61021018097 61.58988830889745 207.504 65.234 C 202.64308237336442 67.72671078417375 207.572024037994 81.67391371500386 202.966 86.626 C 197.5390060768391 92.46073771607746 176.0641197773069 89.4763716805245 173.802 95.057 C 171.70350330090224 100.23397171687922 186.764 117.74 186.764 117.74 C 186.76399999999998 117.74000000000001 186.764 117.74 186.764 117.74 C 186.764 117.74 186.76400000000004 117.74000000000001 186.764 117.74" bx:d="M 186.764 117.74 R 131.662 112.557 R 96.01 131.354 R 115.46 148.861 R 64.896 194.235 R 101.2 200.716 R 83.694 220.811 R 80.453 246.741 R 117.403 226.646 R 88.883 285.634 R 116.757 269.431 R 110.922 299.248 R 81.105 360.83 R 88.232 421.761 R 108.327 401.666 R 117.403 437.318 R 132.96 406.85 R 153.055 437.318 R 162.131 418.521 R 181.58 442.502 R 194.542 426.299 R 213.34 460.008 R 232.138 439.261 R 248.992 463.894 R 269.739 439.261 R 286.594 461.306 R 303.442 430.192 R 314.467 443.154 R 339.094 413.983 R 343.632 438.616 R 362.436 411.388 R 377.993 435.375 R 392.898 405.559 R 408.455 421.116 R 413.645 338.14 R 385.119 303.134 R 387.714 270.077 R 406.512 286.931 R 388.36 228.589 R 416.885 246.089 R 401.328 202.659 R 433.088 198.773 R 387.714 152.101 R 404.569 137.836 R 357.898 111.911 R 320.296 113.209 R 328.075 100.24 R 296.315 87.278 R 298.258 65.234 R 250.29 84.038 R 207.504 65.234 R 202.966 86.626 R 173.802 95.057 R 186.764 117.74 R 186.764 117.74 Z 1@e26c798d"/>
  <path style="fill: rgb(208, 140, 96);" d="M 220.821 291.836 C 220.821 291.836 141.86856494647674 284.4242744838973 117.403 300.912 C 94.15866702172009 316.57671825969277 77.75652884877404 359.61020680662745 74.769 384.362 C 72.55926340408355 402.6697540009015 79.53029545258059 431.707208794797 86.561 434.255 C 91.23641887544039 435.9492812788028 99.9592033987351 419.17325163131824 104.7 420.654 C 110.77990137822808 422.55300660263606 111.17566605241456 455.35189532599634 116.498 456.027 C 121.78064682161933 456.69707061103395 130.37928526585893 425.1163588801806 136.453 425.185 C 141.72633219819 425.24459572405163 145.73820142032673 449.22700913126044 150.966 448.768 C 160.06485716059933 447.9691056935153 168.02253424369806 376.88133505862953 181.808 370.761 C 190.18816690961583 367.04045618662593 200.7926145571087 382.3662417822176 210.834 381.641 C 222.43998763036853 380.80275440119135 235.024 361.685 247.119 361.685 C 259.214 361.685 275.7177795380983 383.24845560043923 283.404 381.641 C 288.0106959519238 380.67757991022444 287.8532561797545 372.03270582282937 292.473 369.85 C 298.8265191930791 366.8481315246492 313.09745326606844 364.9726867948527 320.594 370.761 C 332.96612619265676 380.3138973483963 332.3807488624708 441.46840497199685 342.372 444.236 C 348.5744967476943 445.9541030607514 358.05890989388877 423.5709788521671 364.138 424.274 C 369.63618530533637 424.9098419560963 372.375177353178 443.7321883269495 377.746 444.236 C 383.68192632110504 444.792821397316 391.3667377458409 424.28460679585635 398.613 423.369 C 405.0347711365435 422.55757238562165 413.6200104338391 437.5783263630749 418.563 435.166 C 427.616473382949 430.74763491410175 435.68028169933797 380.23096655638693 428.544 358.058 C 421.5010501250099 336.1750224753107 399.3033085404922 313.89046946460917 376.841 302.723 C 351.4618746370639 290.1053918401725 308.98736540179794 294.42082454896934 280.682 292.741 C 258.40755614343465 291.4190895751121 220.821 291.836 220.821 291.836 C 220.82099999999997 291.836 220.82100000000003 291.83600000000007 220.821 291.836" bx:d="M 220.821 291.836 R 117.403 300.912 R 74.769 384.362 R 86.561 434.255 R 104.7 420.654 R 116.498 456.027 R 136.453 425.185 R 150.966 448.768 R 181.808 370.761 R 210.834 381.641 R 247.119 361.685 R 283.404 381.641 R 292.473 369.85 R 320.594 370.761 R 342.372 444.236 R 364.138 424.274 R 377.746 444.236 R 398.613 423.369 R 418.563 435.166 R 428.544 358.058 R 376.841 302.723 R 280.682 292.741 R 220.821 291.836 Z 1@5aa242e7"/>
  <path style="stroke-linecap: round; fill: rgb(0, 0, 1);" d="M 300.818 240.479 C 300.818 240.479 294.1690396832689 243.28836427610955 292.543 246.697 C 289.9187261326456 252.19821485076787 289.8029064592411 267.3267621236255 293.518 273.64 C 296.7253052779358 279.0903287574354 304.6805176440609 283.9835278368063 310.72 284.026 C 317.3801681487805 284.0728370850087 328.15948223859704 277.7699453922627 331.815 271.691 C 335.41575934039815 265.7031151558681 336.15402038701 253.7827115556712 332.79 248.001 C 329.3984072242665 242.17190002804128 317.3372462904623 237.42368504733614 311.366 236.963 C 307.31018580109736 236.65009162789138 300.818 240.479 300.818 240.479 C 300.818 240.479 300.818 240.47900000000004 300.818 240.479" bx:d="M 300.818 240.479 R 292.543 246.697 R 293.518 273.64 R 310.72 284.026 R 331.815 271.691 R 332.79 248.001 R 311.366 236.963 R 300.818 240.479 Z 1@167cf248"/>
  <path style="stroke-linecap: round; fill: rgb(0, 0, 1);" d="M 182.857 235.865 C 182.857 235.865 175.82572724410588 239.25025631275452 174.143 242.963 C 171.53675814927448 248.71337220833624 171.40280863460828 263.59278163655324 175.118 269.906 C 178.3254580530905 275.35642801008476 186.28127482709408 280.2496038068516 192.321 280.292 C 198.98129404773275 280.3387523115354 209.760482238597 274.0359453922627 213.416 267.957 C 217.01675934039818 261.96911515586817 217.75503470278798 250.0488550763374 214.391 244.267 C 210.9992980146813 238.4375924362236 198.8874619359682 233.8837815517266 192.966 233.228 C 189.0674146410116 232.79624507462808 182.857 235.865 182.857 235.865 C 182.85700000000003 235.86499999999998 182.857 235.86499999999998 182.857 235.865" bx:d="M 182.857 235.865 R 174.143 242.963 R 175.118 269.906 R 192.321 280.292 R 213.416 267.957 R 214.391 244.267 R 192.966 233.228 R 182.857 235.865 Z 1@e403fb79"/>
  <path style="stroke-linecap: round; fill: rgb(0, 0, 1);" d="M 235.954 328.886 C 235.954 328.886 224.84439112259565 322.08466349221663 224.432 317.911 C 223.98188835342435 313.3555805358034 229.71629166119712 305.43072673832046 235.334 302.403 C 242.61868203522098 298.47683914436146 260.04162191707104 297.53531284600973 267.195 301.428 C 272.9050534395755 304.53526644323165 278.9454360096426 313.6128531236451 277.698 318.812 C 276.14299503075824 325.2930532693099 258.66185829110964 334.9313230272218 250.897 335.479 C 245.3111373782999 335.87298636991375 235.954 328.886 235.954 328.886 C 235.95400000000004 328.8860000000001 235.95399999999998 328.886 235.954 328.886" bx:d="M 235.954 328.886 R 224.432 317.911 R 235.334 302.403 R 267.195 301.428 R 277.698 318.812 R 250.897 335.479 R 235.954 328.886 Z 1@b75ffa76"/>
  <ellipse style="fill: rgb(255, 255, 255);" cx="184.409" cy="245.632" rx="5.396" ry="4.997"/>
  <ellipse style="fill: rgb(255, 255, 255);" cx="303.86" cy="249.17" rx="5.396" ry="4.997"/>
  <ellipse style="fill: rgb(255, 255, 255);" cx="252.693" cy="306.362" rx="13.592" ry="2.87"/>
</svg>