<?xml version="1.0" encoding="utf-8"?>
<svg viewBox="9.465 7.519 483.485 493.148" width="483.485" height="493.148" xmlns="http://www.w3.org/2000/svg" xmlns:bx="https://boxy-svg.com">
  <path style="fill: rgb(81, 79, 72);" d="M 252.044 402.724 C 252.044 402.724 296.101 388.035 313.972 396.333 C 336.057 406.588 349.913 445.633 367.534 474.87 C 372.073 482.399 378.259 491.043 384.994 500.199 L 118.082 500.199 C 124.1 491.838 129.609 483.918 133.725 476.916 C 150.982 447.543 164.451 407.943 186.866 397.146 C 205.384 388.227 252.044 402.724 252.044 402.724 Z"/>
  <path style="fill: rgb(203, 193, 179);" d="M 252.562 418.313 C 252.562 418.313 289.785 405.903 304.884 412.913 C 323.543 421.578 335.249 454.566 350.137 479.267 C 353.972 485.629 359.198 492.932 364.889 500.667 L 139.381 500.667 C 144.465 493.603 149.12 486.912 152.597 480.996 C 167.177 456.179 178.557 422.722 197.495 413.6 C 213.14 406.065 252.562 418.313 252.562 418.313 Z"/>
  <path style="fill: rgb(89, 87, 80);" d="M 167.333 45.624 C 167.333 45.624 219.87346044965358 29.082855202191837 246.861 29.122 C 274.85737344731353 29.16260808788857 310.8264468837533 53.3017091815951 332.394 47.129 C 349.0296400111331 42.36782160924973 353.1654746647685 17.014438636470334 369.908 11.115 C 391.4204466307076 3.5348198134936863 433.9225931424262 8.844960487291855 455.435 18.613 C 472.1776058635105 26.21523794126006 492.7135893408429 41.63366490473425 492.949 54.628 C 493.21591216159476 69.36117343055733 462.594902603518 91.72538019047823 446.432 102.643 C 433.3567778575571 111.47497206454491 406.3314543025586 112.38675969239839 405.916 119.151 C 405.43582128975515 126.9690540355141 457.3332682600438 140.47456514571275 456.934 147.661 C 456.64352170379465 152.88932281242688 429.92238386411896 153.38025883181865 428.425 159.667 C 426.73536368830946 166.76090986138882 450.3433372446577 179.0468196619212 453.936 189.676 C 456.9947139275183 198.72544999077334 457.1651299070004 215.54293572014043 452.433 218.186 C 447.00205719832627 221.2193763457825 426.0857797421884 197.30405548552895 419.421 200.178 C 413.51997784602924 202.72260175807816 408.8980031523677 219.481997333529 411.923 228.688 C 416.229837577827 241.79504117148716 447.5440911526758 251.8249358041081 458.438 266.201 C 467.96578812797406 278.7742733486432 480.3104708883858 301.9273090621824 476.44 308.216 C 473.63226462590796 312.77797204733565 455.37665965598825 305.62907392347114 452.433 309.72 C 449.5363815408849 313.74555097157463 461.28618068706487 329.1524579512463 458.438 332.224 C 455.5210107421125 335.3697467575898 438.8150600941832 324.0793663760825 434.426 327.722 C 429.0970459890758 332.14468427498343 441.11843933788487 359.30071032664125 434.426 363.736 C 424.16140968670663 370.538666280453 366.91594610978984 323.7570778041241 356.402 330.725 C 349.26745254180315 335.45328860566565 361.32348321509 357.53045024484334 356.402 369.736 C 350.4924118971837 384.3921043630601 336.0868957782525 402.00949877022333 317.385 410.252 C 290.5769760022895 422.06712149297516 231.531491210032 423.23718838562274 201.848 413.256 C 179.20430354387867 405.64196974741895 158.7778908741436 386.8948067369343 149.33 371.241 C 142.06828620040127 359.20937665547746 148.95641232525435 334.99158014776265 141.826 332.224 C 133.3400612860952 328.93028927915526 105.28991974993926 368.9716851394593 96.699 365.845 C 89.8471392625666 363.35124941578255 95.87458850122701 335.09308745701946 88.455 331.01 C 80.12446199100694 326.4256062362328 51.92217984460743 350.49121241304505 45.796 345.729 C 40.314159223298766 341.46766734974767 53.75920972219891 313.8319716323775 48.792 309.72 C 44.41693413182516 306.0982188097841 25.340848163515542 320.89506504786107 21.782 317.22 C 17.01441068965362 312.2967214469465 27.231816751685166 284.00320949120544 36.792 269.204 C 48.250650150785916 251.4659546442476 88.06797111313975 235.40786135672502 90.807 221.188 C 92.47619853460657 212.5222382576469 84.80787489962977 199.18145826724145 78.806 197.18 C 72.80357509080736 195.1783583198743 59.11541839016428 211.41802115520173 54.793 209.182 C 51.08694862571919 207.26483036783 50.0444085982887 196.12918011213583 51.795 189.676 C 53.9866880454688 181.59681162217586 73.16033953974836 169.8552521075049 71.301 165.668 C 69.51476567239389 161.64538159552154 44.4966823496342 168.4896753119572 42.792 164.164 C 40.35461465775849 157.97907199688964 84.68475725261844 134.88151458555387 83.308 122.154 C 81.85591111863289 108.7300776767505 41.93779155565487 99.22605967853808 29.286 86.14 C 19.727361643753913 76.25326487437334 7.323902338622138 64.02216230844333 9.781 54.628 C 13.038759214891982 42.17268765829987 48.58441901158667 29.856421128911418 66.8 23.115 C 81.84367278613433 17.547473296273942 95.26922491859042 11.831821244966804 110.313 14.112 C 128.52875958841636 16.872955132307613 167.333 45.624 167.333 45.624 C 167.333 45.623999999999995 167.333 45.624 167.333 45.624 C 167.333 45.624 167.333 45.624 167.333 45.624" bx:d="M 167.333 45.624 R 246.861 29.122 R 332.394 47.129 R 369.908 11.115 R 455.435 18.613 R 492.949 54.628 R 446.432 102.643 R 405.916 119.151 R 456.934 147.661 R 428.425 159.667 R 453.936 189.676 R 452.433 218.186 R 419.421 200.178 R 411.923 228.688 R 458.438 266.201 R 476.44 308.216 R 452.433 309.72 R 458.438 332.224 R 434.426 327.722 R 434.426 363.736 R 356.402 330.725 R 356.402 369.736 R 317.385 410.252 R 201.848 413.256 R 149.33 371.241 R 141.826 332.224 R 96.699 365.845 R 88.455 331.01 R 45.796 345.729 R 48.792 309.72 R 21.782 317.22 R 36.792 269.204 R 90.807 221.188 R 78.806 197.18 R 54.793 209.182 R 51.795 189.676 R 71.301 165.668 R 42.792 164.164 R 83.308 122.154 R 29.286 86.14 R 9.781 54.628 R 66.8 23.115 R 110.313 14.112 R 167.333 45.624 R 167.333 45.624 Z 1@cd50da42"/>
  <path style="stroke-linecap: round; stroke-linejoin: round; fill: rgb(203, 193, 179);" d="M 295.592 234.887 C 294.646 231.956 307.718 256.218 314.695 281.084 C 317.205 290.027 331.917 315.648 333.241 334.416 C 334.706 355.176 317.024 372.558 312.696 376.038 C 302.217 384.464 273.371 394.616 247.962 393.457 C 226.712 392.488 204.931 381.839 198.45 377.729 C 189.495 372.05 176.32 362.31 171.214 350.822 C 165.154 337.19 169.651 320.02 170.05 316.582 C 173.894 283.423 216.783 217.146 218.969 201.812 C 222.679 175.787 193.147 147.3 195.146 122.043 C 197.144 96.786 216.496 77.301 220.051 76.8 C 221.231 76.633 237.436 67.739 251.684 70.105 C 264.935 72.304 276.244 85.661 278.64 88.338 C 283.168 93.397 284.313 102.429 285.85 106.697 C 289.074 115.652 277.173 159.252 278.405 168.275 C 280.142 181.007 275.039 186.24 283.052 213.534"/>
  <path style="stroke-linecap: round; fill: rgb(0, 0, 1);" d="M 263.056 301.051 C 263.056 301.051 287.0532479819251 286.63959609032383 287.581 279.406 C 288.0405821882098 273.1067689104766 279.6254232723828 264.00719566812745 271.562 260.466 C 259.8212527418019 255.30984213418287 229.04325408951001 256.5635145583454 219.016 262.629 C 212.83155361863618 266.36997127249424 208.10147723026694 274.25573273072706 209.008 279.951 C 210.14729859249488 287.1086911252602 224.78060725014828 297.3611363343598 232.529 301.051 C 238.25012411790615 303.7754576637759 244.20606176286833 303.8624016556656 249.542 303.756 C 254.31472972201203 303.66082904375986 263.056 301.051 263.056 301.051 C 263.056 301.051 263.056 301.051 263.056 301.051" bx:d="M 263.056 301.051 R 287.581 279.406 R 271.562 260.466 R 219.016 262.629 R 209.008 279.951 R 232.529 301.051 R 249.542 303.756 R 263.056 301.051 Z 1@afbb5d16"/>
  <path style="stroke: rgb(0, 0, 0); fill: rgba(216, 216, 216, 0); stroke-linecap: round; stroke-width: 7px;" d="M 176.654 336.216 C 176.654 336.216 199.33392317782182 355.92618448440663 211.251 356.098 C 223.7813079931972 356.27865683057354 237.3998436264441 334.98647918486967 250.118 335.229 C 262.6388653333403 335.46775869879167 274.30868473376773 356.2498501650457 286.99 356.877 C 299.80192947014456 357.51060931291124 326.622 338.602 326.622 338.602" bx:d="M 176.654 336.216 R 211.251 356.098 R 250.118 335.229 R 286.99 356.877 R 326.622 338.602 1@250ecbff"/>
  <path style="stroke-linecap: round; stroke-linejoin: round; fill: rgb(242, 166, 90);" d="M 340.754 181.306 C 340.754 181.306 299.0288385113703 183.4247030304689 295.912 176.594 C 292.89616465363065 169.9846503129085 310.23276568138874 143.5504683088117 320.093 141.992 C 330.408899607795 140.36151109921533 357.0662196429827 162.66120905539765 356.951 169.857 C 356.8755093204489 174.57160537677282 340.754 181.306 340.754 181.306 C 340.754 181.306 340.7540000000001 181.30600000000004 340.754 181.306" bx:d="M 340.754 181.306 R 295.912 176.594 R 320.093 141.992 R 356.951 169.857 R 340.754 181.306 Z 1@ccd90e4b"/>
  <ellipse style="stroke-linecap: round; fill: rgb(0, 0, 1);" cx="310.08" cy="187.648" rx="21.686" ry="19.845"/>
  <ellipse style="fill: rgb(255, 255, 255);" cx="303.994" cy="181.054" rx="6.181" ry="6.191"/>
  <path style="stroke-linecap: round; stroke-linejoin: round; fill: rgb(242, 166, 90);" d="M 185.615 183.492 C 185.615 183.492 140.8080744269472 185.76637991362864 137.461 178.431 C 134.22243332012167 171.3334234473943 152.83859448326146 142.94783883437566 163.427 141.274 C 174.50477996368153 139.52279975813482 203.13118836499024 163.46737303739133 203.008 171.195 C 202.92728557869683 176.25822929428645 185.615 183.492 185.615 183.492 C 185.615 183.49200000000002 185.615 183.49200000000002 185.615 183.492" bx:d="M 185.615 183.492 R 137.461 178.431 R 163.427 141.274 R 203.008 171.195 R 185.615 183.492 Z 1@3d00d17e"/>
  <ellipse style="stroke-linecap: round; fill: rgb(0, 0, 1);" cx="188.079" cy="185.807" rx="21.686" ry="19.845"/>
  <ellipse style="fill: rgb(255, 255, 255);" cx="184.692" cy="180.398" rx="6.181" ry="6.191"/>
  <ellipse style="fill: rgb(255, 255, 255);" cx="249.055" cy="267.702" rx="20.606" ry="4.704"/>
</svg>