<?xml version="1.0" encoding="utf-8"?>
<svg viewBox="44.121 21.441 418.562 479.836" width="418.562" height="479.836" xmlns="http://www.w3.org/2000/svg" xmlns:bx="https://boxy-svg.com">
  <path style="fill: rgb(254, 200, 154);" d="M 245.08 192.539 C 245.08 192.539 268.466 309.175 292.972 355.948 C 315.089 398.16 366.202 424.719 380.195 463.779 C 384.17 474.874 387.977 487.878 390.629 501.232 L 105.557 501.232 C 108.514 487.508 112.637 474.313 117.117 463.295 C 133.814 422.227 198.509 397.657 219.938 353.776 C 242.272 308.041 245.08 192.539 245.08 192.539 Z"/>
  <path style="fill: rgb(249, 220, 196);" d="M 248.233 251.25 C 248.233 251.25 265.897 345.72 284.407 383.604 C 301.113 417.793 339.72 439.305 350.289 470.941 C 353.292 479.928 356.167 490.46 358.17 501.277 L 142.846 501.277 C 145.08 490.161 148.194 479.473 151.578 470.549 C 164.19 437.286 213.056 417.386 229.242 381.844 C 246.112 344.801 248.233 251.25 248.233 251.25 Z"/>
  <path style="stroke-linecap: round; fill: rgb(254, 200, 154);" d="M 257.625 445.714 C 257.625 445.714 306.121 429.369 323.782 412.266 C 342.986 393.669 356.006 362.067 365.82 335.36 C 375.339 309.457 371.529 270.924 382.529 254.627 C 389.465 244.351 401.041 246.691 409.814 236.46 C 425.458 218.215 445.483 173.865 453.671 141.891 C 461.321 112.016 466.046 72.303 459.777 51.085 C 455.789 37.587 448.65 23.308 437.733 21.581 C 419.274 18.66 372.912 62.315 351.749 82.353 C 336.458 96.831 332.829 118.182 317.621 125.445 C 301.661 133.068 277.894 124.413 257.082 124.851 C 234.894 125.318 203.788 136.949 188.364 128.422 C 175.612 121.372 176.226 99.921 165.452 87.346 C 152.866 72.656 133.488 56.513 114.852 47.851 C 96.734 39.43 67.39 26.619 55.48 35.357 C 41.078 45.924 43.103 92.961 46.847 123.662 C 51.166 159.075 69.502 215.489 86.234 234.953 C 95.235 245.424 111.559 243.435 116.367 251.056 C 120.383 257.422 115.674 264.81 117.457 274.869 C 120.744 293.41 129.893 328.323 141.789 352.115 C 153.635 375.806 168.775 401.703 188.586 417.37 C 207.685 432.473 257.625 445.714 257.625 445.714 C 257.625 445.714 257.625 445.714 257.625 445.714 C 257.625 445.714 257.625 445.714 257.625 445.714" bx:d="M 257.625 445.714 R 323.782 412.266 R 365.82 335.36 R 382.529 254.627 R 409.814 236.46 R 453.671 141.891 R 459.777 51.085 R 437.733 21.581 R 351.749 82.353 R 317.621 125.445 R 257.082 124.851 R 188.364 128.422 R 165.452 87.346 R 114.852 47.851 R 55.48 35.357 R 46.847 123.662 R 86.234 234.953 R 116.367 251.056 R 117.457 274.869 R 141.789 352.115 R 188.586 417.37 R 257.625 445.714 R 257.625 445.714 Z 1@50055464"/>
  <path style="stroke-linecap: round; fill: rgb(252, 213, 206);" d="M 112.163 223.672 C 112.163 223.672 170.266 162.243 168.516 136.16 C 166.968 113.089 134.765 87.459 115.677 74.193 C 100.511 63.652 76.259 49.789 67.384 56.565 C 53.791 66.944 66.244 147.042 77.429 176.737 C 85.212 197.399 112.163 223.672 112.163 223.672 C 112.163 223.672 112.163 223.672 112.163 223.672 C 112.163 223.672 112.163 223.672 112.163 223.672" bx:d="M 112.163 223.672 R 168.516 136.16 R 115.677 74.193 R 67.384 56.565 R 77.429 176.737 R 112.163 223.672 R 112.163 223.672 Z 1@697fb015"/>
  <path style="stroke-linecap: round; fill: rgb(252, 213, 206);" d="M 396.11 221.882 C 396.11 221.882 336.133 164.547 339.211 137.948 C 342.582 108.815 413.32 50.504 428.658 55.513 C 439.195 58.954 439.909 91.144 439.773 111.828 C 439.606 137.283 432.287 177.894 421.822 196.882 C 415.1 209.078 396.11 221.882 396.11 221.882 C 396.11 221.882 396.11 221.882 396.11 221.882 C 396.11 221.882 396.11 221.882 396.11 221.882" bx:d="M 396.11 221.882 R 339.211 137.948 R 428.658 55.513 R 439.773 111.828 R 421.822 196.882 R 396.11 221.882 R 396.11 221.882 Z 1@49e49f13"/>
  <path style="stroke-linecap: round; fill: rgb(252, 236, 223);" d="M 220.327 357.078 C 220.327 357.078 151.869 317.984 155.088 303.627 C 159.582 283.585 286.994 248.151 314.52 263.727 C 332.741 274.037 338.775 312.193 335.506 332.616 C 332.495 351.427 314.446 376.679 300.349 382.582 C 289.129 387.281 274.927 380.15 262.17 376.245 C 248.259 371.987 220.327 357.078 220.327 357.078 C 220.327 357.078 220.327 357.078 220.327 357.078" transform="matrix(0.156434, 0.987688, -0.987688, 0.156434, 527.671509, 24.694557)" bx:d="M 220.327 357.078 R 155.088 303.627 R 314.52 263.727 R 335.506 332.616 R 300.349 382.582 R 262.17 376.245 R 220.327 357.078 Z 1@a66a4542"/>
  <path style="stroke: rgb(0, 0, 0); stroke-linecap: round;" d="M 257.018 357.892 C 257.018 357.892 283.3488887342811 342.70346340281327 283.828 336.463 C 284.1485955824077 332.28721633079874 278.74253614784556 327.5750065547322 273.429 325.148 C 264.80323895014783 321.2081042271948 239.5641319913852 319.15967230800555 232.948 323.959 C 228.85313967477262 326.92940273369743 226.8716634668705 334.1563993557729 228.567 338.841 C 231.0856666925993 345.80064923787927 257.018 357.892 257.018 357.892 C 257.01800000000003 357.89200000000005 257.018 357.892 257.018 357.892 C 257.018 357.892 257.0179999999999 357.89199999999994 257.018 357.892" bx:d="M 257.018 357.892 R 283.828 336.463 R 273.429 325.148 R 232.948 323.959 R 228.567 338.841 R 257.018 357.892 R 257.018 357.892 Z 1@3ebff381"/>
  <ellipse style="stroke: rgb(0, 0, 0); stroke-linecap: round;" cx="194.228" cy="271.298" rx="19.694" ry="16.075"/>
  <ellipse style="stroke: rgb(0, 0, 0); stroke-linecap: round;" cx="310.761" cy="270.102" rx="19.694" ry="16.075"/>
  <path style="stroke: rgb(0, 0, 0); fill: none; stroke-linecap: round; stroke-width: 7px;" d="M 198.609 352.708 C 198.609 352.708 226.5851206088512 379.1565563804783 240.187 383.664 C 250.73722393354137 387.16017418198186 260.9404086502396 387.30287953236046 271.373 383.664 C 284.80490619024647 378.97896184623426 311.854 351.513 311.854 351.513" bx:d="M 198.609 352.708 R 240.187 383.664 R 271.373 383.664 R 311.854 351.513 1@103154c3"/>
  <ellipse style="fill: rgb(255, 255, 255);" cx="305.825" cy="265.936" rx="5.311" ry="5.352"/>
  <ellipse style="fill: rgb(255, 255, 255);" cx="187.77" cy="265.936" rx="5.311" ry="5.352"/>
  <ellipse style="fill: rgb(255, 255, 255);" cx="253.122" cy="332.7" rx="15.344" ry="5.263"/>
</svg>