<?xml version="1.0" encoding="utf-8"?>
<svg viewBox="2.303 14.863 490.274 485.431" width="490.274" height="485.431" xmlns="http://www.w3.org/2000/svg" xmlns:bx="https://boxy-svg.com">
  <path style="fill: rgb(81, 66, 56);" d="M 252.238 168.493 C 252.238 168.493 290.182 291.508 312.071 335.073 C 330.019 370.799 371.846 386.827 392.909 419.957 C 405.714 440.098 423.576 471.625 437.858 500.294 L 60.814 499.598 C 69.32 480.048 109.594 460.86 118.517 446.055 C 144.44 403.04 148.549 377.493 170.74 330.438 C 192.431 284.444 252.238 168.493 252.238 168.493 Z"/>
  <path style="stroke-linecap: round; fill: rgb(181, 147, 115);" d="M 263.068 15.177 C 263.068 15.177 315.43 20.351 326.808 30.184 C 334.041 36.435 331.062 43.776 336.542 54.793 C 349.325 80.492 400.393 135.007 411.377 177.821 C 421.567 217.542 414.355 268.54 405.898 301.646 C 399.712 325.86 393.304 342.995 376.699 361.176 C 353.739 386.315 299.157 418.935 268.404 427.059 C 248.527 432.31 235.067 432.538 215.471 425.469 C 183.385 413.895 125.143 372.528 103.518 338.156 C 85.375 309.32 83.799 270.652 82.224 240.525 C 80.888 214.975 82.258 195.71 90.134 169.09 C 101.404 131.002 127.751 61.581 156.123 37.578 C 175.999 20.763 205.358 19.62 225.137 16.335 C 239.476 13.954 263.068 15.177 263.068 15.177 C 263.068 15.177 263.068 15.177 263.068 15.177" bx:d="M 263.068 15.177 R 326.808 30.184 R 336.542 54.793 R 411.377 177.821 R 405.898 301.646 R 376.699 361.176 R 268.404 427.059 R 215.471 425.469 R 103.518 338.156 R 82.224 240.525 R 90.134 169.09 R 156.123 37.578 R 225.137 16.335 R 263.068 15.177 Z 1@26f970c3"/>
  <path style="stroke-linecap: round;" d="M 155.514 221.27 C 155.514 221.27 164.17165306182733 226.87064892572644 168.878 226.048 C 175.39535863979322 224.90879412460802 186.6511520461276 216.00252709210227 189.878 208.735 C 192.9774629110527 201.75437029601605 192.67844436671717 188.6474315301217 188.733 183.651 C 185.25925120387643 179.2519142698632 175.72727307925987 176.86750567805421 170.024 178.279 C 163.78595386826183 179.82284448589775 155.78394915839408 187.6084377678423 153.223 194.403 C 150.46721157470287 201.71449850943654 155.514 221.27 155.514 221.27 C 155.514 221.27000000000004 155.514 221.27 155.514 221.27 C 155.514 221.27 155.514 221.27000000000004 155.514 221.27" transform="matrix(0.71934, 0.694658, -0.694658, 0.71934, 188.648346, -62.917625)" bx:d="M 155.514 221.27 R 168.878 226.048 R 189.878 208.735 R 188.733 183.651 R 170.024 178.279 R 153.223 194.403 R 155.514 221.27 R 155.514 221.27 Z 1@1259f372"/>
  <path style="stroke-linecap: round; fill: rgb(220, 205, 193);" d="M 241.095 379.616 C 241.095 379.616 221.008 420.394 205.379 429.08 C 190.632 437.276 167.309 438.312 151.193 432.831 C 134.438 427.133 116.85 410.231 107.239 393.909 C 97.282 377.001 86.875 352.759 93.591 332.408 C 103.414 302.644 174.899 283.457 195.352 244.077 C 218.532 199.446 191.756 95.451 212.995 71.896 C 223.965 59.731 245.291 54.785 258.194 62.479 C 283.558 77.604 283.271 183.206 309.201 233.443 C 333.495 280.511 399.582 326.065 405.595 356.869 C 408.654 372.542 401.427 383.331 394.49 395.859 C 386.217 410.801 372.179 433.148 355.864 438.684 C 338.65 444.525 309.337 437.248 292.735 427.024 C 276.879 417.26 268.119 386.072 257.32 380.389 C 251.633 377.396 241.095 379.616 241.095 379.616 C 241.095 379.616 241.095 379.616 241.095 379.616" bx:d="M 241.095 379.616 R 205.379 429.08 R 151.193 432.831 R 107.239 393.909 R 93.591 332.408 R 195.352 244.077 R 212.995 71.896 R 258.194 62.479 R 309.201 233.443 R 405.595 356.869 R 394.49 395.859 R 355.864 438.684 R 292.735 427.024 R 257.32 380.389 R 241.095 379.616 Z 1@e7c81682"/>
  <path style="stroke-linecap: round;" d="M 303.782 193.734 C 303.782 193.734 308.8893140277184 208.40573205968064 313.03 212.829 C 316.3984764560312 216.42735882639357 320.7128897457139 218.2237701913101 325.236 219.769 C 330.131346916346 221.4413969909528 337.9044313420666 224.58459573364695 341.519 222.087 C 345.8595235597369 219.08778373091656 347.99365909347887 206.3015147071493 346.697 198.942 C 345.33686105334925 191.22218942528187 338.61451287481907 181.55009986970745 332.639 176.956 C 327.5360705879571 173.03276063325313 319.190299819627 169.1397465778618 314.509 171.169 C 309.14519836075783 173.49410483230915 303.782 193.734 303.782 193.734 C 303.782 193.734 303.782 193.734 303.782 193.734 C 303.782 193.734 303.7819999999999 193.73399999999998 303.782 193.734" transform="matrix(0.71934, -0.694658, 0.694658, 0.71934, -45.38459, 281.299042)" bx:d="M 303.782 193.734 R 313.03 212.829 R 325.236 219.769 R 341.519 222.087 R 346.697 198.942 R 332.639 176.956 R 314.509 171.169 R 303.782 193.734 R 303.782 193.734 Z 1@8ea2280c"/>
  <path style="stroke-linecap: round;" d="M 247.842 346.576 C 247.842 346.576 221.32708487468153 331.22428875619244 217.228 321.912 C 214.04361548908003 314.67772479394256 214.26317169967245 303.53513198538457 218.729 298.234 C 224.07926803887023 291.8829996650439 241.56643348885996 290.0044629152268 251.855 290.34 C 260.9799849834215 290.6375896454206 272.2677161682012 293.5395318931426 277.452 298.234 C 281.39836822830813 301.8075118652405 284.5821941173315 307.19735467054363 283.471 312.541 C 281.49117921111235 322.06180284325666 247.842 346.576 247.842 346.576 C 247.84199999999996 346.57599999999996 247.842 346.576 247.842 346.576 C 247.842 346.576 247.8420000000001 346.5760000000001 247.842 346.576" bx:d="M 247.842 346.576 R 217.228 321.912 R 218.729 298.234 R 251.855 290.34 R 277.452 298.234 R 283.471 312.541 R 247.842 346.576 R 247.842 346.576 Z 1@2c72428e"/>
  <ellipse style="fill: rgb(255, 255, 255);" cx="248.257" cy="302.712" rx="18.03" ry="7.552"/>
  <ellipse style="fill: rgb(255, 255, 255);" cx="166.547" cy="194.631" rx="6.236" ry="5.775"/>
  <ellipse style="fill: rgb(255, 255, 255);" cx="318.269" cy="190.647" rx="6.236" ry="5.775"/>
  <path style="stroke-linecap: round; fill: rgb(111, 94, 83);" d="M 483.641 430.171 C 483.641 430.171 496.893 358.269 491.121 324.656 C 485.395 291.311 462.633 260.482 449.543 229.222 C 437.047 199.381 431.365 170.986 414.158 141.206 C 393.183 104.905 335.544 26.037 327.111 30.335 C 317.914 35.022 363.785 131.094 372.979 191.633 C 384.313 266.265 350.442 408.079 379.19 446.411 C 394.418 466.716 429.243 472.712 447.331 468.103 C 462.831 464.153 483.641 430.171 483.641 430.171 C 483.641 430.171 483.641 430.171 483.641 430.171" bx:d="M 483.641 430.171 R 491.121 324.656 R 449.543 229.222 R 414.158 141.206 R 327.111 30.335 R 372.979 191.633 R 379.19 446.411 R 447.331 468.103 R 483.641 430.171 Z 1@e28c7f39"/>
  <path style="stroke-linecap: round; fill: rgb(111, 94, 83);" d="M 7.062 431.517 C 7.062 431.517 -2.677 331.712 5.709 293.12 C 12.271 262.925 29.025 243.751 41.624 216.383 C 56.027 185.096 67.009 145.918 87.294 115.509 C 107.728 84.876 156.635 28.996 164.007 33.402 C 172.763 38.635 122.122 124.379 113.258 183.568 C 101.247 263.771 155.96 437.578 121.578 474.49 C 101.801 495.722 43.722 490.56 25.365 478.567 C 12.074 469.884 7.062 431.517 7.062 431.517 C 7.062 431.517 7.062 431.517 7.062 431.517" bx:d="M 7.062 431.517 R 5.709 293.12 R 41.624 216.383 R 87.294 115.509 R 164.007 33.402 R 113.258 183.568 R 121.578 474.49 R 25.365 478.567 R 7.062 431.517 Z 1@a747d6cd"/>
</svg>