<?xml version="1.0" encoding="utf-8"?>
<svg viewBox="27.605 28.297 456.02 472.885" width="456.02" height="472.885" xmlns="http://www.w3.org/2000/svg" xmlns:bx="https://boxy-svg.com">
  <path style="fill: rgb(208, 140, 96);" d="M 252.193 380.629 C 252.193 380.629 297.494 362.567 315.871 372.771 C 338.58 385.38 382.046 407.421 400.165 443.37 C 404.831 452.628 416.386 487.93 423.312 499.188 L 74.189 500.487 C 80.377 490.206 85.393 467.481 89.624 458.871 C 107.37 422.753 162.124 387.045 185.173 373.769 C 204.214 362.802 252.193 380.629 252.193 380.629 Z"/>
  <path style="fill: rgb(228, 215, 197);" d="M 253.753 400.248 C 253.753 400.248 289.087 385.234 303.421 393.716 C 321.134 404.198 362.764 427.227 376.897 457.11 C 380.536 464.806 395.237 491.174 400.639 500.532 L 109.952 501.182 C 114.778 492.636 131.533 464.412 134.833 457.255 C 148.675 427.231 183.501 405.582 201.479 394.546 C 216.33 385.429 253.753 400.248 253.753 400.248 Z"/>
  <path style="stroke-linecap: round; fill: rgb(208, 140, 96);" d="M 263.165 429.289 C 263.165 429.289 309.9090661161108 410.02319501813446 328.546 393.338 C 348.4294636778661 375.5368170818173 366.7868111774216 355.1322156014003 377.417 323.88 C 393.87629176051684 275.490517618138 389.0644237179469 168.3864569182818 386.086 120.458 C 384.44152815699294 93.99534547372551 389.6418263721683 74.22334526590325 375.786 59.25 C 355.89783576310725 37.757788577507604 291.92767514016117 27.627308578737367 251.702 28.331 C 213.2774299210776 29.00318362988386 161.1275231566122 35.208326327034214 139.537 60.486 C 116.83973133317025 87.05942513037002 124.77280051517988 144.97129703231116 123.822 188.477 C 122.8373417923874 233.53192668668507 122.40732713629694 290.12296522101684 134.663 326.351 C 143.8283873094722 353.4440836603681 159.03535455762974 374.2214486139813 176.659 391.305 C 193.49198455051058 407.6221210796914 220.57655667982647 422.63605771835927 237.079 427.755 C 247.1213966581145 430.8700810740484 263.165 429.289 263.165 429.289 C 263.16499999999996 429.289 263.1650000000001 429.289 263.165 429.289" bx:d="M 263.165 429.289 R 328.546 393.338 R 377.417 323.88 R 386.086 120.458 R 375.786 59.25 R 251.702 28.331 R 139.537 60.486 R 123.822 188.477 R 134.663 326.351 R 176.659 391.305 R 237.079 427.755 R 263.165 429.289 Z 1@d654e8af"/>
  <path style="stroke-linecap: round; fill: rgb(153, 123, 102);" d="M 135.182 68.658 C 135.182 68.658 125.51199260489848 62.54383717486302 120.238 64.957 C 106.53914295102187 71.22503544372731 88.50762856895358 127.25738970751698 73.218 157.573 C 58.50852840444273 186.7383002875912 35.594393306174915 216.65594154808605 30.155 243.524 C 25.82600421325072 264.90721413611146 26.92052405292186 284.99378918352426 34.108 304.287 C 42.198060872172036 326.0030030968017 68.75335460856286 346.19500757800927 80.688 365.782 C 90.3843694603043 381.69556164432566 94.040245795343 411.2308434424659 102.664 411.718 C 112.3163646968964 412.26326284564846 130.25513490417845 380.05526889575765 136.501 357.637 C 144.8006092472139 327.8472320528454 135.44465065095017 280.56250933709856 134.738 245.006 C 134.10229270233722 213.01914421119517 132.43925080161978 183.73688145229082 132.542 153.87 C 132.64136306613986 124.98739104617225 135.182 68.658 135.182 68.658 C 135.18200000000002 68.65800000000002 135.182 68.658 135.182 68.658" bx:d="M 135.182 68.658 R 120.238 64.957 R 73.218 157.573 R 30.155 243.524 R 34.108 304.287 R 80.688 365.782 R 102.664 411.718 R 136.501 357.637 R 134.738 245.006 R 132.542 153.87 R 135.182 68.658 Z 1@5101a8ca"/>
  <path style="stroke-linecap: round; fill: rgb(153, 123, 102);" d="M 380.125 69.016 C 380.125 69.016 384.1199893589829 62.07538992003543 386.89 62.342 C 392.91140282811745 62.92155253518948 404.1888824840394 84.23564417555015 412.255 99.397 C 423.26831190469244 120.09800519392292 431.4240196254707 152.87931525095465 443.12 177.214 C 454.1337749213704 200.12928645107513 474.34419187734903 219.52340311167146 479.906 241.692 C 485.0306511839303 262.118149875105 485.21435191755563 283.95734652762934 478.215 304.692 C 469.831153756209 329.5280346326677 437.3583718710167 356.5493558908531 425.363 378.058 C 416.98268659265744 393.0845602884029 415.12884281092533 418.6746031179981 408.454 418.823 C 399.8796744351106 419.01362668816955 383.410749999447 379.4351766192762 377.59 352.862 C 369.7337450298106 316.9962351228377 378.0343442729959 265.8653014411935 378.435 220.201 C 378.86272362102784 171.45166472858872 380.125 69.016 380.125 69.016 C 380.125 69.01599999999999 380.125 69.016 380.125 69.016" bx:d="M 380.125 69.016 R 386.89 62.342 R 412.255 99.397 R 443.12 177.214 R 479.906 241.692 R 478.215 304.692 R 425.363 378.058 R 408.454 418.823 R 377.59 352.862 R 378.435 220.201 R 380.125 69.016 Z 1@cca64179"/>
  <path style="stroke-linecap: round; stroke-linejoin: round; fill: rgb(0, 0, 1);" d="M 195.32 222.495 C 195.32 222.495 154.26254605739075 224.54371683506153 151.004 217.581 C 147.79354479780088 210.72104157349176 165.10137569502578 183.03902321628064 174.901 181.495 C 185.06917117991753 179.8929087483038 211.45069400059816 203.04610004306195 211.329 210.553 C 211.24932872987893 215.46765685491044 195.32 222.495 195.32 222.495 C 195.32000000000005 222.49500000000006 195.32 222.49499999999998 195.32 222.495" bx:d="M 195.32 222.495 R 151.004 217.581 R 174.901 181.495 R 211.329 210.553 R 195.32 222.495 Z 1@3a65fd01"/>
  <path style="stroke-linecap: round; stroke-linejoin: round; fill: rgb(228, 215, 197);" d="M 243.025 348.5 C 243.025 348.5 224.646 378.152 201.698 362.236 C 178.747 346.32 162.029 314.295 156.975 295.176 C 150.376 270.226 210.433 248.762 227.923 203.793 C 236.61 181.456 227.02 128.006 231.882 104.67 C 236.809 81.028 254.628 69.998 259.834 70.366 C 265.174 70.74 284.139 85.658 286.106 106.732 C 288.367 130.924 275.895 182.655 282.594 214.724 C 290.802 254.017 321.874 259.074 337.617 274.101 C 345.911 282.021 344.195 308.654 344.242 311.662 C 344.462 325.933 329.374 355.428 324.933 358.225 C 321.258 360.539 303.486 357.985 289.934 369.026 C 277.095 379.486 256.659 347.142 256.659 347.142"/>
  <path style="stroke-linecap: round; fill: rgb(0, 0, 1);" d="M 269.211 323.887 C 269.211 323.887 295.1673816016698 307.40024556514385 295.767 299.152 C 296.2911793849227 291.9414802776757 287.2653656148861 281.5249241707346 278.42 277.513 C 265.7450822758126 271.7641354540097 232.37447728642596 273.2346818967233 221.527 279.985 C 214.6988301737119 284.2341279007625 209.66446256497792 293.2468173858719 210.691 299.777 C 211.97076126837035 307.9180326597265 227.71249450748783 319.680973647739 236.158 323.887 C 242.3214986225427 326.95654245089577 248.80254714459764 327.0960393073961 254.579 326.975 C 259.74766905729285 326.8666961432017 269.211 323.887 269.211 323.887 C 269.211 323.887 269.211 323.88699999999994 269.211 323.887" bx:d="M 269.211 323.887 R 295.767 299.152 R 278.42 277.513 R 221.527 279.985 R 210.691 299.777 R 236.158 323.887 R 254.579 326.975 R 269.211 323.887 Z 1@29540a7c"/>
  <path style="stroke: rgb(0, 0, 0); fill: rgba(216, 216, 216, 0); stroke-linecap: round; stroke-width: 7px;" d="M 186.57 353.932 C 186.57 353.932 200.04674674062775 367.88695502114456 208.898 368.523 C 220.6738091166639 369.36920155373855 238.0588596311048 348.1228777327471 251.705 348.613 C 264.65565521835845 349.0781428408652 276.551240140099 367.95808563432035 288.874 369.265 C 300.0190625653732 370.4470113788375 322.145 359.125 322.145 359.125" bx:d="M 186.57 353.932 R 208.898 368.523 R 251.705 348.613 R 288.874 369.265 R 322.145 359.125 1@f1039642"/>
  <path style="stroke-linecap: round; stroke-linejoin: round; fill: rgb(0, 0, 1);" d="M 334.275 221.571 C 334.275 221.571 293.21544276422907 223.61980065828766 289.957 216.657 C 286.7466771724989 209.79702438771412 304.0561543435381 182.11473022611995 313.856 180.571 C 324.02410054991685 178.96926006333237 350.4035707403002 202.12203435179362 350.282 209.629 C 350.20241128555614 214.5435850707055 334.275 221.571 334.275 221.571 C 334.2750000000001 221.57100000000005 334.275 221.571 334.275 221.571" bx:d="M 334.275 221.571 R 289.957 216.657 R 313.856 180.571 R 350.282 209.629 R 334.275 221.571 Z 1@b630c47d"/>
  <ellipse style="fill: rgb(255, 255, 255);" cx="312.111" cy="193.099" rx="5.589" ry="5.905"/>
  <ellipse style="fill: rgb(255, 255, 255);" cx="171.986" cy="194.28" rx="5.589" ry="5.905"/>
  <ellipse style="fill: rgb(255, 255, 255);" cx="251.368" cy="284.557" rx="18.627" ry="4.488"/>
</svg>