<?xml version="1.0" encoding="utf-8"?>
<svg viewBox="14.12 66.971 458.328 432.657" width="458.328" height="432.657" xmlns="http://www.w3.org/2000/svg" xmlns:bx="https://boxy-svg.com">
  <path style="fill: rgb(60, 59, 54);" d="M 238.313 179.029 C 238.313 179.029 259.306 301.596 286.205 342.438 C 308.263 375.93 348.557 384.365 374.441 415.423 C 392.186 436.715 421.087 469.915 438.586 499.628 L 34.269 499.628 C 45.485 477.91 60.986 455.689 73.982 439.238 C 105.839 398.912 185.901 384.378 213.171 340.266 C 239.827 297.147 238.313 179.029 238.313 179.029 Z"/>
  <path style="stroke-linecap: round; fill: rgb(105, 103, 94);" d="M 241.215 486.17 C 241.215 486.17 199.491 437.526 188.068 439.989 C 179.959 441.738 181.356 470.33 173.255 472.232 C 162.39 474.782 133.335 429.386 123.59 432.149 C 116.753 434.087 120.363 459.826 113.135 461.776 C 100.8 465.104 62.535 409.209 43.426 402.523 C 32.875 398.832 20.404 409.401 15.548 403.398 C 4.88 390.21 57.82 288.14 47.783 272.695 C 43.477 266.069 25.562 273.465 23.389 268.345 C 19.896 260.113 62.866 222.234 59.113 215.191 C 56.637 210.543 33.835 219.933 31.229 215.191 C 27.25 207.95 63.39 179.369 66.086 160.296 C 68.654 142.131 41.739 118.008 49.509 103.691 C 60.414 83.597 132.331 68.16 160.798 70.309 C 179.37 71.711 188.461 87.64 205.496 91.468 C 225.72 96.013 255.773 96.51 275.198 91.468 C 290.849 87.405 297.737 72.694 314.733 69.461 C 340.681 64.526 405.394 65.852 419.273 83.344 C 430.248 97.176 406.992 128.728 412.866 148.972 C 419.135 170.579 462.254 196.919 459.047 208.218 C 456.937 215.655 430.408 212.458 428.546 219.548 C 425.891 229.658 473.992 260.47 471.245 270.086 C 469.361 276.683 445.172 271.982 441.619 279.668 C 436.264 291.251 464.549 323.6 468.629 345.019 C 472.281 364.188 475.35 394.169 467.754 401.649 C 462.769 406.558 452.424 398.013 443.36 401.649 C 426.745 408.313 400.023 457.897 384.114 458.286 C 373.779 458.539 367.217 435.145 357.97 435.632 C 346.325 436.245 332.308 475.425 320.505 475.715 C 310.42 475.962 303.02 448.513 291.752 447.83 C 277.572 446.971 241.215 486.17 241.215 486.17 C 241.215 486.17 241.215 486.17 241.215 486.17 C 241.215 486.17 241.215 486.17 241.215 486.17" bx:d="M 241.215 486.17 R 188.068 439.989 R 173.255 472.232 R 123.59 432.149 R 113.135 461.776 R 43.426 402.523 R 15.548 403.398 R 47.783 272.695 R 23.389 268.345 R 59.113 215.191 R 31.229 215.191 R 66.086 160.296 R 49.509 103.691 R 160.798 70.309 R 205.496 91.468 R 275.198 91.468 R 314.733 69.461 R 419.273 83.344 R 412.866 148.972 R 459.047 208.218 R 428.546 219.548 R 471.245 270.086 R 441.619 279.668 R 468.629 345.019 R 467.754 401.649 R 443.36 401.649 R 384.114 458.286 R 357.97 435.632 R 320.505 475.715 R 291.752 447.83 R 241.215 486.17 R 241.215 486.17 Z 1@0face34b"/>
  <path style="stroke-linecap: round; fill: rgb(203, 193, 179);" d="M 240.886 468.66 C 240.886 468.66 205.72913935562272 424.75381978439526 196.125 426.777 C 189.20869863570317 428.23396803922503 190.56529811706883 454.4250782450817 183.647 456.016 C 174.51275537290215 458.11649758569143 150.02277776052452 417.40230177080105 141.816 419.668 C 135.95400042063525 421.28636014744035 139.20608565860823 444.91128899554946 133.011 446.536 C 122.61699291917746 449.26191189454886 90.52185274022303 398.7929465810376 74.298 392.802 C 65.48369943638835 389.54716252881866 55.04117856361369 398.7123061208898 50.819 393.593 C 41.21306896629527 381.946002887779 86.9846858151244 288.8870377151439 77.968 275.063 C 74.22822951985103 269.32932698270986 59.38902253525604 275.61788786314355 57.425 271.118 C 54.18798506869088 263.70148418068766 90.99944094151037 229.20172483212502 87.512 222.914 C 85.26992923694712 218.87163075313222 66.37831616839216 227.0321627229654 64.026 222.914 C 60.33590567332946 216.45381020727 84.03374734100703 191.38073994675463 93.385 173.131 C 104.06407759314179 152.2899003042678 106.43515869667412 113.12100798644207 123.72 104.131 C 140.82791880218966 95.23301106483444 181.37118874759187 120.8134850572611 196.125 118.611 C 203.13450109370783 117.56460451929146 203.98508288822904 112.42974972860942 210.801 110.712 C 223.59317295525088 107.48811225872178 255.5627589886011 107.43681011948267 269.508 110.712 C 277.9095900304884 112.68520380663328 280.1424524937073 118.90288647139249 288.589 120.198 C 303.0624540134343 122.41722224252132 334.25627639529006 103.3589060772023 350.386 110.411 C 366.5836834999294 117.49280674217495 373.29640638267153 145.38536560914423 385.458 162.861 C 397.9272764768074 180.77876009656308 427.3191173445473 206.33963870643746 424.351 216.59 C 422.4340083672312 223.21030996473758 400.36080037246603 220.5427812015058 398.662 226.866 C 396.19691014579007 236.0414762706406 437.182876268213 263.9796286839989 434.627 272.698 C 432.90569452572174 278.56955976979907 412.8103167679041 274.62910993304064 409.673 281.388 C 404.8102602820669 291.86406142739094 428.97591980950244 321.2779647318482 432.423 340.652 C 435.5236531014776 358.07896984767865 438.41334320069313 385.3766484243319 431.685 392.009 C 427.4296139297269 396.20367551912994 418.70711441512407 388.8103220590002 411.14 392.009 C 397.01262793699243 397.9807497190109 374.6509205830921 443.04177270818775 361.242 443.371 C 352.5462152152748 443.5845063487861 346.9948437566809 422.4171370456363 339.222 422.826 C 329.3951624487218 423.34290603324087 317.61581205487215 458.93200039227514 307.666 459.175 C 299.1802352339368 459.38224386531397 292.9654690917662 434.4693935868581 283.45 433.888 C 271.52794485238024 433.15956440337817 240.886 468.66 240.886 468.66 C 240.88599999999997 468.65999999999997 240.886 468.66 240.886 468.66 C 240.886 468.66 240.88600000000002 468.65999999999997 240.886 468.66" bx:d="M 240.886 468.66 R 196.125 426.777 R 183.647 456.016 R 141.816 419.668 R 133.011 446.536 R 74.298 392.802 R 50.819 393.593 R 77.968 275.063 R 57.425 271.118 R 87.512 222.914 R 64.026 222.914 R 93.385 173.131 R 123.72 104.131 R 196.125 118.611 R 210.801 110.712 R 269.508 110.712 R 288.589 120.198 R 350.386 110.411 R 385.458 162.861 R 424.351 216.59 R 398.662 226.866 R 434.627 272.698 R 409.673 281.388 R 432.423 340.652 R 431.685 392.009 R 411.14 392.009 R 361.242 443.371 R 339.222 422.826 R 307.666 459.175 R 283.45 433.888 R 240.886 468.66 R 240.886 468.66 Z 1@874e14e6"/>
  <path style="stroke-linecap: round; fill: rgb(227, 221, 211);" d="M 235.698 416.284 C 235.698 416.284 208.69476930589266 382.56987743161676 201.318 384.124 C 196.00603818527813 385.24311317764204 197.0474317116295 405.3530486259047 191.734 406.575 C 184.71822393612055 408.18844638773453 165.9081280797002 376.9245327109134 159.605 378.665 C 155.1030474333416 379.9081131146651 157.60075629377536 398.0480156554172 152.843 399.296 C 144.85995550351583 401.3899942986898 120.20762161713951 362.63520176896685 107.747 358.035 C 100.97695013594866 355.5356387066787 92.95651476967404 362.57458800893704 89.714 358.643 C 82.3377134666134 349.6991641981167 117.49005667993467 278.2424979322407 110.566 267.627 C 107.69378997070254 263.22352079173106 96.29517160451002 268.05371433473454 94.787 264.598 C 92.30156565237118 258.90305714505024 120.57364559742571 232.41239673197714 117.896 227.584 C 116.17437306571755 224.47951975393426 101.6633159480883 230.74671840723948 99.857 227.584 C 97.0236948392512 222.6231035440336 115.22454684294712 203.3705785232545 122.407 189.357 C 130.60918365985543 173.35384031817577 132.431396007693 143.2778725904238 145.706 136.374 C 158.84611179937804 129.5400742769122 189.98571461415995 149.18440990389612 201.318 147.493 C 206.70202278200404 146.6894030955607 207.35568987976217 142.7461330811525 212.591 141.427 C 222.4165737814808 138.9512652070691 246.97113996940084 138.91194689475932 257.682 141.427 C 264.1347147198927 142.9421836684575 265.84972482252505 147.71645132920895 272.337 148.711 C 283.45365491199243 150.41526782646025 307.41286083275685 135.77989949442784 319.802 141.196 C 332.2422290932142 146.6344352432925 337.3989535988648 168.05196104808473 346.74 181.471 C 356.31741611411115 195.2295998800241 378.8920239502344 214.85724842284623 376.613 222.728 C 375.14097937470444 227.81171518296495 358.18650889319787 225.7624267733796 356.882 230.618 C 354.9891761416406 237.66336772212304 386.46741311063084 259.11636122876604 384.505 265.811 C 383.183290757997 270.3199211277061 367.748278140203 267.2934823875383 365.339 272.484 C 361.60504764563933 280.528378577962 380.1645596004605 303.11421064164057 382.812 317.991 C 385.19332756725953 331.3724187535771 387.4118011198063 352.3329535769638 382.245 357.426 C 378.97687907627113 360.6474693762531 372.2779799981628 354.969685768508 366.466 357.426 C 355.61564288543366 362.0116810597602 338.4391312389713 396.61314481984977 328.14 396.866 C 321.460937217061 397.0299784544957 317.19714707323675 380.7759634136383 311.227 381.09 C 303.67939163242823 381.4870128604657 294.6319878340524 408.8144099136079 286.99 409.001 C 280.47246473817444 409.16013496513943 275.6994056608537 390.030651528963 268.391 389.584 C 259.23392695651603 389.0243675896637 235.698 416.284 235.698 416.284 C 235.698 416.284 235.698 416.284 235.698 416.284 C 235.698 416.284 235.698 416.2840000000001 235.698 416.284" bx:d="M 235.698 416.284 R 201.318 384.124 R 191.734 406.575 R 159.605 378.665 R 152.843 399.296 R 107.747 358.035 R 89.714 358.643 R 110.566 267.627 R 94.787 264.598 R 117.896 227.584 R 99.857 227.584 R 122.407 189.357 R 145.706 136.374 R 201.318 147.493 R 212.591 141.427 R 257.682 141.427 R 272.337 148.711 R 319.802 141.196 R 346.74 181.471 R 376.613 222.728 R 356.882 230.618 R 384.505 265.811 R 365.339 272.484 R 382.812 317.991 R 382.245 357.426 R 366.466 357.426 R 328.14 396.866 R 311.227 381.09 R 286.99 409.001 R 268.391 389.584 R 235.698 416.284 R 235.698 416.284 Z 1@46fafd7c"/>
  <path style="stroke-linecap: round; fill: rgb(0, 0, 1);" d="M 139.271 216.932 C 139.271 216.932 170.31436714346663 182.72554328831654 179.353 184.698 C 186.16579806739742 186.18472365463643 193.83255310688463 204.30447109174202 192.425 210.833 C 191.32124623965814 215.95244330678878 184.80260096535721 220.38099017958783 178.479 222.164 C 169.09674957422087 224.80943014943156 139.271 216.932 139.271 216.932 C 139.27099999999996 216.93199999999996 139.271 216.932 139.271 216.932 C 139.271 216.932 139.27099999999996 216.93199999999996 139.271 216.932" bx:d="M 139.271 216.932 R 179.353 184.698 R 192.425 210.833 R 178.479 222.164 R 139.271 216.932 R 139.271 216.932 Z 1@7c8b9971"/>
  <path style="stroke-linecap: round; fill: rgb(0, 0, 1);" d="M 343.158 216.932 C 343.158 216.932 303.5057503786481 224.66371525775452 296.109 217.806 C 290.1492036586447 212.28052134910473 289.5214643234626 191.49454217915283 294.368 187.306 C 299.5321643274855 182.84295225840106 320.06498366165766 188.65015543318972 328.345 194.279 C 335.6593157436814 199.25135086881463 343.158 216.932 343.158 216.932 C 343.1580000000001 216.93200000000004 343.158 216.932 343.158 216.932 C 343.158 216.932 343.158 216.932 343.158 216.932" bx:d="M 343.158 216.932 R 296.109 217.806 R 294.368 187.306 R 328.345 194.279 R 343.158 216.932 R 343.158 216.932 Z 1@20de76f9"/>
  <path style="stroke-linecap: round; fill: rgb(0, 0, 1);" d="M 243.83 298.838 C 243.83 298.838 208.7249345063783 278.9505356963807 208.105 270.953 C 207.7024570131069 265.7599483568307 214.6012448466044 259.86277952410296 221.176 257.015 C 231.58821215796164 252.50507014067355 260.36436455031065 251.15034761293313 269.099 257.015 C 274.84116400338826 260.870432321517 278.73380813935387 270.1982409800451 276.939 276.185 C 274.44107834238605 284.5170632924281 243.83 298.838 243.83 298.838 C 243.83000000000004 298.8380000000001 243.83 298.838 243.83 298.838 C 243.83 298.838 243.82999999999998 298.83799999999997 243.83 298.838" bx:d="M 243.83 298.838 R 208.105 270.953 R 221.176 257.015 R 269.099 257.015 R 276.939 276.185 R 243.83 298.838 R 243.83 298.838 Z 1@3bea5f9c"/>
  <path style="stroke: rgb(0, 0, 0); fill: none; stroke-linecap: round; stroke-width: 7px;" d="M 155.826 307.552 C 155.826 307.552 180.48837005945694 335.26544267907184 195.04 337.172 C 210.50366433525375 339.1980522406916 231.70137408606004 315.4393037780119 246.446 316.26 C 258.10517203499865 316.90895769458524 265.30202902053486 332.58650749405564 276.939 332.822 C 292.1431459672367 333.12967993156354 330.093 306.679 330.093 306.679" bx:d="M 155.826 307.552 R 195.04 337.172 R 246.446 316.26 R 276.939 332.822 R 330.093 306.679 1@d9391d59"/>
  <ellipse style="fill: rgb(255, 255, 255);" cx="170.887" cy="199.282" rx="5.846" ry="5.414"/>
  <ellipse style="fill: rgb(255, 255, 255);" cx="304.067" cy="194.534" rx="5.846" ry="5.414"/>
  <ellipse style="fill: rgb(255, 255, 255);" cx="245.07" cy="263.363" rx="16.962" ry="3.905"/>
</svg>