<?xml version="1.0" encoding="utf-8"?>
<svg viewBox="7.395 2.869 489.959 496.992" width="489.959" height="496.992" xmlns="http://www.w3.org/2000/svg" xmlns:bx="https://boxy-svg.com">
  <path style="fill: rgb(124, 121, 111);" d="M 254.71 367.59 C 254.71 367.59 303.788 351.226 323.698 360.471 C 348.3 371.895 363.736 415.39 383.366 447.96 C 392.221 462.653 406.707 481.152 420.258 499.861 L 88.343 499.861 C 101.038 482.057 114.55 464.454 122.902 450.239 C 142.127 417.517 157.132 373.403 182.102 361.376 C 202.731 351.44 254.71 367.59 254.71 367.59 Z"/>
  <path style="stroke-linecap: round; fill: rgb(124, 121, 111);" d="M 141.43 125.28 C 141.43 125.28 106.733 150.368 95.492 166.741 C 84.474 182.79 86.261 208.781 74.176 222.247 C 62.629 235.114 36.463 238.8 25.897 247.056 C 19.497 252.057 15.792 256.141 12.78 262.045 C 9.583 268.31 6.24 278.226 7.784 283.908 C 9.029 288.489 16.05 290.17 17.776 294.521 C 19.633 299.202 15.454 307.287 17.776 311.388 C 19.934 315.199 26.127 316.854 30.267 318.882 C 34.035 320.728 39.78 320.563 41.512 323.252 C 43.185 325.849 38.875 331.942 40.885 334.491 C 43.627 337.969 57.287 334.8 61.497 338.241 C 64.871 340.998 63.139 348.461 66.493 350.732 C 70.516 353.456 80.047 348.975 85.852 350.732 C 91.452 352.427 95.002 359.6 100.841 360.724 C 107.616 362.029 117.328 361.082 124.57 355.728 C 136.024 347.26 146.546 324.848 153.921 302.641 C 164.473 270.867 176.601 211.634 170.788 179.613 C 166.689 157.032 141.43 125.28 141.43 125.28 C 141.43 125.28 141.43 125.28 141.43 125.28 C 141.43 125.28 141.43 125.28 141.43 125.28" bx:d="M 141.43 125.28 R 95.492 166.741 R 74.176 222.247 R 25.897 247.056 R 12.78 262.045 R 7.784 283.908 R 17.776 294.521 R 17.776 311.388 R 30.267 318.882 R 41.512 323.252 R 40.885 334.491 R 61.497 338.241 R 66.493 350.732 R 85.852 350.732 R 100.841 360.724 R 124.57 355.728 R 153.921 302.641 R 170.788 179.613 R 141.43 125.28 R 141.43 125.28 Z 1@1df9ef0e"/>
  <path style="stroke-linecap: round; fill: rgb(124, 121, 111);" d="M 376.254 140.889 C 376.254 140.889 395.711 189.867 412.454 207.204 C 428.948 224.283 460.768 232.907 475.553 244.558 C 484.946 251.96 493.41 258.034 496.165 265.795 C 498.503 272.381 497.139 282.715 494.286 287.026 C 492.273 290.069 486.484 289.082 484.92 292.022 C 482.871 295.873 487.999 305.254 486.792 310.135 C 485.843 313.972 483.841 318.065 480.55 319.502 C 476.206 321.399 463.475 313.811 461.191 316.384 C 458.991 318.862 468.025 329.782 466.187 333.864 C 464.467 337.685 456.093 340.235 451.818 340.739 C 448.616 341.116 445.354 337.661 443.078 338.861 C 440.145 340.408 440.909 350.184 437.455 352.604 C 433.912 355.087 426.834 352.087 421.84 353.23 C 416.841 354.374 412.374 358.454 407.478 359.472 C 402.79 360.447 397.638 360.058 393.115 359.472 C 388.935 358.931 385.952 359.136 381.251 356.348 C 370.546 350 347.909 332.992 337.53 310.135 C 320.161 271.884 301.558 150.941 320.669 132.768 C 331.4 122.564 376.254 140.889 376.254 140.889 C 376.254 140.889 376.254 140.889 376.254 140.889 C 376.254 140.889 376.254 140.889 376.254 140.889" bx:d="M 376.254 140.889 R 412.454 207.204 R 475.553 244.558 R 496.165 265.795 R 494.286 287.026 R 484.92 292.022 R 486.792 310.135 R 480.55 319.502 R 461.191 316.384 R 466.187 333.864 R 451.818 340.739 R 443.078 338.861 R 437.455 352.604 R 421.84 353.23 R 407.478 359.472 R 393.115 359.472 R 381.251 356.348 R 337.53 310.135 R 320.669 132.768 R 376.254 140.889 R 376.254 140.889 Z 1@ea04ba4e"/>
  <path style="stroke-linecap: round; fill: rgb(189, 189, 189);" d="M 139.558 137.422 C 139.558 137.422 147.0418749907299 187.4209517444462 146.427 212.366 C 145.81038043025478 237.38182460583403 136.16607891888168 263.01850000243917 135.814 287.304 C 135.4821413159856 310.19476010407243 130.3469516839141 339.006707012487 143.309 354.127 C 158.35427359635165 371.6773855028696 199.38661036279012 375.23873427267466 230.737 377.863 C 266.03438167891727 380.8176589396887 322.90443166467844 384.3706745360508 345.025 366.618 C 362.5744584946436 352.533830903772 365.30152141355416 319.29619021206884 367.508 297.922 C 369.3595676416324 279.9858372808723 363.80933099854667 264.6876102074 361.892 247.334 C 359.8599193642724 228.941799962995 356.5705636200951 207.42514030917488 355.643 190.503 C 354.89836854794663 176.91820900854168 356.7750732311988 166.85763879747813 355.643 153.657 C 354.30680000297065 138.07612321935576 359.40115756733104 114.2223738318743 346.903 103.075 C 326.0700496403119 84.49364635413495 242.81772469000788 88.39609510784456 204.51 94.954 C 176.83092352624112 99.6923850773302 140.7963468275379 113.47979610438341 135.814 123.68 C 133.6349310400286 128.1411401943091 139.558 137.422 139.558 137.422 C 139.558 137.42200000000003 139.558 137.422 139.558 137.422 C 139.558 137.422 139.55799999999996 137.422 139.558 137.422" bx:d="M 139.558 137.422 R 146.427 212.366 R 135.814 287.304 R 143.309 354.127 R 230.737 377.863 R 345.025 366.618 R 367.508 297.922 R 361.892 247.334 R 355.643 190.503 R 355.643 153.657 R 346.903 103.075 R 204.51 94.954 R 135.814 123.68 R 139.558 137.422 R 139.558 137.422 Z 1@847cc362"/>
  <path style="stroke-linecap: round; fill: rgb(203, 193, 179);" d="M 234.487 394.8 C 234.487 394.8 225.821347852295 408.5810736825644 220.744 408.47 C 214.10151877523444 408.3246869601096 205.40900161126564 384.46652250831926 198.268 384.067 C 192.4090539322818 383.73920553130966 187.4055524709808 398.89692842014915 181.4 398.704 C 174.06197252951108 398.46826581005945 165.6468317097191 378.0450494053835 157.671 375.28 C 151.876917725891 373.27131622508443 144.9586297465554 379.7918581484798 140.184 377.238 C 134.1001046150187 373.9838406979846 128.1119817827841 359.9449237847951 127.068 351.857 C 126.19442411417533 345.08924284053836 132.85884293191447 337.84751178603193 131.438 332.336 C 130.130055867775 327.2624275886456 123.32045676030039 324.63019575939796 120.199 319.646 C 116.71296393912198 314.07966111210703 111.88411064285067 306.66642617669527 112.079 300.125 C 112.28136118806214 293.33278316425594 122.51960443587488 285.88519226084657 122.071 279.637 C 121.66267881188793 273.94987547898177 113.00430785082722 270.55685216698083 111.453 264.02 C 109.38756702329724 255.3167435687805 112.05394864012942 237.6844453591445 115.829 230.831 C 118.10749291641041 226.69449291302033 123.81045181967986 226.86893889775882 125.196 223.022 C 127.13271014351216 217.64477408278975 120.11484067464352 207.3856049998824 120.826 199.599 C 121.57072274384609 191.44490339464178 125.68581614475158 176.71327938054446 130.192 175.206 C 133.57535130862888 174.07429835877767 139.5118696930713 184.26743145761003 142.683 183.013 C 147.15401947112844 181.24436013682057 144.31248444504456 158.69947376575053 150.177 154.707 C 155.61226727292924 151.0067519925279 169.41422426429563 160.865916002899 175.158 157.632 C 180.59490567112536 154.5708609400592 179.50121971993283 140.17446929075956 184.525 137.135 C 189.03217329799898 134.40808638840076 197.47129592810933 135.74289326120285 202.638 138.113 C 207.9173569230459 140.53478364499355 208.75428540864556 148.739374682202 215.748 151.781 C 229.00814310763568 157.5479478024837 270.01499577063595 158.76556377014543 283.824 152.75 C 291.7365049920091 149.30310567145673 292.62713581158204 137.9063217693688 298.812 136.166 C 305.23368282740233 134.35904125684146 317.9065372173257 138.42632956142072 321.922 142.995 C 325.17502965619974 146.6961974037531 321.81549913822374 157.47744258104908 324.42 158.612 C 327.0218163937805 159.74538802671714 333.10854579839724 149.575976075598 337.53 149.824 C 342.4623023797994 150.10068023613857 349.6669599536228 157.45779351911918 352.519 162.516 C 355.0781267664648 167.0547131264058 351.8643865379768 175.292284296002 355.017 178.131 C 358.3935047405577 181.17131469354126 368.8121128086341 175.77524945653295 373.13 179.109 C 378.362714576937 183.1490696663762 380.8661636195896 196.7510533567623 381.251 204.481 C 381.5670685718881 210.82965444294564 376.2323141134127 215.95412577284827 377.5 222.055 C 379.1696462446155 230.0903515409536 394.4545455849053 239.58464290584186 395.613 247.425 C 396.4815180317743 253.30308326602963 392.30247065243435 259.2096209894501 389.991 264.02 C 388.0198134909808 268.12221700149155 384.2479359656652 270.01627109534917 383.123 274.753 C 381.38501315609295 282.0710810025665 388.1060251127126 296.67589884950235 386.247 305.007 C 384.7633437823282 311.655909655638 378.2805374726667 314.8082665318053 376.254 321.603 C 373.60092322993506 330.4984434676846 376.9934621290168 344.8263072746684 375.002 354.782 C 373.2739345700209 363.4209232210172 371.4774546610681 374.3786824501513 366.262 378.205 C 361.7435689500261 381.5199462794401 352.3397909209081 376.4779906848776 347.523 379.185 C 342.8418165855407 381.81579866176736 342.82141639838227 391.0275602786552 337.53 393.822 C 330.43663632171115 397.5680626282627 310.0391874495475 397.7035124205338 305.681 393.822 C 303.14252993548916 391.561174095053 305.7912200086334 383.4246543190999 304.435 383.089 C 302.7555255113452 382.6733426123 299.1665019270561 393.0690212982005 295.068 396.757 C 290.74191960303796 400.64976195307986 282.817214409004 406.7730029041037 278.827 405.534 C 275.0610731352239 404.36464070151953 274.47215691911987 391.07735329439106 271.333 390.897 C 267.2256464166357 390.6610211148805 261.6235613548318 412.80493327495907 255.718 414.321 C 251.14224699195265 415.49568034970645 244.32121047643076 410.0716376287965 240.729 406.513 C 237.5456538869899 403.3594054827608 234.487 394.8 234.487 394.8 C 234.48699999999997 394.79999999999995 234.487 394.8 234.487 394.8 C 234.487 394.8 234.48700000000002 394.80000000000007 234.487 394.8" bx:d="M 234.487 394.8 R 220.744 408.47 R 198.268 384.067 R 181.4 398.704 R 157.671 375.28 R 140.184 377.238 R 127.068 351.857 R 131.438 332.336 R 120.199 319.646 R 112.079 300.125 R 122.071 279.637 R 111.453 264.02 R 115.829 230.831 R 125.196 223.022 R 120.826 199.599 R 130.192 175.206 R 142.683 183.013 R 150.177 154.707 R 175.158 157.632 R 184.525 137.135 R 202.638 138.113 R 215.748 151.781 R 283.824 152.75 R 298.812 136.166 R 321.922 142.995 R 324.42 158.612 R 337.53 149.824 R 352.519 162.516 R 355.017 178.131 R 373.13 179.109 R 381.251 204.481 R 377.5 222.055 R 395.613 247.425 R 389.991 264.02 R 383.123 274.753 R 386.247 305.007 R 376.254 321.603 R 375.002 354.782 R 366.262 378.205 R 347.523 379.185 R 337.53 393.822 R 305.681 393.822 R 304.435 383.089 R 295.068 396.757 R 278.827 405.534 R 271.333 390.897 R 255.718 414.321 R 240.729 406.513 R 234.487 394.8 R 234.487 394.8 Z 1@72f9e3fa"/>
  <path style="stroke-linecap: round; fill: rgb(228, 215, 197);" d="M 248.85 19.308 C 248.85 19.308 261.98117631365375 2.5770263228264163 268.835 2.873 C 276.7002763257481 3.212651975692858 284.3311798150563 23.26978605648019 293.19 26.705 C 300.5858856295617 29.572926982255318 311.71516082671945 22.59137741397894 316.926 25.881 C 321.56290530893193 28.808295954885665 319.61404008077074 39.56148991386201 324.42 43.13 C 330.3144888092403 47.50676200424374 347.67809841317387 41.38952633610647 352.519 46.417 C 356.968881766599 51.03838363851444 350.4500888759881 65.522890278152 354.397 70.248 C 357.950085051301 74.50163434618969 368.6239834035822 70.84448122870604 373.13 75.184 C 378.7428089351511 80.58941500737888 377.7507815731217 95.65234936218366 381.877 103.941 C 385.5147593204297 111.24844546025234 394.1471802359418 115.87093623043067 395.613 122.839 C 397.0844431122017 129.8337954656642 388.90873059119986 140.1016865957779 390.617 145.845 C 391.93617976091696 150.28016857728812 398.8290618429952 151.13581359156288 400.61 155.706 C 403.01026965622697 161.86549504834105 401.6506940745993 175.93807977158238 399.364 181.177 C 398.0798400533641 184.1190689001144 394.9514129538115 184.07809228750077 393.741 186.927 C 391.76760016949663 191.57172391778556 394.04912453111314 201.60038215705228 393.115 208.295 C 392.2625199420363 214.40449398791665 392.77075220857046 222.20857788966825 388.745 225.554 C 383.91201164679654 229.5702397629348 369.83795564894746 230.3365880677801 363.138 227.193 C 356.60493620629325 224.127716815451 354.4617178207214 209.23455214963144 348.775 207.472 C 343.996218745316 205.99085543847977 338.00999701687266 214.14139405316408 332.534 213.221 C 325.7610193311799 212.08261166440198 318.8031953459502 198.80893875593551 311.929 196.787 C 306.51896414144727 195.19572122148045 300.7448308343433 200.2691710092653 295.688 198.435 C 289.54026443238376 196.20514523124436 285.4979015175314 185.14943777354625 278.827 181.177 C 272.17014774303897 177.21292838404625 263.69742517546297 175.84707912902147 255.718 174.603 C 247.47903316641003 173.31845550500452 236.24042917418276 170.48517081625803 230.117 173.779 C 224.67060660347545 176.7086475888458 224.10122768081766 187.02991818499137 219.498 191.037 C 215.36102148778033 194.63821473775388 209.0853699339923 197.87647424307096 204.51 197.611 C 200.4290289280357 197.37421199772828 196.3222839860507 190.06050337946564 193.271 191.037 C 189.50623447311986 192.24183076334722 189.8156970930286 205.9634378163529 185.151 209.119 C 180.46515656683167 212.28886720494575 169.93775564276135 210.14757483041055 165.166 209.935 C 162.48753332493274 209.81567817343569 161.00648432239151 208.13486970665215 158.917 209.119 C 154.98529211574746 210.9708027591894 152.4997700548888 224.21261991112243 147.053 228.017 C 141.92339337743633 231.59985242483106 133.4535405013921 233.852424697438 127.694 232.127 C 121.47070372442221 230.26264483299306 114.8854671562374 222.17482119007315 111.453 215.692 C 108.05694760259327 209.27795452122533 108.90627400530826 199.86845148236543 107.083 193.5 C 105.64528504371101 188.47825454762105 102.273971672057 185.55816629088145 102.086 180.354 C 101.81934785255497 172.97149335983053 108.65334864202244 162.37728140495415 110.207 153.243 C 111.72863005037445 144.29697938669653 110.44756819183665 133.6428047727673 111.453 126.125 C 112.18313951671261 120.6656080263614 112.1784002060809 114.98390605258189 114.577 112.154 C 116.4533914228473 109.94020366015607 120.71092992841643 111.42880408118545 122.698 108.867 C 126.26198755503998 104.27217569341711 122.1457777559693 85.19363322322907 126.442 80.933 C 129.38429643458295 78.01507694348435 136.10353455846592 81.85329955256252 139.558 79.286 C 143.97110822635895 76.00625354814089 145.13762583915891 65.66489949025387 148.305 59.565 C 151.2145959581466 53.96154363498685 153.46438481221614 46.00010910298138 157.671 43.954 C 161.25571051448554 42.21038702666643 166.87231476225148 47.34887806742748 170.788 45.602 C 175.95279323696838 43.297865862383375 177.88662937371876 30.271329045984327 183.899 26.705 C 189.94276804340166 23.120047098700482 201.86717710447178 27.69385836352801 207.008 24.234 C 211.25314430148737 21.37694806213607 210.56480556845236 13.539377990096984 214.502 10.27 C 218.81367701633067 6.689658164542956 227.0610479453062 3.2964178268086144 232.615 4.513 C 238.58569643758838 5.820869203042251 248.85 19.308 248.85 19.308 C 248.85 19.307999999999996 248.85 19.308 248.85 19.308 C 248.85 19.308 248.85 19.307999999999996 248.85 19.308" bx:d="M 248.85 19.308 R 268.835 2.873 R 293.19 26.705 R 316.926 25.881 R 324.42 43.13 R 352.519 46.417 R 354.397 70.248 R 373.13 75.184 R 381.877 103.941 R 395.613 122.839 R 390.617 145.845 R 400.61 155.706 R 399.364 181.177 R 393.741 186.927 R 393.115 208.295 R 388.745 225.554 R 363.138 227.193 R 348.775 207.472 R 332.534 213.221 R 311.929 196.787 R 295.688 198.435 R 278.827 181.177 R 255.718 174.603 R 230.117 173.779 R 219.498 191.037 R 204.51 197.611 R 193.271 191.037 R 185.151 209.119 R 165.166 209.935 R 158.917 209.119 R 147.053 228.017 R 127.694 232.127 R 111.453 215.692 R 107.083 193.5 R 102.086 180.354 R 110.207 153.243 R 111.453 126.125 R 114.577 112.154 R 122.698 108.867 R 126.442 80.933 R 139.558 79.286 R 148.305 59.565 R 157.671 43.954 R 170.788 45.602 R 183.899 26.705 R 207.008 24.234 R 214.502 10.27 R 232.615 4.513 R 248.85 19.308 R 248.85 19.308 Z 1@789f383a"/>
  <ellipse style="stroke-linecap: round; fill: rgb(0, 0, 1);" cx="296.314" cy="198.346" rx="18.113" ry="23.109"/>
  <ellipse style="stroke-linecap: round; fill: rgb(0, 0, 1);" cx="207.008" cy="198.972" rx="18.113" ry="23.109"/>
  <path style="stroke-linecap: round; fill: rgb(0, 0, 1);" d="M 251.974 314.506 C 251.974 314.506 223.6414584752003 299.465506369761 222.623 291.403 C 221.76141735176904 284.582382607552 231.42001718852194 273.65734300983775 238.857 270.165 C 246.8985978639585 266.38873497424566 263.1003929795099 267.4969096385393 270.087 271.418 C 275.39107220970635 274.3948020953484 279.9139856292818 281.25709885263706 280.08 286.406 C 280.24935621669925 291.6585478047679 275.0849721933164 298.07968943310897 270.707 302.641 C 265.94554562478805 307.6018520101111 251.974 314.506 251.974 314.506 C 251.97400000000002 314.50600000000003 251.974 314.506 251.974 314.506 C 251.974 314.506 251.97400000000005 314.50600000000003 251.974 314.506" bx:d="M 251.974 314.506 R 222.623 291.403 R 238.857 270.165 R 270.087 271.418 R 280.08 286.406 R 270.707 302.641 R 251.974 314.506 R 251.974 314.506 Z 1@092a861b"/>
  <path style="stroke: rgb(0, 0, 0); fill: none; stroke-linecap: round; stroke-width: 7px;" d="M 190.147 330.747 C 190.147 330.747 197.497520449108 342.96734971248014 202.012 343.857 C 206.2956131774632 344.7011543819157 211.78561538807065 336.8589854620292 216.374 336.989 C 220.7158071302749 337.1120276220814 224.74781849754845 343.5847426615696 228.865 343.857 C 232.652675647958 344.1074680665978 236.56773692710877 341.72696494636307 240.11 339.487 C 244.12009698902327 336.9511983099249 247.42545711493997 328.6968735657275 251.348 328.868 C 256.08668330816766 329.0747317047729 261.26587519571547 344.5123666764002 266.337 345.735 C 270.04533865095686 346.6290695772311 274.1990299794502 342.5802294928327 277.582 341.359 C 280.31918700252754 340.37089384636 282.52069527994973 338.6786950353335 285.076 338.861 C 287.918427215758 339.0637893538762 290.5416265501086 342.93203843451397 293.816 343.237 C 297.6844103987618 343.5972877036486 303.9474626605642 341.6149482640362 306.933 339.487 C 309.16422598034137 337.8966888058226 311.303 333.245 311.303 333.245" bx:d="M 190.147 330.747 R 202.012 343.857 R 216.374 336.989 R 228.865 343.857 R 240.11 339.487 R 251.348 328.868 R 266.337 345.735 R 277.582 341.359 R 285.076 338.861 R 293.816 343.237 R 306.933 339.487 R 311.303 333.245 1@91c39575"/>
  <ellipse style="fill: rgb(255, 255, 255);" cx="290.295" cy="190.27" rx="5.846" ry="5.414"/>
  <ellipse style="fill: rgb(255, 255, 255);" cx="201.819" cy="190.218" rx="5.846" ry="5.414"/>
  <ellipse style="fill: rgb(255, 255, 255);" cx="252.375" cy="281.439" rx="16.962" ry="3.905"/>
</svg>