<?xml version="1.0" encoding="utf-8"?>
<svg viewBox="94.268 1.655 319.25 498.461" width="319.25" height="498.461" xmlns="http://www.w3.org/2000/svg" xmlns:bx="https://boxy-svg.com">
  <path style="fill: rgb(153, 123, 102);" d="M 255.145 394.737 C 255.145 394.737 304.223 378.373 324.133 387.618 C 348.735 399.042 364.171 442.537 383.801 475.107 C 388.323 482.61 394.314 491.106 400.898 500.116 L 108.211 500.116 C 114.013 491.984 119.283 484.286 123.337 477.386 C 142.562 444.664 157.567 400.55 182.537 388.523 C 203.166 378.587 255.145 394.737 255.145 394.737 Z"/>
  <path style="stroke-linecap: round; fill: rgb(208, 140, 96);" d="M 259.602 435.946 C 259.602 435.946 287.43232098224206 440.45751011861205 303.354 432.666 C 333.2685299835415 418.02688041968935 392.4606394346579 356.9317933265571 407.264 317.813 C 418.66580367647066 287.68303055143616 406.38222661906707 261.31392078026363 406.172 225.938 C 405.8845950467097 177.57488164431467 413.37949059675344 93.68602102401698 406.172 54.21 C 402.1823924885667 32.35859029162519 396.02514085918096 8.814211987474847 387.578 4.987 C 382.54357497518095 2.706013791028611 376.7654101685624 6.229978241761549 370.078 11.55 C 352.80535520023034 25.290871853363903 316.973881911767 106.97772358715281 301.167 115.462 C 296.03911167044805 118.21437217845879 294.0900039821942 115.46199999999999 288.045 115.462 C 274.5259001182295 115.462 236.660519771304 114.95430894550015 222.415 115.462 C 215.5247147480719 115.70756044577627 212.40518556892007 119.48125186598989 207.1 116.555 C 194.39311129256504 109.54609214786122 179.79855895029726 58.803391948115355 165.534 38.895 C 155.1777024869511 24.441189634080978 143.7770737737396 4.7710247653829105 133.818 4.987 C 124.53552685604281 5.1883022857988355 113.68851847194418 19.909397036804467 107.568 35.611 C 95.46936652974183 66.6488834763781 104.08249511239009 156.89480204949263 102.096 193.123 C 101.04790116492244 212.23743518388562 99.43239637784926 220.40705005969025 98.816 236.874 C 98.01936537092192 258.1559916358338 88.99265838071072 284.8868374418475 98.816 310.157 C 113.27223513412554 347.3451001370141 173.55085673818698 409.6504375193086 206.007 427.195 C 224.99233116714151 437.4577513747277 259.602 435.946 259.602 435.946 C 259.602 435.946 259.602 435.946 259.602 435.946 C 259.602 435.946 259.602 435.94599999999997 259.602 435.946" bx:d="M 259.602 435.946 R 303.354 432.666 R 407.264 317.813 R 406.172 225.938 R 406.172 54.21 R 387.578 4.987 R 370.078 11.55 R 301.167 115.462 R 288.045 115.462 R 222.415 115.462 R 207.1 116.555 R 165.534 38.895 R 133.818 4.987 R 107.568 35.611 R 102.096 193.123 R 98.816 236.874 R 98.816 310.157 R 206.007 427.195 R 259.602 435.946 R 259.602 435.946 Z 1@b4bf1516"/>
  <path style="stroke-linecap: round; fill: rgb(64, 61, 57);" d="M 279.294 262.032 C 279.294 262.032 238.1160299024244 268.2119022702357 232.257 260.939 C 227.23709954432871 254.7077217801531 240.32532532891506 237.99408723931484 238.823 227.031 C 237.27458807784194 215.73159989118759 231.08826932247743 199.38397947441393 222.415 194.215 C 214.07467540638171 189.24444448840794 199.65940261636922 192.78762188297551 188.506 195.309 C 176.67020379642136 197.98464245385227 160.58299377328927 201.99018814033758 153.504 210.622 C 146.64860059951076 218.981170772426 143.51197022283796 235.38967194751228 145.847 245.624 C 148.05182543972612 255.28764843366278 157.18717248030512 266.3111303600774 165.534 270.782 C 173.4217401879191 275.00696547946563 190.46684812592903 268.44032822985787 193.978 272.968 C 196.83452692756634 276.65152517762147 192.70329408673484 284.66398742516134 190.693 291.562 C 187.98240277421544 300.862994253609 178.10850076580655 310.69166950763986 177.569 323.283 C 176.80500363756278 341.1138008145752 184.52404593997858 374.71560234504693 198.35 388.914 C 211.27804032043824 402.19029591216537 237.06229383296485 407.8504659189232 255.23 408.602 C 271.54602014060106 409.2769363453183 289.65482021995865 406.87148567964414 302.261 396.566 C 317.9645620008635 383.7284206426499 334.5489501220676 350.695008757348 335.076 328.755 C 335.5625457754957 308.5010942081966 304.58463621800195 276.92019914015253 309.918 269.69 C 313.676964896101 264.5941419504537 332.58082779681286 276.6153188074795 341.64 272.968 C 351.4311957315586 269.0259607564074 363.9626327306101 255.5731987683527 365.705 244.531 C 367.64344572178584 232.2461600941654 357.53272347215835 210.95475319265893 348.204 201.872 C 340.20197194869405 194.08096127453445 326.9107623321582 190.93632995950776 316.483 189.838 C 306.87992774157317 188.82653257019282 295.5652693905998 189.7075595472642 288.045 194.215 C 280.71394484785895 198.60903069726496 273.88534342807486 206.8696193206642 271.637 216.088 C 268.70254853585453 228.11947630550802 279.294 262.032 279.294 262.032 C 279.29400000000004 262.03200000000004 279.294 262.032 279.294 262.032 C 279.294 262.032 279.294 262.03200000000004 279.294 262.032" bx:d="M 279.294 262.032 R 232.257 260.939 R 238.823 227.031 R 222.415 194.215 R 188.506 195.309 R 153.504 210.622 R 145.847 245.624 R 165.534 270.782 R 193.978 272.968 R 190.693 291.562 R 177.569 323.283 R 198.35 388.914 R 255.23 408.602 R 302.261 396.566 R 335.076 328.755 R 309.918 269.69 R 341.64 272.968 R 365.705 244.531 R 348.204 201.872 R 316.483 189.838 R 288.045 194.215 R 271.637 216.088 R 279.294 262.032 R 279.294 262.032 Z 1@b69b18b7"/>
  <path style="stroke-linecap: round; fill: rgb(64, 61, 57);" d="M 115.113 228.686 C 115.113 228.686 201.77246782469018 157.9178736328731 204.914 119.834 C 207.989722207127 82.54792131946087 156.57006731572204 4.56773214367161 137.097 2.8 C 125.39097823218658 1.7373471257516597 112.44360832945628 20.93435661363514 105.375 39.988 C 91.39719084046936 77.66559913058386 92.68020483290212 221.62713907817198 104.563 231.121 C 107.39119989599409 233.3806145178066 115.113 228.686 115.113 228.686 C 115.11299999999999 228.686 115.113 228.686 115.113 228.686" bx:d="M 115.113 228.686 R 204.914 119.834 R 137.097 2.8 R 105.375 39.988 R 104.563 231.121 R 115.113 228.686 Z 1@d38aba71"/>
  <path style="stroke-linecap: round; fill: rgb(64, 61, 57);" d="M 392.061 225.408 C 392.061 225.408 304.13784962376644 155.8635163285943 302.261 118.741 C 300.3690664341835 81.32013590930161 363.4925172951254 -0.5910111575082753 382.113 1.702 C 396.34976382918524 3.4551800235546932 406.2801625408267 48.78888110322156 410.799 79.401 C 416.85411137053813 120.42035307097038 412.335195672141 220.11875654513705 401.799 227.843 C 399.06167230595537 229.84977608716446 392.061 225.408 392.061 225.408 C 392.061 225.40799999999996 392.06100000000004 225.40799999999996 392.061 225.408" bx:d="M 392.061 225.408 R 302.261 118.741 R 382.113 1.702 R 410.799 79.401 R 401.799 227.843 R 392.061 225.408 Z 1@82f0b46a"/>
  <path style="stroke-linecap: round; fill: rgb(255, 181, 167);" d="M 388.67 182.18 C 388.67 182.18 328.28625944243606 151.84302233403875 324.139 129.678 C 319.40786940809005 104.3924791179636 366.6751587996362 33.11823932111772 377.734 35.611 C 390.61922657931535 38.51544410706879 388.67 182.18 388.67 182.18 C 388.67 182.17999999999998 388.67 182.18 388.67 182.18 C 388.67 182.18 388.6700000000001 182.18 388.67 182.18" bx:d="M 388.67 182.18 R 324.139 129.678 R 377.734 35.611 R 388.67 182.18 R 388.67 182.18 Z 1@bd46b4ac"/>
  <path style="stroke-linecap: round; fill: rgb(255, 181, 167);" d="M 126.16 177.807 C 126.16 177.807 183.08864847073878 142.59403653953316 186.32 119.834 C 189.8717962373713 94.81690996460271 146.3988133228431 29.927458678901903 136.004 32.33 C 123.51059817004877 35.21758568386977 126.16 177.807 126.16 177.807 C 126.15999999999998 177.80700000000002 126.16 177.807 126.16 177.807 C 126.16 177.807 126.16 177.807 126.16 177.807" bx:d="M 126.16 177.807 R 186.32 119.834 R 136.004 32.33 R 126.16 177.807 R 126.16 177.807 Z 1@f793c7a7"/>
  <ellipse style="stroke-linecap: round; fill: rgb(0, 0, 1);" cx="199.993" cy="235.231" rx="21.329" ry="18.05"/>
  <ellipse style="stroke-linecap: round; fill: rgb(0, 0, 1);" cx="316.483" cy="231.402" rx="21.329" ry="18.05"/>
  <path style="stroke-linecap: round; fill: rgb(0, 0, 1);" d="M 255.23 338.599 C 255.23 338.599 223.3236056070853 322.9598318571478 221.321 314.534 C 219.89649782688235 308.5405004570222 225.5895416673576 299.5848446495191 231.165 295.94 C 237.7794836659575 291.61591326832297 251.97508092891255 292.44446750177997 260.695 293.748 C 268.06096373001395 294.8491309880867 277.40933661347634 296.7648472092041 280.388 301.406 C 283.18502131219174 305.7641303371595 282.2551713852678 314.3973474955744 279.294 320.005 C 275.51081811247496 327.1693166254491 255.23 338.599 255.23 338.599 C 255.23000000000008 338.59900000000005 255.23 338.599 255.23 338.599 C 255.23 338.599 255.23 338.599 255.23 338.599" bx:d="M 255.23 338.599 R 221.321 314.534 R 231.165 295.94 R 260.695 293.748 R 280.388 301.406 R 279.294 320.005 R 255.23 338.599 R 255.23 338.599 Z 1@8fe3183f"/>
  <path style="stroke: rgb(0, 0, 0); fill: none; stroke-linecap: round; stroke-width: 7px;" d="M 201.635 336.407 C 201.635 336.407 212.37126426441625 366.66374183639107 220.229 373.601 C 225.63996568733052 378.37810973626335 232.98967589814842 380.8936071048911 238.823 380.164 C 244.65672617141647 379.43434260597604 249.71902815438193 369.3536293200439 255.23 369.222 C 260.6582783006974 369.09234581163776 266.27032105184065 377.57954188289796 271.637 379.066 C 276.0815114692272 380.2970369623008 280.4338069655669 381.5266572001375 284.76 379.066 C 292.95438138192486 374.4051900482435 308.825 338.599 308.825 338.599" bx:d="M 201.635 336.407 R 220.229 373.601 R 238.823 380.164 R 255.23 369.222 R 271.637 379.066 R 284.76 379.066 R 308.825 338.599 1@c56d9d3f"/>
  <ellipse style="fill: rgb(255, 255, 255);" cx="192.612" cy="227.476" rx="5.578" ry="5.166"/>
  <ellipse style="fill: rgb(255, 255, 255);" cx="309.38" cy="223.289" rx="5.578" ry="5.166"/>
  <ellipse style="fill: rgb(255, 255, 255);" cx="252.159" cy="302.839" rx="18.593" ry="3.926"/>
</svg>