<?xml version="1.0" encoding="utf-8"?>
<svg viewBox="112.7 4.552 296.231 496.457" width="296.231" height="496.457" xmlns="http://www.w3.org/2000/svg" xmlns:bx="https://boxy-svg.com">
  <path style="fill: rgb(46, 44, 41);" d="M 263.178 395.63 C 263.178 395.63 312.256 379.266 332.166 388.511 C 356.768 399.935 372.204 443.43 391.834 476 C 396.356 483.503 402.347 491.999 408.931 501.009 L 116.244 501.009 C 122.046 492.877 127.316 485.179 131.37 478.279 C 150.595 445.557 165.6 401.443 190.57 389.416 C 211.199 379.48 263.178 395.63 263.178 395.63 Z"/>
  <path style="stroke-linecap: round; fill: rgb(64, 61, 57);" d="M 262.661 436.842 C 262.661 436.842 288.758 440.847 302.499 433.569 C 326.393 420.914 362.82 374.508 378.368 339.48 C 393.442 305.52 392.857 268.756 396.118 227.264 C 400.123 176.304 402.728 95.351 396.118 55.888 C 392.478 34.159 387.103 10.343 379.187 6.766 C 374.629 4.706 369.269 8.162 363.253 13.316 C 347.296 26.986 315.159 108.755 300.507 117.015 C 295.907 119.608 294.063 117.015 288.559 117.015 C 276.249 117.015 241.771 116.508 228.801 117.015 C 222.526 117.26 219.628 120.834 214.856 118.106 C 203.005 111.333 190.083 60.544 177.009 40.605 C 167.619 26.285 157.191 6.572 148.131 6.766 C 139.67 6.947 129.826 21.884 124.229 37.327 C 112.96 68.419 121.056 158.361 119.247 194.517 C 118.293 213.59 115.187 220.677 116.26 238.178 C 117.91 265.101 120.723 309.03 135.897 339.873 C 152.076 372.758 188.43 413.814 213.861 428.109 C 230.362 437.385 262.661 436.842 262.661 436.842 C 262.661 436.842 262.661 436.842 262.661 436.842 C 262.661 436.842 262.661 436.842 262.661 436.842" bx:d="M 262.661 436.842 R 302.499 433.569 R 378.368 339.48 R 396.118 227.264 R 396.118 55.888 R 379.187 6.766 R 363.253 13.316 R 300.507 117.015 R 288.559 117.015 R 228.801 117.015 R 214.856 118.106 R 177.009 40.605 R 148.131 6.766 R 124.229 37.327 R 119.247 194.517 R 116.26 238.178 R 135.897 339.873 R 213.861 428.109 R 262.661 436.842 R 262.661 436.842 Z 1@8e2b2f00"/>
  <path style="stroke-linecap: round; fill: rgb(64, 61, 57);" d="M 131.099 230.007 C 131.099 230.007 209.85158606443778 159.24191867709558 212.866 121.378 C 215.83742436181862 84.05407143673342 168.91482335849756 6.145626999925152 151.116 4.584 C 140.4968322726437 3.6522991394565283 128.70612153487133 22.954484644378677 122.232 41.695 C 109.1933289257105 79.43779092050963 110.09755428732348 223.52975999682891 121.493 232.437 C 124.09024206486869 234.46713194932624 131.099 230.007 131.099 230.007 C 131.099 230.007 131.09900000000002 230.007 131.099 230.007" bx:d="M 131.099 230.007 R 212.866 121.378 R 151.116 4.584 R 122.232 41.695 R 121.493 232.437 R 131.099 230.007 Z 1@2124f905"/>
  <path style="stroke-linecap: round; fill: rgb(64, 61, 57);" d="M 385.054 230.305 C 385.054 230.305 305.1042086709967 160.81692731870345 303.288 123.857 C 301.4492409864216 86.4381722057414 359.0692064175825 5.0866355018668505 375.996 7.058 C 389.0495536075768 8.578270926159643 397.98420008843294 54.138912048915195 402.116 84.598 C 407.6797799219053 125.61345709107674 403.9721314475434 225.49815872384036 393.921 232.735 C 391.41891350242656 234.53650890839117 385.054 230.305 385.054 230.305 C 385.054 230.30499999999998 385.054 230.30499999999998 385.054 230.305" bx:d="M 385.054 230.305 R 303.288 123.857 R 375.996 7.058 R 402.116 84.598 R 393.921 232.735 R 385.054 230.305 Z 1@9b2f9869"/>
  <path style="stroke-linecap: round; fill: rgb(217, 140, 125);" d="M 380.182 183.596 C 380.182 183.596 325.4410980943468 153.07905529136445 321.424 131.202 C 316.76704700546634 105.84030462739491 360.133690755093 35.22154839503514 370.224 37.327 C 382.10182143151053 39.8054352579761 380.182 183.596 380.182 183.596 C 380.1820000000001 183.59600000000003 380.182 183.596 380.182 183.596 C 380.182 183.596 380.182 183.596 380.182 183.596" bx:d="M 380.182 183.596 R 321.424 131.202 R 370.224 37.327 R 380.182 183.596 R 380.182 183.596 Z 1@fd0d11c8"/>
  <path style="stroke-linecap: round; fill: rgb(217, 140, 125);" d="M 141.158 179.232 C 141.158 179.232 192.8168147922651 143.91903818606602 195.935 121.378 C 199.40410245507508 96.30021734704889 159.607127241394 32.023646115534696 150.121 34.053 C 138.6001055619855 36.51764877450492 141.158 179.232 141.158 179.232 C 141.15800000000002 179.232 141.158 179.232 141.158 179.232 C 141.158 179.232 141.15799999999996 179.23199999999997 141.158 179.232" bx:d="M 141.158 179.232 R 195.935 121.378 R 150.121 34.053 R 141.158 179.232 R 141.158 179.232 Z 1@09666001"/>
  <ellipse style="stroke-linecap: round; fill: rgb(0, 0, 1);" cx="204.402" cy="227.647" rx="19.421" ry="18.013"/>
  <ellipse style="stroke-linecap: round; fill: rgb(0, 0, 1);" cx="310.47" cy="223.826" rx="19.421" ry="18.013"/>
  <path style="stroke-linecap: round; fill: rgb(0, 0, 1);" d="M 262.25 359.331 C 262.25 359.331 233.31834315322138 343.62037124816004 231.375 335.316 C 229.96445122219387 329.28838686583816 235.09034806278055 320.35788612706625 240.338 316.76 C 246.34213417575612 312.6434558171091 259.3071628577439 313.28703698983855 267.226 314.572 C 273.9572116721909 315.6642510283964 282.37604325572585 317.75088449184653 285.157 322.215 C 287.87261231471587 326.57422172224216 286.9649444623891 335.12787001155147 284.161 340.775 C 280.6759826681164 347.79380730846367 262.25 359.331 262.25 359.331 C 262.25 359.331 262.25 359.331 262.25 359.331 C 262.25 359.331 262.25 359.331 262.25 359.331" bx:d="M 262.25 359.331 R 231.375 335.316 R 240.338 316.76 R 267.226 314.572 R 285.157 322.215 R 284.161 340.775 R 262.25 359.331 R 262.25 359.331 Z 1@34451115"/>
  <path style="stroke: rgb(0, 0, 0); fill: none; stroke-linecap: round; stroke-width: 7px;" d="M 213.45 357.144 C 213.45 357.144 223.04778035936602 387.3481091873688 230.381 394.262 C 235.2725728687429 398.87386250703855 242.0215553823822 401.50809224943697 247.311 400.811 C 252.65140755404747 400.1071913804028 257.2268301409305 390.01637490285583 262.25 389.892 C 267.1876324539561 389.76974302402095 272.2685038414484 398.2422176916282 277.189 399.715 C 281.2115447907481 400.9190112646263 285.24219913310793 402.0335007284164 289.138 399.715 C 296.77729343655403 395.1686414969876 311.05 359.331 311.05 359.331" bx:d="M 213.45 357.144 R 230.381 394.262 R 247.311 400.811 R 262.25 389.892 R 277.189 399.715 R 289.138 399.715 R 311.05 359.331 1@3af5ecb1"/>
  <ellipse style="fill: rgb(255, 255, 255);" cx="197.681" cy="219.908" rx="5.079" ry="5.155"/>
  <ellipse style="fill: rgb(255, 255, 255);" cx="304.003" cy="215.73" rx="5.079" ry="5.155"/>
  <ellipse style="fill: rgb(255, 255, 255);" cx="259.454" cy="323.645" rx="16.93" ry="3.918"/>
</svg>