<?xml version="1.0" encoding="utf-8"?>
<svg viewBox="11.237 75.143 474.695 425.527" width="474.695" height="425.527" xmlns="http://www.w3.org/2000/svg" xmlns:bx="https://boxy-svg.com">
  <path style="fill: rgb(64, 61, 57);" d="M 244.48 400.582 C 244.48 400.582 289.781 385.478 308.158 394.011 C 330.867 404.555 410.273 437.563 428.392 467.626 C 433.058 475.368 451.915 490.504 458.841 499.919 L 33.541 499.919 C 39.729 491.321 59.675 478.716 63.906 471.515 C 81.652 441.312 154.411 405.948 177.46 394.846 C 196.501 385.675 244.48 400.582 244.48 400.582 Z"/>
  <path style="stroke-linecap: round; fill: rgb(64, 61, 57);" d="M 248.097 413.181 C 248.097 413.181 282.946768339647 416.4302002943037 299.376 407.43 C 322.885863103357 394.5509146479752 352.4451477627481 360.3683877799322 365.828 325.28 C 382.9198424168812 280.46704204716127 377.06458205035943 193.6691920882066 374.2 153.138 C 372.61532281297815 130.71628041374422 376.62958536672085 114.03454106735468 364.254 101.342 C 345.3826293271833 81.98730766309386 283.29878175971606 74.57180979642301 244.437 75.177 C 207.3534415794744 75.75449812936118 156.65517001966006 79.54041127249103 136.129 102.388 C 115.81595500688152 124.99836020658678 121.8696091289656 173.86897379281132 120.954 210.697 C 120.0064004498761 248.81175875662012 119.15655910719137 293.9657104201733 131.423 327.371 C 142.38104550087797 357.21312669221356 163.27225763547702 390.1703951770694 185.31 403.763 C 203.4712421144248 414.9646277834493 248.097 413.181 248.097 413.181 C 248.09700000000004 413.1810000000001 248.097 413.181 248.097 413.181 C 248.097 413.181 248.097 413.181 248.097 413.181" bx:d="M 248.097 413.181 R 299.376 407.43 R 365.828 325.28 R 374.2 153.138 R 364.254 101.342 R 244.437 75.177 R 136.129 102.388 R 120.954 210.697 R 131.423 327.371 R 185.31 403.763 R 248.097 413.181 R 248.097 413.181 Z 1@164d111c"/>
  <path style="stroke-linecap: round; fill: rgb(64, 61, 57);" d="M 138.933 98.637 C 138.933 98.637 127.71374290124177 92.78517753237087 121.139 95.482 C 105.92354452868194 101.72306262200921 83.36700174787065 148.57862080894526 65.155 174.432 C 47.64882207128296 199.2834063661405 20.10989099962703 224.29042393563563 13.882 247.702 C 9.13249781408915 265.5560908471224 10.826118114130939 283.51782052198286 18.587 299.499 C 27.987952114803967 318.85740607038224 59.6975769387132 334.9268856932085 74.049 351.92 C 85.32299831063581 365.2692226637789 90.06418658191684 390.4216975125964 100.214 391.078 C 111.78670011179206 391.8263085212004 133.2827538093493 364.8657648994506 140.502 344.976 C 149.5435223307101 320.06567712946975 139.2450236780758 279.27284356999155 138.404 248.964 C 137.64735275112332 221.6959174219489 135.66770732266144 196.7346838532649 135.79 171.276 C 135.90827382411706 146.6539542500481 138.933 98.637 138.933 98.637 C 138.933 98.637 138.933 98.63699999999999 138.933 98.637" bx:d="M 138.933 98.637 R 121.139 95.482 R 65.155 174.432 R 13.882 247.702 R 18.587 299.499 R 74.049 351.92 R 100.214 391.078 R 140.502 344.976 R 138.404 248.964 R 135.79 171.276 R 138.933 98.637 Z 1@f62ae360"/>
  <path style="stroke-linecap: round; fill: rgb(64, 61, 57);" d="M 358.408 99.856 C 358.408 99.856 363.2805016522182 93.80451561638417 366.78 94.141 C 374.12323913190835 94.84706842681042 388.03653248451866 112.54325147618955 398.173 125.868 C 411.46948598734826 143.3467056497927 422.1173194556387 171.88574757802002 436.37 192.495 C 450.1274671551489 212.3881781572649 475.2683437652528 228.0702068576165 481.892 247.703 C 487.6450645975291 264.7553232449076 487.51952032067635 284.45871074768274 479.8 301.644 C 469.7945316201243 323.9182943952785 429.37440890111685 345.6596109983101 414.393 364.46 C 404.3570741273592 377.0542300649509 401.6902835138519 399.1394394850398 393.468 399.364 C 382.8253478151888 399.6546637129621 362.32722807984237 366.2997095538962 355.271 342.887 C 346.16326663061164 312.6673538010664 355.82120136631266 268.3995845897247 356.317 229.302 C 356.846307772744 187.56195875593872 358.408 99.856 358.408 99.856 C 358.408 99.856 358.408 99.856 358.408 99.856" bx:d="M 358.408 99.856 R 366.78 94.141 R 398.173 125.868 R 436.37 192.495 R 481.892 247.703 R 479.8 301.644 R 414.393 364.46 R 393.468 399.364 R 355.271 342.887 R 356.317 229.302 R 358.408 99.856 Z 1@726f1e48"/>
  <path style="stroke-linecap: round; stroke-linejoin: round; fill: rgb(0, 0, 1);" d="M 195.18 225.85 C 195.18 225.85 155.1173749899317 227.91583642171665 152.387 221.692 C 149.8107953093285 215.81959176203878 166.12894903192964 192.6296176218749 175.463 191.154 C 185.3468209150996 189.59146939419256 210.73666703691532 209.39601944993532 210.638 215.744 C 210.573275741485 219.90819046335795 195.18 225.85 195.18 225.85 C 195.18 225.85 195.17999999999998 225.84999999999994 195.18 225.85" bx:d="M 195.18 225.85 R 152.387 221.692 R 175.463 191.154 R 210.638 215.744 R 195.18 225.85 Z 1@95af713d"/>
  <path style="fill: rgb(213, 153, 113);" d="M 245.864 406.158 C 245.864 406.158 284.232 403.213 300.158 410.423 C 319.839 419.333 348.253 443.441 363.957 468.844 C 368 475.386 369.943 492.714 375.946 500.67 L 108.631 499.777 C 113.994 492.512 112.656 479.383 116.323 473.298 C 131.702 447.776 166.912 420.51 186.887 411.129 C 203.39 403.379 245.864 406.158 245.864 406.158 Z"/>
  <path style="stroke-linecap: round; stroke-linejoin: round; fill: rgb(208, 140, 96);" d="M 283.862 427.933 C 274.059 426.466 282.477 429.561 268.573 426.637 C 254.669 423.713 246.266 424.605 233.964 420.234 C 221.661 415.863 187.56 403.882 182.56 398.075 C 178.706 393.598 164.452 376.902 161.795 370.022 C 159.139 363.142 158.406 351.234 157.329 343.804 C 156.252 336.374 165.429 318.122 168.659 315.149 C 173.741 310.472 202.833 289.4 220.014 290.227 C 237.195 291.053 270.285 197.33 291.062 201.84 C 311.839 206.35 306.205 309.693 322.075 316.068 C 337.946 322.442 347.503 348.295 349.964 354.714 C 351.639 359.083 356.682 378.877 352.289 386.238 C 347.896 393.599 323.871 407.888 317.176 415.519 C 310.48 423.149 295.003 421.276 289.772 426.453" transform="matrix(0.961262, -0.275637, 0.275637, 0.961262, -93.071327, 76.165482)"/>
  <path style="fill: rgb(237, 237, 237);" d="M 229.793 92.503 C 229.793 92.503 230.688 108.949 231.024 128.999 C 231.36 149.049 231.137 172.702 228.9 187.116 C 226.937 199.763 223.644 211.812 219.811 223.377 C 215.978 234.943 211.604 246.025 207.479 256.737 C 203.764 266.386 198.657 275.159 193.909 283.828 C 189.161 292.497 184.77 301.061 182.487 310.292 C 180.276 319.23 177.338 330.029 176.087 340.112 C 174.836 350.195 175.272 359.561 179.808 365.632 C 184.967 372.536 196.47 376.946 209.634 379.545 C 222.799 382.144 237.625 382.932 249.43 382.59 C 261.852 382.23 278.644 380.707 293.418 377.135 C 308.193 373.563 320.949 367.941 325.298 359.383 C 330.067 349.998 325.073 334.616 317.478 318.003 C 309.884 301.389 299.689 283.544 294.059 269.233 C 288.779 255.811 281.993 243.512 275.68 231.123 C 269.368 218.734 263.529 206.254 260.141 192.471 C 256.54 177.82 257.088 158.666 257.481 140.924 C 257.874 123.183 258.112 106.855 253.893 97.858 C 251.743 93.273 248.319 88.867 244.914 85.69 C 241.508 82.514 238.12 80.567 236.041 80.899 C 234.52 81.142 232.958 84.043 231.776 86.883 C 230.594 89.724 229.793 92.503 229.793 92.503 C 229.793 92.503 229.793 92.503 229.793 92.503 L 229.793 92.503 L 229.793 92.503 C 229.793 92.503 229.793 92.503 229.793 92.503"/>
  <path style="stroke-linecap: round; fill: rgb(0, 0, 1);" d="M 262.226 309.06 C 262.226 309.06 287.35729381283244 295.1447135622863 287.868 288.129 C 288.31020127346557 282.05435757454114 279.40261240728074 273.2805824138832 271.119 269.818 C 258.78937798699224 264.6641697321153 226.68202962654382 265.82442886560074 216.181 271.91 C 209.88744684924472 275.55724857934234 204.83434167574646 283.17934605441314 205.718 288.658 C 206.8420319912836 295.62696315576903 222.27912866024516 305.48144005147964 230.309 309.06 C 236.33237349015135 311.7443522411273 242.51672943842328 311.77733702074556 248.097 311.674 C 253.0856361362815 311.5816190320489 262.226 309.06 262.226 309.06 C 262.226 309.06 262.226 309.06 262.226 309.06" bx:d="M 262.226 309.06 R 287.868 288.129 R 271.119 269.818 R 216.181 271.91 R 205.718 288.658 R 230.309 309.06 R 248.097 311.674 R 262.226 309.06 Z 1@54adf688"/>
  <path style="stroke: rgb(0, 0, 0); fill: rgba(216, 216, 216, 0); stroke-linecap: round; stroke-width: 7px;" d="M 181.545 350.71 C 181.545 350.71 194.59605333625254 362.49004310203827 203.104 363.057 C 214.50812871950268 363.81695415795394 231.24106464000243 345.77255352332537 244.44 346.209 C 256.92177727958045 346.6217323581583 268.4868068088692 362.5435178603126 280.33 363.685 C 291.13941508610037 364.726843535111 312.458 355.105 312.458 355.105" bx:d="M 181.545 350.71 R 203.104 363.057 R 244.44 346.209 R 280.33 363.685 R 312.458 355.105 1@cf365e14"/>
  <path style="stroke-linecap: round; stroke-linejoin: round; fill: rgb(0, 0, 1);" d="M 329.356 225.068 C 329.356 225.068 289.2933749899317 227.13383642171664 286.563 220.91 C 283.9867953093285 215.03759176203874 300.3049490319296 191.8476176218749 309.639 190.372 C 319.52282091509966 188.80946939419258 344.91266703691525 208.61401944993528 344.814 214.962 C 344.74927574148495 219.12619046335794 329.356 225.068 329.356 225.068 C 329.35600000000005 225.068 329.35599999999994 225.06799999999998 329.356 225.068" bx:d="M 329.356 225.068 R 286.563 220.91 R 309.639 190.372 R 344.814 214.962 R 329.356 225.068 Z 1@6a3e0b4f"/>
  <ellipse style="fill: rgb(255, 255, 255);" cx="307.954" cy="200.974" rx="5.396" ry="4.997"/>
  <ellipse style="fill: rgb(255, 255, 255);" cx="172.648" cy="201.973" rx="5.396" ry="4.997"/>
  <ellipse style="fill: rgb(255, 255, 255);" cx="245.597" cy="275.122" rx="17.987" ry="3.798"/>
  <path style="stroke-linecap: round; stroke-linejoin: round; fill: rgb(208, 140, 96);" d="M 171.966 185.161 C 171.966 185.161 143.56368403196106 186.62623261379716 141.628 182.214 C 139.80160112214767 178.0508739104087 151.37058580527724 161.61011189301476 157.988 160.564 C 164.99511097840664 159.4562830104799 182.99505356213217 173.49679726848308 182.925 177.997 C 182.87904611640158 180.9490524895396 171.966 185.161 171.966 185.161 C 171.966 185.16100000000003 171.96599999999998 185.16099999999997 171.966 185.161" transform="matrix(0.961262, -0.275637, 0.275637, 0.961262, -41.388344, 51.402527)" bx:d="M 171.966 185.161 R 141.628 182.214 R 157.988 160.564 R 182.925 177.997 R 171.966 185.161 Z 1@f2910fca"/>
  <path style="stroke-linecap: round; stroke-linejoin: round; fill: rgb(208, 140, 96);" d="M 338.733 184.613 C 338.733 184.613 312.9061153388047 185.94429876102265 311.146 181.932 C 309.4852931205919 178.14630936497824 320.004773996416 163.19725446523503 326.022 162.246 C 332.3937106007903 161.23870558284213 348.7615676153288 174.00571072290853 348.698 178.098 C 348.6563006265583 180.7824785338325 338.733 184.613 338.733 184.613 C 338.733 184.613 338.73299999999995 184.61299999999997 338.733 184.613" transform="matrix(0.951057, 0.309017, -0.309017, 0.951057, 69.759895, -93.432343)" bx:d="M 338.733 184.613 R 311.146 181.932 R 326.022 162.246 R 348.698 178.098 R 338.733 184.613 Z 1@e6f02fec"/>
</svg>