<?xml version="1.0" encoding="utf-8"?>
<svg viewBox="-5.015 2.885 511.222 524.036" width="511.222" height="524.036" xmlns="http://www.w3.org/2000/svg" xmlns:bx="https://boxy-svg.com">
  <path style="fill: rgb(228, 215, 197);" d="M 256.081 367.607 C 256.081 367.607 315.015 351.243 338.922 360.488 C 368.465 371.912 387.001 415.407 410.572 447.977 C 421.206 462.67 438.601 481.169 454.873 499.878 L 56.306 499.878 C 71.55 482.074 87.776 464.471 97.804 450.256 C 120.89 417.534 138.908 373.42 168.893 361.393 C 193.665 351.457 256.081 367.607 256.081 367.607 Z"/>
  <path style="stroke-linecap: round; fill: rgb(239, 231, 220);" d="M 168.437 14.535 C 168.437 14.535 141.37287871703344 42.363770948175 130.919 58.264 C 120.4883033481165 74.1289693978961 113.0536424559633 91.9460014896587 105.756 109.813 C 98.28726588082617 128.09888646082138 92.41727482191854 153.1081273456105 86.775 166.82 C 83.44635661241193 174.90927882512528 79.63281033576312 178.52958656664245 77.504 185.564 C 75.05978635801102 193.64062805293528 72.6404897399495 205.5868362718085 73.974 212.904 C 74.95876119151478 218.30752713237453 79.758765845341 221.0599621496945 81.035 226.176 C 82.54671753160035 232.2360196934113 78.92027725391239 241.94062470941347 81.035 247.269 C 82.68718510467914 251.4319392333036 86.85780861146277 254.06256445737782 89.864 256.64 C 92.46599241291142 258.8708851499752 96.41813891960231 259.3507960934428 97.812 262.105 C 99.4949778418287 265.4304850227193 95.16708107880203 273.0346719497778 97.37 276.16 C 99.66815160233051 279.42043668575906 108.9135255859542 277.54255777498173 111.938 280.849 C 115.03186722195503 284.2313044340414 112.34034419149654 293.96801018260567 115.47 296.469 C 118.36289436435149 298.7807875545235 125.2288483746369 294.6512552834176 129.153 296.469 C 133.44681972941143 298.4579823004412 135.32706749772478 307.8105069427682 139.747 308.965 C 144.3668607741303 310.1717146243443 151.6292092920337 307.8766847632218 156.519 302.717 C 166.15834289274918 292.5456095210249 172.05656230445422 263.40014428828647 177.266 236.33 C 185.02544249492496 196.00909778172846 193.6549239607357 123.09662078368294 189.188 82.48 C 186.15710530233602 54.92083363576735 168.437 14.535 168.437 14.535 C 168.437 14.534999999999998 168.437 14.535 168.437 14.535 C 168.437 14.535 168.43700000000004 14.535000000000004 168.437 14.535" transform="matrix(0.97437, 0.224951, -0.224951, 0.97437, 39.804501, -25.544521)" bx:d="M 168.437 14.535 R 130.919 58.264 R 105.756 109.813 R 86.775 166.82 R 77.504 185.564 R 73.974 212.904 R 81.035 226.176 R 81.035 247.269 R 89.864 256.64 R 97.812 262.105 R 97.37 276.16 R 111.938 280.849 R 115.47 296.469 R 129.153 296.469 R 139.747 308.965 R 156.519 302.717 R 177.266 236.33 R 189.188 82.48 R 168.437 14.535 R 168.437 14.535 Z 1@46572654"/>
  <path style="stroke-linecap: round; fill: rgb(239, 231, 220);" d="M 337.841 42.088 C 337.841 42.088 368.9864082013622 62.55242174024699 381.428 79.598 C 397.60854541490204 101.76612427372837 408.43074977369764 148.56054435736652 419.378 169.15 C 425.56323348525297 180.78311222922187 433.8981346491178 186.0911619228354 436.303 195.18 C 438.50653810783615 203.50795110613475 437.54311641668255 215.84284707575773 434.761 221.202 C 433.0524258863407 224.49320302177046 428.47326250458445 224.13500068779788 427.069 227.325 C 424.9563160405583 232.1242881355996 429.6835548416653 243.44279063383638 428.606 249.525 C 427.796013071855 254.09693443001046 426.5622740654469 259.48992616062475 423.481 261.007 C 419.9674842596576 262.7368892278618 409.8756244306295 254.99902307261266 407.585 257.185 C 404.93906603161935 259.71005409831866 413.7313740377351 273.50470367377005 411.688 278.61 C 410.02212572255075 282.772126792043 403.46456253668896 286.4775796148964 399.889 287.036 C 397.3112179737637 287.438590086744 394.557556906249 283.7358012514316 392.713 284.735 C 389.90495324189897 286.256122388315 391.48850220877017 298.82532333685964 388.095 301.578 C 385.1847157108288 303.93870912970135 379.29464487335474 301.0236633358829 375.273 302.346 C 371.0658239112217 303.72934024255795 367.5994341331086 308.7777655940365 363.48 309.997 C 359.7067599162516 311.1137708921699 355.3678973633141 310.69476276850355 351.686 309.997 C 348.21727839133877 309.33963653926276 345.6106584638575 309.1946401763444 341.944 306.167 C 332.6633663229537 298.5037775702241 314.6532619386429 276.01578928785506 306.043 249.525 C 290.5248098945581 201.7809119407077 271.20504782143655 50.17281785515054 292.199 32.134 C 301.92112793020965 23.780370659232183 337.841 42.088 337.841 42.088 C 337.841 42.088 337.841 42.088 337.841 42.088 C 337.841 42.088 337.84100000000007 42.08800000000001 337.841 42.088" transform="matrix(0.984808, -0.173648, 0.173648, 0.984808, -24.102461, 65.144051)" bx:d="M 337.841 42.088 R 381.428 79.598 R 419.378 169.15 R 436.303 195.18 R 434.761 221.202 R 427.069 227.325 R 428.606 249.525 R 423.481 261.007 R 407.585 257.185 R 411.688 278.61 R 399.889 287.036 R 392.713 284.735 R 388.095 301.578 R 375.273 302.346 R 363.48 309.997 R 351.686 309.997 R 341.944 306.167 R 306.043 249.525 R 292.199 32.134 R 337.841 42.088 R 337.841 42.088 Z 1@250da26f"/>
  <path style="stroke-linecap: round; fill: rgb(233, 222, 206);" d="M 137.505 137.439 C 137.505 137.439 123.824 182.925 122.952 207.028 C 122.021 232.759 130.608 261.768 133.761 287.321 C 136.633 310.601 128.294 339.024 141.256 354.144 C 156.301 371.694 197.334 375.256 228.684 377.88 C 263.981 380.835 320.851 384.388 342.972 366.635 C 360.521 352.551 359.812 319.446 365.455 297.939 C 370.306 279.453 374.152 264.51 375.905 245.566 C 377.941 223.568 381.973 189.257 375.011 173.561 C 370.576 163.561 358.605 162.924 353.59 153.674 C 346.944 141.416 357.348 114.239 344.85 103.092 C 324.017 84.511 240.765 88.413 202.457 94.971 C 174.778 99.709 138.743 113.497 133.761 123.697 C 131.582 128.158 137.505 137.439 137.505 137.439 C 137.505 137.439 137.505 137.439 137.505 137.439 C 137.505 137.439 137.505 137.439 137.505 137.439" bx:d="M 137.505 137.439 R 122.952 207.028 R 133.761 287.321 R 141.256 354.144 R 228.684 377.88 R 342.972 366.635 R 365.455 297.939 R 375.905 245.566 R 375.011 173.561 R 353.59 153.674 R 344.85 103.092 R 202.457 94.971 R 133.761 123.697 R 137.505 137.439 R 137.505 137.439 Z 1@5cfc4adf"/>
  <path style="stroke-linecap: round; fill: rgb(237, 229, 216);" d="M 246.797 15.38 C 246.797 15.38 259.8898673166015 2.6102370401371724 266.782 2.889 C 274.6035209207596 3.2053535037205463 282.57976845634306 18.29342518037162 291.137 21.002 C 298.70565214814496 23.397665060879117 309.62007433562246 17.41999792859649 314.873 20.376 C 319.0621027146073 22.733352281924716 318.02903506024035 30.704983005918958 322.367 33.486 C 328.2960779802866 37.287060370792624 345.86121448802834 31.4461689800115 350.466 35.984 C 354.16569057799137 39.62989634533911 349.01561874483536 50.43893509205846 352.344 54.097 C 355.75317069267425 57.843856721027244 366.5471953548428 54.079800581274135 371.077 57.848 C 376.10542320815716 62.03098423318162 375.8307387359087 73.50066212993447 379.824 79.705 C 383.4929816606065 85.40550401314196 392.2112394500002 88.61307787351527 393.56 94.068 C 394.85020303504837 99.2860923319152 387.12098943606276 107.26417345979425 388.564 111.554 C 389.75994135514793 115.10933153675941 396.8573312175267 115.35760538482444 398.557 119.049 C 400.67511260702173 123.64918419619241 399.39406072374453 134.47623332559712 397.311 138.408 C 396.0488941062752 140.79021854790398 392.87081434318867 140.47422937449969 391.688 142.778 C 389.9011011016935 146.25834771167845 391.98371409076896 153.9554533693282 391.062 159.019 C 390.21189278004715 163.68916571886342 390.18597998421143 169.48584865873778 386.692 172.136 C 381.93414197474175 175.74479108757077 367.92832802915404 176.10778494374227 361.085 173.382 C 354.9269675851703 170.92917705071133 352.1553906728231 159.90807611743813 346.722 158.393 C 341.83147174703004 157.029298583352 336.04240931375324 163.55275984875274 330.481 162.763 C 323.824332098825 161.81770560819393 316.58845022828075 151.87194186601948 309.876 150.272 C 304.3569516104177 148.95651068108077 298.81285985336484 153.08185337699157 293.635 151.525 C 287.70542110908184 149.74212344831722 283.22361258692814 141.42116945031745 276.774 138.408 C 269.9888179596733 135.2380571603026 261.61136004421377 134.35870670617086 253.665 133.411 C 245.3949250103991 132.42468607959214 234.2942137453962 129.90577376730462 228.064 132.785 C 223.00631512909015 135.12235463214097 221.8100337298713 142.87710043223603 217.445 145.902 C 213.22165425305548 148.82871202905616 207.05453542418715 151.12009513422313 202.457 150.898 C 198.4004600438172 150.70203896807192 194.32370390322194 144.90913595529827 191.218 145.902 C 187.67990157003902 147.03309646868763 187.3361659543279 157.1385369563272 183.098 159.645 C 178.35467667810929 162.45021450519644 167.88748034987506 160.42710550825436 163.113 160.265 C 160.43729395144734 160.17415311046335 159.02525725533275 158.75470585564722 156.864 159.645 C 153.14149107906712 161.178425919765 150.10719761164182 171.0824993488955 145 174.008 C 139.76017000417835 177.0094750221355 131.5219461200954 178.6199487991753 125.641 177.132 C 119.62962351345134 175.6110507782436 112.81901599354825 169.81037639246676 109.4 164.641 C 106.24706827452836 159.87392934005902 106.83291480058877 152.58398278552394 105.03 147.774 C 103.58634033792613 143.9224712863509 100.20852260020183 141.75528817209238 100.033 137.782 C 99.78586510201335 132.1876311497643 106.60537104916399 124.17100019234695 108.154 117.177 C 109.64930412634723 110.42382820785198 108.40335079017247 102.26103670954213 109.4 96.566 C 110.12971071295239 92.39629890895209 110.39083807581625 88.1065510232631 112.524 85.947 C 114.39291718930498 84.05496265262332 118.67984194816401 85.67398843331678 120.645 83.449 C 123.77531075401966 79.90480404391711 120.70269368321063 65.62270312536265 124.389 62.218 C 127.2708193343391 59.55632773210761 133.98578690262843 63.21604741585208 137.505 60.966 C 141.54393268896865 58.38366417430023 143.11417247817639 50.58093347307372 146.252 45.977 C 149.18049256580267 41.68021030854156 151.68867604049777 35.79028938681521 155.618 34.112 C 159.28659441417565 32.54507318681342 164.71254385273238 36.91522406180276 168.735 35.365 C 173.62170926505294 33.48169934776908 176.19240064580868 23.775049527357453 181.846 21.002 C 188.01907593483065 17.97415097303755 199.748885981936 22.094692535349008 204.955 19.124 C 208.8521651703979 16.900214765840172 208.7936283551446 10.99311747709785 212.449 8.511 C 216.82669481239932 5.5384013536900145 224.9091499834141 3.0808799714607056 230.562 4.135 C 236.38150825149123 5.2201977650472955 246.797 15.38 246.797 15.38 C 246.797 15.379999999999999 246.797 15.38 246.797 15.38 C 246.797 15.38 246.797 15.380000000000003 246.797 15.38" bx:d="M 246.797 15.38 R 266.782 2.889 R 291.137 21.002 R 314.873 20.376 R 322.367 33.486 R 350.466 35.984 R 352.344 54.097 R 371.077 57.848 R 379.824 79.705 R 393.56 94.068 R 388.564 111.554 R 398.557 119.049 R 397.311 138.408 R 391.688 142.778 R 391.062 159.019 R 386.692 172.136 R 361.085 173.382 R 346.722 158.393 R 330.481 162.763 R 309.876 150.272 R 293.635 151.525 R 276.774 138.408 R 253.665 133.411 R 228.064 132.785 R 217.445 145.902 R 202.457 150.898 R 191.218 145.902 R 183.098 159.645 R 163.113 160.265 R 156.864 159.645 R 145 174.008 R 125.641 177.132 R 109.4 164.641 R 105.03 147.774 R 100.033 137.782 R 108.154 117.177 R 109.4 96.566 R 112.524 85.947 R 120.645 83.449 R 124.389 62.218 R 137.505 60.966 R 146.252 45.977 R 155.618 34.112 R 168.735 35.365 R 181.846 21.002 R 204.955 19.124 R 212.449 8.511 R 230.562 4.135 R 246.797 15.38 R 246.797 15.38 Z 1@4d1a9433"/>
  <path style="stroke-linecap: round; fill: rgb(239, 231, 220);" d="M 415.835 387.964 C 415.835 387.964 424.8409477237763 381.3633624365851 429.177 381.719 C 433.6965665244737 382.0896891716386 437.62330601320195 389.35781894741075 442.373 390.775 C 446.9006873529671 392.1259402387833 453.9765578555395 388.7122470682947 456.913 390.462 C 459.0032504527064 391.7075283222661 458.12705923674196 395.5909470741798 460.28 397.017 C 463.54625442941995 399.1804834385779 474.950093317869 395.7068675552901 477.195 398.267 C 478.83661497229747 400.13912759699696 475.19678058980037 405.466131078506 476.676 407.322 C 478.32282357556505 409.3881496678591 485.35723302715786 407.08461037654683 487.76 409.198 C 490.1820248994503 411.3283282207965 489.2582115847812 417.0462353054229 491.088 420.125 C 492.80612627040847 423.0158842455023 497.761905757634 424.63958174833937 498.148 427.307 C 498.5309084623277 429.95240857918316 492.9702139879443 433.8968184279906 493.492 436.05 C 493.91729355984864 437.8049996255219 498.2129946733825 437.9365802376865 498.901 439.798 C 499.74937611888436 442.09330791764376 497.8544473843818 447.52953654032035 496.36 449.476 C 495.36754095614447 450.7686418716923 493.45717529356097 450.409802297571 492.526 451.661 C 491.24630491147167 453.3804953148441 491.64790372459544 457.28989836891907 490.652 459.782 C 489.6999379571894 462.1643943130063 489.0360237084424 464.9914974170896 486.778 466.34 C 483.5309632449682 468.2791459153392 475.05668953349783 468.550399457197 471.04 466.962 C 467.75719917832885 465.66381675737154 466.6025504358441 460.35489727330133 463.655 459.469 C 460.7047681855529 458.58229682836213 456.7758932126681 462.1568490896931 453.344 461.653 C 449.52969170746104 461.093007120877 445.72602698717225 456.25491279485783 441.92 455.408 C 438.5771446431848 454.66415162935317 435.0063927029985 456.93350672433695 431.896 456.034 C 428.6110827337687 455.08402182939227 426.3426998307047 450.98165197066555 422.814 449.476 C 418.88796530359826 447.80081022440555 413.8905355703991 447.4533511537203 409.174 446.977 C 404.17669502563166 446.472292263887 397.6856345238827 445.2076242293608 393.61 446.664 C 390.32681564395864 447.83720385786813 388.8232951166765 451.71177873315014 385.926 453.222 C 383.0540984623836 454.71898480953575 379.17342098511 455.8894233130976 376.32 455.721 C 373.9464785835228 455.5809027823945 371.8943817841257 452.7574091538469 369.923 453.222 C 367.63277488951735 453.76173189289284 366.46467105700015 458.828012677575 363.704 460.095 C 360.5297899046254 461.5517776698192 354.3629027609208 460.48672876804864 351.454 460.404 C 349.84080357640573 460.35812093022236 349.0988674712128 459.64945611209845 347.698 460.095 C 345.2859952282152 460.8621346545922 342.4833658946143 465.8082149631565 339.138 467.275 C 335.64226031621365 468.80771684545266 330.59598528948595 469.7287451128048 327.039 468.838 C 323.69849706746635 468.0014666946025 319.87292967704354 465.2463381063988 318.277 462.593 C 316.8579089693954 460.2336677799694 317.8208089165054 456.56622264135694 317.162 454.159 C 316.6356314561616 452.2357013853622 314.8570628694155 451.0713643947178 315.033 449.163 C 315.29852531682997 446.28288561566904 320.28738935971194 442.43568190370917 321.881 438.862 C 323.3591962490833 435.547135595904 323.429141119089 431.371691554412 324.537 428.556 C 325.37168471356256 426.43459741067136 326.0060800183901 424.3327243203043 327.42 423.247 C 328.7484908408025 422.2268752164753 331.18666315964526 423.2264022058076 332.605 421.998 C 334.68135934053726 420.1996934754884 334.45596784838483 413.1357739130172 336.841 411.382 C 338.85410947546933 409.9017101516075 342.58182026881815 411.93001333697026 344.96 410.756 C 347.6034402028965 409.45103805242604 349.3554268928964 405.5499580461182 351.674 403.263 C 353.87036355620967 401.09658510814876 355.93248994558456 398.17196328470806 358.48 397.331 C 360.86494275667116 396.54370210847065 363.7754656862437 398.72692102019823 366.368 397.957 C 369.52938619256605 397.01814350359575 372.00661312138425 392.16526750777746 375.688 390.775 C 379.74699804958345 389.2421284794197 386.49237367898155 391.36280318070396 389.961 389.837 C 392.5022236650669 388.7191490722295 393.10034799919435 385.77167522749124 395.509 384.53 C 398.477472728981 382.9997336726821 403.5051374392028 381.6840366832472 406.963 382.342 C 410.2447133621219 382.9664455846377 415.835 387.964 415.835 387.964 C 415.835 387.964 415.835 387.964 415.835 387.964 C 415.835 387.964 415.835 387.964 415.835 387.964" transform="matrix(0.779303, 0.626647, -0.626647, 0.779303, 356.442627, -161.192169)" bx:d="M 415.835 387.964 R 429.177 381.719 R 442.373 390.775 R 456.913 390.462 R 460.28 397.017 R 477.195 398.267 R 476.676 407.322 R 487.76 409.198 R 491.088 420.125 R 498.148 427.307 R 493.492 436.05 R 498.901 439.798 R 496.36 449.476 R 492.526 451.661 R 490.652 459.782 R 486.778 466.34 R 471.04 466.962 R 463.655 459.469 R 453.344 461.653 R 441.92 455.408 R 431.896 456.034 R 422.814 449.476 R 409.174 446.977 R 393.61 446.664 R 385.926 453.222 R 376.32 455.721 R 369.923 453.222 R 363.704 460.095 R 351.454 460.404 R 347.698 460.095 R 339.138 467.275 R 327.039 468.838 R 318.277 462.593 R 317.162 454.159 R 315.033 449.163 R 321.881 438.862 R 324.537 428.556 R 327.42 423.247 R 332.605 421.998 R 336.841 411.382 R 344.96 410.756 R 351.674 403.263 R 358.48 397.331 R 366.368 397.957 R 375.688 390.775 R 389.961 389.837 R 395.509 384.53 R 406.963 382.342 R 415.835 387.964 R 415.835 387.964 Z 1@9cdcf865"/>
  <path style="stroke-linecap: round; fill: rgb(239, 231, 220);" d="M 86.48 385.326 C 86.48 385.326 93.2053004181155 378.87181767556143 97.117 378.844 C 101.88378284637919 378.8101014819986 107.71983253757216 386.85597708503985 113.048 388.244 C 117.66693103964818 389.44726212921455 123.59235193541404 386.3788628903043 126.945 387.919 C 129.61146944306753 389.14392085719265 129.74321791632744 393.2750214045005 132.516 394.722 C 136.34777972586306 396.7216173801906 146.1698594620136 393.5041276692983 149.258 396.019 C 151.61502657181174 397.93847899885515 149.82986218999335 403.5001525154586 151.973 405.417 C 154.297769962576 407.496301402875 160.3015832461819 405.33848013022237 163.318 407.363 C 166.56952233981974 409.5453150185259 167.5622541588435 415.5180018694006 170.405 418.706 C 173.09310111815128 421.7205717620828 178.58243395928835 423.1585685430524 179.758 426.159 C 180.787870334596 428.787568061245 177.34218947067612 433.04613852560436 178.376 435.233 C 179.31740706157825 437.2243966595367 183.61779740008694 437.07762319676925 184.918 439.123 C 186.41529644194208 441.4784293847074 186.78399004980852 447.1273146600817 185.907 449.168 C 185.37638806231396 450.402691320224 183.4818785031743 450.2441819550507 182.99 451.436 C 182.24406774579822 453.2433884407027 184.16790216618818 457.21334849897625 184.067 459.865 C 183.97575432219878 462.2628844820071 184.3190720535024 465.2622968637666 182.665 466.671 C 180.23820504406763 468.7377985159284 171.96264706153175 468.69746525241675 167.721 467.318 C 163.8445276863293 466.05729660316115 161.3396465849478 460.27916945754043 157.945 459.539 C 154.99502215069518 458.89578620738956 152.05120079307184 462.15573260239887 148.787 461.807 C 144.70856178241405 461.37127791563523 139.7010469926472 456.13714897868005 135.561 455.326 C 132.2435177131173 454.67601405211764 129.27314934141145 456.7488737129522 126.126 455.975 C 122.43562204032537 455.06754814944077 119.11595666913085 450.73182210780266 115.046 449.168 C 110.78316593704815 447.5300675374508 105.80087462079148 447.0650964177967 101.018 446.575 C 96.095537254451 446.07060012553035 89.35812171889042 444.5671121809823 85.911 446.251 C 83.32711987673524 447.5132020979196 83.05152552615213 451.4926597586973 80.837 453.058 C 78.58751022231709 454.6480547678601 75.12786738641206 455.7190063616176 72.469 455.65 C 70.00678589689633 455.58609743846307 67.17684972013241 452.359171014374 65.418 453.058 C 63.60674353376851 453.77765131785674 63.96897006399706 458.8466962156084 61.866 460.189 C 59.31787141782909 461.81544380798425 52.985545100828276 460.5934065309161 50.174 460.511 C 48.58354609785038 460.46438371466303 47.67121095341622 459.647285948554 46.445 460.189 C 44.50358100083693 461.0466778315845 43.35555717179325 466.1091407964489 40.747 467.643 C 37.89444208736733 469.32033421957016 33.18446161425224 469.9840399367165 29.645 469.264 C 25.912756152634035 468.5047419781453 21.469256223622054 465.55789183992965 18.986 462.782 C 16.801516599342687 460.34008941958416 16.384942475984214 456.5043668657645 14.916 454.028 C 13.715935221469707 452.0049114836629 12.394028992897168 450.7401533809598 11.091 448.843 C 9.585102718014655 446.6504792383979 8.551402282162403 444.0942340356454 6.461 441.589 C 3.6517093027565357 438.2222170937568 -4.635746658615331 434.5542801290501 -4.931 431.016 C -5.186362564046767 427.95576609432254 -0.14226261208893537 425.1366595756247 2.162 421.804 C 4.692795799367784 418.1437050273415 6.350265462117647 411.70751377703573 9.537 409.875 C 12.111325204064867 408.394648766805 15.77993395423151 409.7938837237629 18.686 409.631 C 21.339014133604184 409.4822997246203 24.402409142115815 410.27078622075317 26.286 408.981 C 28.29301729126875 407.6066977006147 28.662114630928585 403.58822819438285 30.094 401.203 C 31.435078276710144 398.9690378508107 32.524985815793485 395.9757199055261 34.545 395.047 C 36.598428352292395 394.1029176265909 40.08766307311911 396.6291917620915 42.368 395.697 C 44.92142476388628 394.653171124558 45.878205472375086 389.71118579743637 48.797 388.244 C 52.209538682894596 386.52862461425167 59.40274095137745 388.9596257617876 62.216 387.269 C 64.17203832809918 386.09352034051113 63.846647338396714 383.0516178706342 65.677 381.762 C 68.00327966424689 380.1229651352775 72.58202031922467 379.00560670759563 75.935 379.491 C 79.52611341972235 380.0108666655186 86.48 385.326 86.48 385.326 C 86.48000000000002 385.326 86.48 385.326 86.48 385.326 C 86.48 385.326 86.48 385.326 86.48 385.326" transform="matrix(0.634205, -0.773165, 0.773165, 0.634205, -294.790802, 225.308792)" bx:d="M 86.48 385.326 R 97.117 378.844 R 113.048 388.244 R 126.945 387.919 R 132.516 394.722 R 149.258 396.019 R 151.973 405.417 R 163.318 407.363 R 170.405 418.706 R 179.758 426.159 R 178.376 435.233 R 184.918 439.123 R 185.907 449.168 R 182.99 451.436 R 184.067 459.865 R 182.665 466.671 R 167.721 467.318 R 157.945 459.539 R 148.787 461.807 R 135.561 455.326 R 126.126 455.975 R 115.046 449.168 R 101.018 446.575 R 85.911 446.251 R 80.837 453.058 R 72.469 455.65 R 65.418 453.058 R 61.866 460.189 R 50.174 460.511 R 46.445 460.189 R 40.747 467.643 R 29.645 469.264 R 18.986 462.782 R 14.916 454.028 R 11.091 448.843 R 6.461 441.589 R -4.931 431.016 R 2.162 421.804 R 9.537 409.875 R 18.686 409.631 R 26.286 408.981 R 30.094 401.203 R 34.545 395.047 R 42.368 395.697 R 48.797 388.244 R 62.216 387.269 R 65.677 381.762 R 75.935 379.491 R 86.48 385.326 R 86.48 385.326 Z 1@54be7112"/>
  <path style="stroke-linecap: round; fill: rgb(239, 231, 220);" d="M 232.434 401.957 C 232.434 401.957 223.7942767430796 410.80705732652945 218.691 410.704 C 212.07641914450497 410.570422878202 203.27462396616326 395.4434109001697 196.215 395.089 C 190.28751631510585 394.7914253928293 185.39364619601676 404.6259161780864 179.347 404.455 C 172.05409440755554 404.2488567082316 163.22915616183928 391.3764577387914 155.618 389.466 C 149.60253525788468 387.9560728713699 143.0885254562556 392.8734478382234 138.131 390.719 C 132.72130253459838 388.3680466639822 125.93436929138475 379.78914998655364 125.015 374.478 C 124.28301283223935 370.2493470825703 130.45680358884928 365.3998224484089 129.385 361.987 C 128.28789963847913 358.4936279112056 121.33493848190675 357.21693900553134 118.146 353.867 C 114.84041560314604 350.39452595576074 109.87033291189324 345.53521702925 110.026 341.376 C 110.18974032452041 337.0010768585514 120.34299825529236 332.2091468831009 120.018 328.266 C 119.71233509225736 324.5574212350016 110.80571781554549 322.71868401282967 109.4 318.273 C 107.68577572561102 312.85164205263817 110.55026590021373 301.3507036223264 113.776 297.036 C 116.03314020014936 294.0168760745878 121.97467180117565 294.81383005007984 123.143 292.039 C 124.55978502907115 288.6740742221871 118.13912130122705 281.9616362664422 118.773 277.051 C 119.45746575221392 271.7484675873071 124.09140963634415 262.80553306518215 128.139 261.442 C 131.6186159030444 260.2698034801799 137.4151972381504 267.79345850061196 140.63 266.438 C 144.51056086819048 264.80183765798915 143.34110779721237 251.2696301162299 148.124 248.325 C 153.53095339688113 244.9961610601995 167.23864462856605 252.943834787696 173.105 250.197 C 177.8104674426895 247.99373394372097 178.10170295839774 239.2355978069292 182.472 237.081 C 187.10634593460378 234.79622358956453 195.24659767144578 235.9885228247859 200.585 237.707 C 205.56304628272972 239.30947549501334 207.19796761784795 244.4523884003318 213.695 246.453 C 227.19857064499257 250.61111380954864 267.68304771475476 251.4849199743785 281.771 247.073 C 289.0879712851709 244.7815462023598 290.91345155597594 237.73509798836653 296.759 236.461 C 303.37431035337084 235.01912440964932 316.04410312568245 237.22199297194393 319.869 240.831 C 322.4002449380405 243.21937309116967 320.21094992141167 249.7548958775742 322.367 250.824 C 324.9042650305503 252.08213427563066 331.01125381151843 244.99689262941837 335.477 245.201 C 340.3589104117086 245.42412819750461 347.6781410477057 249.72710602203782 350.466 253.322 C 352.6329434885481 256.11623465493307 350.5328934615463 261.34732467454177 352.964 263.314 C 356.18893039787224 265.9228494845848 366.7050826346381 261.1330381591289 371.077 263.94 C 375.4524177092901 266.7492092145095 378.84389752254975 275.1909564616473 379.198 280.175 C 379.4841482822208 284.20257842103615 374.45050311819875 287.6595936848241 375.447 291.42 C 376.8744231877681 296.80656092933253 392.6337771849959 302.4629549027157 393.56 307.654 C 394.2109886080946 311.30248626885003 390.1659995167919 315.2564203685682 387.938 318.273 C 385.9348269832548 320.9851778416042 382.1109453251553 321.9213506386998 381.07 325.141 C 379.5909327989 329.71576262610705 385.786019781674 339.30789660300513 384.194 344.5 C 382.821164510081 348.97727088116244 376.1797155511439 350.5283636713175 374.201 355.119 C 371.81130301922934 360.66311662056535 374.8418359558779 370.08511524876644 372.949 376.35 C 371.23936865163057 382.0085164347548 368.6400195389 388.6929908880885 364.209 391.338 C 359.6027582752429 394.0876045157758 350.44982623050475 389.89916516957516 345.47 391.965 C 341.2138464176812 393.7306259288992 340.24599845063614 399.44546958039797 335.477 401.331 C 328.2046078665719 404.20630321781175 307.61751563560546 404.6618565456093 303.628 401.331 C 301.7603159315418 399.7716659171772 303.59946169224776 394.8665893144788 302.382 394.463 C 300.7323591450087 393.9161430220421 296.8568594164177 400.89549411542885 293.015 403.209 C 288.5661722095179 405.88801246691645 280.86716627033996 410.0087834099902 276.774 408.825 C 273.3542714908498 407.83598132633 272.3655305359753 399.66143994523406 269.28 399.459 C 265.1351840187387 399.1870609248659 259.2167248149319 413.1971506154205 253.665 414.448 C 248.9217592400115 415.5166912596219 242.35733635281045 411.96538127403556 238.676 409.452 C 235.78352721772177 407.47720437419815 232.434 401.957 232.434 401.957 C 232.43400000000003 401.9570000000001 232.434 401.957 232.434 401.957 C 232.434 401.957 232.43399999999997 401.957 232.434 401.957" bx:d="M 232.434 401.957 R 218.691 410.704 R 196.215 395.089 R 179.347 404.455 R 155.618 389.466 R 138.131 390.719 R 125.015 374.478 R 129.385 361.987 R 118.146 353.867 R 110.026 341.376 R 120.018 328.266 R 109.4 318.273 R 113.776 297.036 R 123.143 292.039 R 118.773 277.051 R 128.139 261.442 R 140.63 266.438 R 148.124 248.325 R 173.105 250.197 R 182.472 237.081 R 200.585 237.707 R 213.695 246.453 R 281.771 247.073 R 296.759 236.461 R 319.869 240.831 R 322.367 250.824 R 335.477 245.201 R 350.466 253.322 R 352.964 263.314 R 371.077 263.94 R 379.198 280.175 R 375.447 291.42 R 393.56 307.654 R 387.938 318.273 R 381.07 325.141 R 384.194 344.5 R 374.201 355.119 R 372.949 376.35 R 364.209 391.338 R 345.47 391.965 R 335.477 401.331 R 303.628 401.331 R 302.382 394.463 R 293.015 403.209 R 276.774 408.825 R 269.28 399.459 R 253.665 414.448 R 238.676 409.452 R 232.434 401.957 R 232.434 401.957 Z 1@a0dd4ac1"/>
  <ellipse style="stroke-linecap: round; fill: rgb(0, 0, 1);" cx="291.201" cy="217.332" rx="18.113" ry="23.109"/>
  <ellipse style="stroke-linecap: round; fill: rgb(0, 0, 1);" cx="204.343" cy="217.346" rx="18.113" ry="23.109"/>
  <path style="stroke-linecap: round; fill: rgb(0, 0, 1);" d="M 249.921 314.523 C 249.921 314.523 221.58845847520038 299.48250636976104 220.57 291.42 C 219.70841735176907 284.599382607552 229.367017188522 273.6743430098378 236.804 270.182 C 244.84559786395846 266.4057349742457 261.0473929795099 267.5139096385393 268.034 271.435 C 273.33807220970635 274.4118020953484 277.86098562928186 281.27409885263705 278.027 286.423 C 278.19635621669926 291.675547804768 273.0319721933164 298.0966894331088 268.654 302.658 C 263.89254562478806 307.6188520101111 249.921 314.523 249.921 314.523 C 249.921 314.523 249.921 314.523 249.921 314.523 C 249.921 314.523 249.921 314.523 249.921 314.523" bx:d="M 249.921 314.523 R 220.57 291.42 R 236.804 270.182 R 268.034 271.435 R 278.027 286.423 R 268.654 302.658 R 249.921 314.523 R 249.921 314.523 Z 1@757d8eaf"/>
  <path style="stroke: rgb(0, 0, 0); fill: none; stroke-linecap: round; stroke-width: 7px;" d="M 195.023 327.203 C 195.023 327.203 201.69858790211177 339.47253325683084 205.87 340.313 C 209.7627034555765 341.09731181543725 214.8093258939804 333.3203491122043 219 333.445 C 222.97428029399475 333.56321429069936 226.6473644932958 340.0493757347992 230.421 340.313 C 233.87596742934232 340.55436227471756 237.48402771873285 338.1537008745848 240.702 335.943 C 244.4027908229098 333.4006097014606 247.39604816257128 325.16904672417905 250.975 325.324 C 255.3155721156359 325.51192816970075 259.98789100087396 341.02787303312033 264.679 342.191 C 268.0427042766683 343.0250064478422 271.8649812249177 339.0369474131286 274.96 337.815 C 277.4603277009927 336.8278431559771 279.48040631437726 335.14026780392385 281.811 335.317 C 284.4160369738212 335.51454361649695 286.79791311132493 339.394716557563 289.802 339.693 C 293.32985818442404 340.0432900291087 299.0770972373029 338.0184035203657 301.794 335.943 C 303.880511397655 334.34914351038526 305.788 329.701 305.788 329.701" bx:d="M 195.023 327.203 R 205.87 340.313 R 219 333.445 R 230.421 340.313 R 240.702 335.943 R 250.975 325.324 R 264.679 342.191 R 274.96 337.815 R 281.811 335.317 R 289.802 339.693 R 301.794 335.943 R 305.788 329.701 1@7d0d24a5"/>
  <ellipse style="fill: rgb(255, 255, 255);" cx="285.469" cy="209.301" rx="5.846" ry="5.414"/>
  <ellipse style="fill: rgb(255, 255, 255);" cx="200.378" cy="211.04" rx="5.846" ry="5.414"/>
  <ellipse style="fill: rgb(255, 255, 255);" cx="250.322" cy="281.456" rx="16.962" ry="3.905"/>
</svg>